<svg xmlns="http://www.w3.org/2000/svg" width="154.6" height="154.43" viewBox="0 0 154.6 154.43">
  <g id="그룹_50" data-name="그룹 50" transform="translate(-1363.636 -699.675)">
    <g id="그룹_48" data-name="그룹 48" transform="translate(-2300.388 186.516)">
      <g id="그룹_47" data-name="그룹 47" transform="translate(3664.024 513.159)">
        <g id="그룹_46" data-name="그룹 46">
          <path id="패스_77" data-name="패스 77" d="M3685.314,521.846l.819-.418.826-.424.749,1.462.022-.17a3.823,3.823,0,0,1,2.09-3.146,4.457,4.457,0,0,1,3.908-.247,6.313,6.313,0,0,1,3.1,3.15,7.532,7.532,0,0,1,.966,4.813,4.431,4.431,0,0,1-2.512,3.211,3.726,3.726,0,0,1-3.452.083l-.1-.048,2.664,5.2-.866.444-.865.442Zm9.114,6.776a2.63,2.63,0,0,0,1.533-2.077,5.94,5.94,0,0,0-.827-3.346,5.5,5.5,0,0,0-2.139-2.514,2.687,2.687,0,0,0-2.551.135,2.573,2.573,0,0,0-1.554,2.12,7.217,7.217,0,0,0,1.04,3.653,4.472,4.472,0,0,0,2.011,2.173A2.741,2.741,0,0,0,3694.427,528.621Z" transform="translate(-3646.07 -508.603)" fill="#eb674d"/>
          <path id="패스_78" data-name="패스 78" d="M3691.156,515.341l.917-.326.914-.326,5.346,14.949-.915.328-.916.326Z" transform="translate(-3641.144 -511.87)" fill="#eb674d"/>
          <path id="패스_79" data-name="패스 79" d="M3700.166,527.829a3.834,3.834,0,0,1-2.822-.319,3.143,3.143,0,0,1-1.487-2.186,3.291,3.291,0,0,1,.391-2.614,4.587,4.587,0,0,1,2.422-1.7l2.516-.887a3.9,3.9,0,0,0,.579-.236.966.966,0,0,0,.487-.5,1.249,1.249,0,0,0,.048-.761l-.022-.094a1.7,1.7,0,0,0-.992-1.272,3.216,3.216,0,0,0-2.022-.1,2.867,2.867,0,0,0-1.714.94,2.452,2.452,0,0,0-.448,1.792l-1.751.38a3.815,3.815,0,0,1,.706-3.076,5.4,5.4,0,0,1,3.154-1.659,4.911,4.911,0,0,1,3.329.216,3.255,3.255,0,0,1,1.639,2.369l1.342,6.208a.642.642,0,0,0,.272.422.654.654,0,0,0,.509.072,2.142,2.142,0,0,0,.242-.076,3.263,3.263,0,0,0,.341-.14l.3,1.373a3.789,3.789,0,0,1-.545.295,2.556,2.556,0,0,1-.5.173,1.947,1.947,0,0,1-1.69-.253,2.5,2.5,0,0,1-.693-1.01,4.412,4.412,0,0,1-.376.612A5.155,5.155,0,0,1,3700.166,527.829Zm2.9-5.633-.265-1.224a4.094,4.094,0,0,1-1.1.6l-1.687.63a4.8,4.8,0,0,0-1.867,1.071,1.447,1.447,0,0,0-.37,1.357,2.018,2.018,0,0,0,.833,1.351,2.042,2.042,0,0,0,1.578.2,4.082,4.082,0,0,0,2.358-1.36,2.817,2.817,0,0,0,.662-1.491,2.155,2.155,0,0,0-.029-.448A6.531,6.531,0,0,0,3703.069,522.2Z" transform="translate(-3637.655 -511.304)" fill="#eb674d"/>
          <path id="패스_80" data-name="패스 80" d="M3702.343,515.04l.918-.024.929-.026.044,1.707.417-.584a3.926,3.926,0,0,1,7.215,2.312l.213,7.915-.971.026-.973.026-.193-7.255a3.321,3.321,0,0,0-.649-2.181,2.407,2.407,0,0,0-1.924-.623,2.653,2.653,0,0,0-2.194,1.123,4.588,4.588,0,0,0-.743,2.9l.164,6.186-.97.026-.971.028Z" transform="translate(-3631.71 -511.99)" fill="#eb674d"/>
          <path id="패스_81" data-name="패스 81" d="M3713.12,528.268a10.559,10.559,0,0,1-1.456-.007,2.391,2.391,0,0,1-1.728-.756,2.812,2.812,0,0,1-.308-1.978l.835-7.569-1.589-.177.175-1.576,1.589.173.354-3.22,1.932.214-.354,3.22,1.814.2-.173,1.578-1.816-.2-.833,7.569a.719.719,0,0,0,.238.645,1.365,1.365,0,0,0,.8.317l.688.076Z" transform="translate(-3626.202 -513.159)" fill="#eb674d"/>
          <path id="패스_82" data-name="패스 82" d="M3712.738,520.325l2.266.466-.472,2.295-2.264-.465Z" transform="translate(-3623.341 -507.116)" fill="#eb674d"/>
          <path id="패스_83" data-name="패스 83" d="M3718.4,518.122l.933.275.933.275L3717,529.757l-.931-.277-.933-.275Zm1.2-4.149,1.9.56-.623,2.114-1.906-.562Z" transform="translate(-3620.921 -512.473)" fill="#eb674d"/>
          <path id="패스_84" data-name="패스 84" d="M3721.005,530.74a11.046,11.046,0,0,1-1.4-.383,2.39,2.39,0,0,1-1.473-1.176,2.829,2.829,0,0,1,.212-1.993l2.76-7.1-1.488-.579.575-1.478,1.489.577,1.176-3.019,1.81.706-1.174,3.019,1.7.662-.575,1.48-1.7-.662-2.761,7.1a.721.721,0,0,0,.065.684,1.359,1.359,0,0,0,.687.512l.646.251Z" transform="translate(-3618.485 -511.107)" fill="#eb674d"/>
          <path id="패스_85" data-name="패스 85" d="M3732.1,518.389l.8.551.8.551-3.3,4.794a3.79,3.79,0,0,1,3.761.348,4.454,4.454,0,0,1,2.072,3.322,6.315,6.315,0,0,1-1.3,4.225,7.505,7.505,0,0,1-3.78,3.134,4.422,4.422,0,0,1-4.017-.687,3.722,3.722,0,0,1-1.71-3l-.017-.3-.809,1.174-1.5-1.036ZM3728,533.183a2.62,2.62,0,0,0,2.557.363,5.9,5.9,0,0,0,2.549-2.315,5.5,5.5,0,0,0,1.2-3.075,2.69,2.69,0,0,0-1.331-2.181,2.571,2.571,0,0,0-2.6-.363,7.224,7.224,0,0,0-2.723,2.649,4.492,4.492,0,0,0-.958,2.8A2.743,2.743,0,0,0,3728,533.183Z" transform="translate(-3614.215 -508.749)" fill="#eb674d"/>
          <path id="패스_86" data-name="패스 86" d="M3736.275,524.809l.671.627.681.632-1.348,1.447a6.661,6.661,0,0,1,.96-.256,3.28,3.28,0,0,1,2.991.767,1.654,1.654,0,0,1,.338.446l-1.355,1.454-.286-.28a3.121,3.121,0,0,0-2.425-.97,3.863,3.863,0,0,0-2.464,1.384l-4.221,4.527-.711-.664-.71-.662Z" transform="translate(-3609.741 -503.335)" fill="#eb674d"/>
          <path id="패스_87" data-name="패스 87" d="M3732.34,537.091a3.836,3.836,0,0,1-.97-2.669,3.162,3.162,0,0,1,1.3-2.306,3.322,3.322,0,0,1,2.518-.811,4.6,4.6,0,0,1,2.6,1.417l1.912,1.86a4.024,4.024,0,0,0,.47.413.978.978,0,0,0,.667.214,1.243,1.243,0,0,0,.7-.3l.076-.059a1.707,1.707,0,0,0,.7-1.456,3.193,3.193,0,0,0-.812-1.854,2.843,2.843,0,0,0-1.6-1.117,2.444,2.444,0,0,0-1.8.4l-1.119-1.4a3.814,3.814,0,0,1,3.069-.734,5.4,5.4,0,0,1,2.89,2.088,4.918,4.918,0,0,1,1.287,3.076,3.263,3.263,0,0,1-1.4,2.522l-4.962,3.961a.632.632,0,0,0-.256.431.641.641,0,0,0,.16.487,2.3,2.3,0,0,0,.175.186c.081.077.172.159.276.241l-1.1.876a3.837,3.837,0,0,1-.5-.356,2.71,2.71,0,0,1-.382-.374,1.952,1.952,0,0,1-.523-1.626,2.538,2.538,0,0,1,.6-1.069,4.413,4.413,0,0,1-.715-.066A5.142,5.142,0,0,1,3732.34,537.091Zm6.335.1.979-.782a4.192,4.192,0,0,1-1.025-.715l-1.314-1.231a4.763,4.763,0,0,0-1.79-1.2,1.456,1.456,0,0,0-1.381.271,2.015,2.015,0,0,0-.839,1.347,2.045,2.045,0,0,0,.527,1.5,4.076,4.076,0,0,0,2.268,1.508,2.812,2.812,0,0,0,1.627-.072,2.047,2.047,0,0,0,.387-.225A6.7,6.7,0,0,0,3738.675,537.189Z" transform="translate(-3607.238 -500.137)" fill="#eb674d"/>
          <path id="패스_88" data-name="패스 88" d="M3745.066,533.891l.429.811.435.82-1.506.8.708.114a3.927,3.927,0,0,1,1.138,7.491l-6.994,3.71-.455-.859-.456-.859,6.411-3.4a3.322,3.322,0,0,0,1.667-1.552,2.414,2.414,0,0,0-.3-2,2.66,2.66,0,0,0-1.983-1.467,4.593,4.593,0,0,0-2.927.623l-5.465,2.9-.456-.859-.457-.859Z" transform="translate(-3604.293 -495.676)" fill="#eb674d"/>
          <path id="패스_89" data-name="패스 89" d="M3738.372,548.039a4.461,4.461,0,0,1,.559-4.04,7.331,7.331,0,0,1,4.063-2.7,6.353,6.353,0,0,1,4.405.02,4.29,4.29,0,0,1,2.557,2.835,3.883,3.883,0,0,1-.722,3.753l-.161.208,5.725-1.781.288.929.288.929-15.159,4.715-.267-.855-.268-.868,1.5-.468-.413-.131A3.8,3.8,0,0,1,3738.372,548.039Zm10.024-3a2.749,2.749,0,0,0-1.7-1.971,7.348,7.348,0,0,0-6.289,2.02,2.679,2.679,0,0,0-.411,2.564,2.786,2.786,0,0,0,1.692,1.86,4.308,4.308,0,0,0,2.944-.011,6.791,6.791,0,0,0,3.238-1.86A2.6,2.6,0,0,0,3748.4,545.034Z" transform="translate(-3601.534 -489.752)" fill="#eb674d"/>
          <path id="패스_90" data-name="패스 90" d="M3748.413,558.392a1.99,1.99,0,0,0,1.462-.833,2.99,2.99,0,0,0,.468-1.889,3.3,3.3,0,0,0-.479-1.827,1.383,1.383,0,0,0-1.251-.592,1.056,1.056,0,0,0-.914.472,5.7,5.7,0,0,0-.57,1.781l-.407,2.024a5.127,5.127,0,0,1-1.056,2.444,2.7,2.7,0,0,1-1.974.78,3.319,3.319,0,0,1-2.76-1.146,5.154,5.154,0,0,1-1.113-3.309,5.72,5.72,0,0,1,.848-3.67,4.016,4.016,0,0,1,3-1.427l.061,1.867a2.463,2.463,0,0,0-1.753.927,3.7,3.7,0,0,0-.477,2.249,3.324,3.324,0,0,0,.561,1.965,1.689,1.689,0,0,0,1.469.629,1.051,1.051,0,0,0,.9-.472,5.727,5.727,0,0,0,.57-1.8l.411-2.022a4.8,4.8,0,0,1,1.014-2.358,2.628,2.628,0,0,1,1.92-.756,3.168,3.168,0,0,1,2.621,1.076,4.8,4.8,0,0,1,1.06,3.115,4.892,4.892,0,0,1-.879,3.24,3.53,3.53,0,0,1-2.667,1.359Z" transform="translate(-3600.114 -481.08)" fill="#eb674d"/>
          <path id="패스_91" data-name="패스 91" d="M3739.733,561.683a10.853,10.853,0,0,1-.015-1.454,2.389,2.389,0,0,1,.73-1.738,2.833,2.833,0,0,1,1.974-.337l7.58.721.153-1.591,1.58.151-.153,1.593,3.226.306-.182,1.933-3.226-.306-.174,1.817-1.58-.149.171-1.819-7.58-.721a.729.729,0,0,0-.641.247,1.377,1.377,0,0,0-.3.8l-.066.688Z" transform="translate(-3600.208 -475.95)" fill="#eb674d"/>
          <path id="패스_92" data-name="패스 92" d="M3751.057,562.908l-.178.9-.183.911-1.939-.385a6.82,6.82,0,0,1,.725.684,3.29,3.29,0,0,1,.92,2.947,1.732,1.732,0,0,1-.205.522l-1.948-.389.088-.389a3.12,3.12,0,0,0-.45-2.575,3.866,3.866,0,0,0-2.474-1.37l-6.068-1.211.19-.955.19-.951Z" transform="translate(-3600.507 -473.114)" fill="#eb674d"/>
          <path id="패스_93" data-name="패스 93" d="M3740.9,564.991a7.325,7.325,0,0,1,8.32,3,5.339,5.339,0,0,1-2.643,7.322,7.345,7.345,0,0,1-8.319-3,5.332,5.332,0,0,1,2.642-7.318Zm-1.029,6.35a6.208,6.208,0,0,0,6.08,2.2,3.073,3.073,0,0,0,1.657-4.588,6.239,6.239,0,0,0-6.081-2.193,3.079,3.079,0,0,0-1.656,4.586Z" transform="translate(-3601.946 -469.778)" fill="#eb674d"/>
          <path id="패스_94" data-name="패스 94" d="M3736.063,575.273a11.337,11.337,0,0,1-2.12-3.31,3.176,3.176,0,0,1,.481-2.472,2.9,2.9,0,0,1,.573-.756l1.559.9a3.416,3.416,0,0,0-.706.876,1.371,1.371,0,0,0-.081,1.224,7.8,7.8,0,0,0,1.246,1.88l.142.118v0l12.323,2.158-.553.957-.557.966-9.821-2.1h0l6.715,7.487-.529.918-.535.927Z" transform="translate(-3605.136 -466.293)" fill="#eb674d"/>
          <path id="패스_95" data-name="패스 95" d="M3733.5,595.494l-.8.444-.815.448-.791-1.44-.017.17a3.819,3.819,0,0,1-2,3.205,4.465,4.465,0,0,1-3.9.365,6.326,6.326,0,0,1-3.194-3.058,7.513,7.513,0,0,1-1.106-4.783,4.424,4.424,0,0,1,2.415-3.283,3.721,3.721,0,0,1,3.448-.184l.1.044-2.814-5.119.852-.468.85-.47Zm-9.311-6.5a2.617,2.617,0,0,0-1.469,2.12,5.931,5.931,0,0,0,.925,3.32,5.482,5.482,0,0,0,2.212,2.45,2.7,2.7,0,0,0,2.546-.21,2.562,2.562,0,0,0,1.489-2.164,7.23,7.23,0,0,0-1.146-3.622,4.476,4.476,0,0,0-2.076-2.112A2.738,2.738,0,0,0,3724.193,588.993Z" transform="translate(-3616.132 -455.642)" fill="#eb674d"/>
          <path id="패스_96" data-name="패스 96" d="M3725.473,601.275l-.905.354-.9.354-5.781-14.789.905-.352.9-.356Z" transform="translate(-3618.606 -451.324)" fill="#eb674d"/>
          <path id="패스_97" data-name="패스 97" d="M3718.187,587.7a3.829,3.829,0,0,1,2.828.238,3.153,3.153,0,0,1,1.552,2.142,3.312,3.312,0,0,1-.315,2.625,4.617,4.617,0,0,1-2.374,1.766l-2.49.957a3.9,3.9,0,0,0-.569.253.985.985,0,0,0-.474.516,1.254,1.254,0,0,0-.024.763l.024.094a1.71,1.71,0,0,0,1.031,1.242,3.187,3.187,0,0,0,2.022.041,2.844,2.844,0,0,0,1.685-.988,2.44,2.44,0,0,0,.4-1.8l1.74-.43a3.805,3.805,0,0,1-.617,3.095,5.383,5.383,0,0,1-3.1,1.749,4.915,4.915,0,0,1-3.334-.118,3.261,3.261,0,0,1-1.707-2.321l-1.519-6.168a.632.632,0,0,0-.286-.411.649.649,0,0,0-.508-.061,2.273,2.273,0,0,0-.242.083c-.105.041-.216.09-.336.149l-.335-1.362a3.645,3.645,0,0,1,.535-.312,2.518,2.518,0,0,1,.5-.188,1.946,1.946,0,0,1,1.7.2,2.567,2.567,0,0,1,.723.99,4.132,4.132,0,0,1,.357-.623A5.148,5.148,0,0,1,3718.187,587.7Zm-2.741,5.714.3,1.218a4.09,4.09,0,0,1,1.078-.634l1.668-.678a4.775,4.775,0,0,0,1.836-1.126,1.454,1.454,0,0,0,.332-1.366,2.017,2.017,0,0,0-.873-1.327,2.051,2.051,0,0,0-1.582-.149,4.068,4.068,0,0,0-2.318,1.43,2.8,2.8,0,0,0-.618,1.508,2.269,2.269,0,0,0,.043.446A6.549,6.549,0,0,0,3715.447,593.418Z" transform="translate(-3624.217 -450.429)" fill="#eb674d"/>
          <path id="패스_98" data-name="패스 98" d="M3715.448,600.341l-.918.05-.927.052-.1-1.7-.4.6a3.926,3.926,0,0,1-7.279-2.1l-.442-7.9.97-.053.969-.057.408,7.248a3.317,3.317,0,0,0,.711,2.162,2.41,2.41,0,0,0,1.943.566,2.668,2.668,0,0,0,2.16-1.187,4.592,4.592,0,0,0,.658-2.92l-.349-6.181.972-.053.969-.053Z" transform="translate(-3629.144 -449.371)" fill="#eb674d"/>
          <path id="패스_99" data-name="패스 99" d="M3702.238,588.8a10.741,10.741,0,0,1,1.455-.033,2.387,2.387,0,0,1,1.748.7,2.822,2.822,0,0,1,.365,1.969l-.614,7.589,1.594.129-.129,1.583-1.593-.127-.262,3.228-1.937-.157.262-3.228-1.82-.149.127-1.581,1.819.146.614-7.589a.724.724,0,0,0-.256-.638,1.363,1.363,0,0,0-.807-.293l-.687-.055Z" transform="translate(-3632.583 -449.411)" fill="#eb674d"/>
          <path id="패스_100" data-name="패스 100" d="M3701.522,591.087l-2.276-.4.405-2.308,2.276.4Z" transform="translate(-3634.322 -449.727)" fill="#eb674d"/>
          <path id="패스_101" data-name="패스 101" d="M3696.525,603.6l-1.92-.507.558-2.129,1.923.505Zm1.078-4.184-.94-.247-.94-.245,2.942-11.178.938.247.94.249Z" transform="translate(-3638.237 -450.26)" fill="#eb674d"/>
          <path id="패스_102" data-name="패스 102" d="M3695.059,586.584a10.977,10.977,0,0,1,1.414.343,2.389,2.389,0,0,1,1.508,1.13,2.826,2.826,0,0,1-.153,2l-2.547,7.174,1.506.535-.531,1.5-1.506-.534-1.083,3.054-1.833-.651,1.084-3.054-1.72-.61.531-1.495,1.72.61L3696,589.4a.725.725,0,0,0-.085-.682,1.348,1.348,0,0,0-.7-.488l-.65-.232Z" transform="translate(-3641.108 -451.241)" fill="#eb674d"/>
          <path id="패스_103" data-name="패스 103" d="M3687.175,600.126l-.816-.525-.817-.527,3.157-4.892a3.784,3.784,0,0,1-3.77-.236,4.462,4.462,0,0,1-2.171-3.257,6.3,6.3,0,0,1,1.176-4.262,7.5,7.5,0,0,1,3.683-3.246,4.421,4.421,0,0,1,4.035.566,3.733,3.733,0,0,1,1.8,2.949l.026.3.772-1.2,1.533.992Zm3.646-14.91a2.618,2.618,0,0,0-2.566-.286,5.926,5.926,0,0,0-2.481,2.391,5.5,5.5,0,0,0-1.108,3.108,2.691,2.691,0,0,0,1.4,2.14,2.567,2.567,0,0,0,2.612.286,7.214,7.214,0,0,0,2.643-2.73,4.474,4.474,0,0,0,.874-2.829A2.738,2.738,0,0,0,3690.822,585.215Z" transform="translate(-3648.26 -454.328)" fill="#eb674d"/>
          <path id="패스_104" data-name="패스 104" d="M3682.236,590.514l-.689-.606-.7-.612,1.305-1.486a6.769,6.769,0,0,1-.955.284,3.28,3.28,0,0,1-3.012-.68,1.7,1.7,0,0,1-.351-.437l1.315-1.491.291.273a3.126,3.126,0,0,0,2.454.9,3.868,3.868,0,0,0,2.425-1.456l4.085-4.647.732.64.728.643Z" transform="translate(-3652.376 -456.327)" fill="#eb674d"/>
          <path id="패스_105" data-name="패스 105" d="M3686.126,579.956a3.843,3.843,0,0,1,1.045,2.641,3.163,3.163,0,0,1-1.231,2.341,3.308,3.308,0,0,1-2.492.883,4.6,4.6,0,0,1-2.636-1.342l-1.963-1.8a4.387,4.387,0,0,0-.481-.4.993.993,0,0,0-.673-.194,1.25,1.25,0,0,0-.693.319l-.074.063a1.708,1.708,0,0,0-.656,1.473,3.216,3.216,0,0,0,.861,1.832,2.879,2.879,0,0,0,1.635,1.071,2.45,2.45,0,0,0,1.793-.448l1.157,1.37a3.81,3.81,0,0,1-3.046.82,5.368,5.368,0,0,1-2.946-2.005,4.9,4.9,0,0,1-1.375-3.038,3.262,3.262,0,0,1,1.319-2.56l4.85-4.1a.641.641,0,0,0,.245-.44.648.648,0,0,0-.175-.481,2.006,2.006,0,0,0-.179-.181c-.083-.076-.179-.155-.284-.234l1.071-.907a4,4,0,0,1,.518.341,2.748,2.748,0,0,1,.391.363,1.957,1.957,0,0,1,.569,1.611,2.565,2.565,0,0,1-.565,1.088,4.151,4.151,0,0,1,.715.044A5.152,5.152,0,0,1,3686.126,579.956Zm-6.335.083-.958.811a4.139,4.139,0,0,1,1.047.684l1.35,1.193a4.754,4.754,0,0,0,1.823,1.146,1.449,1.449,0,0,0,1.37-.31,2.005,2.005,0,0,0,.8-1.371,2.035,2.035,0,0,0-.57-1.484,4.057,4.057,0,0,0-2.308-1.443,2.816,2.816,0,0,0-1.626.118,2.062,2.062,0,0,0-.381.236C3680.165,579.737,3679.982,579.879,3679.791,580.039Z" transform="translate(-3655.315 -461.319)" fill="#eb674d"/>
          <path id="패스_106" data-name="패스 106" d="M3673.918,583.476l-.453-.8-.459-.807,1.484-.844-.711-.092a3.927,3.927,0,0,1-1.358-7.454l6.881-3.915.481.844.481.846-6.308,3.591a3.305,3.305,0,0,0-1.62,1.6,2.416,2.416,0,0,0,.355,1.991,2.669,2.669,0,0,0,2.026,1.408,4.609,4.609,0,0,0,2.906-.711l5.379-3.06.481.844.479.844Z" transform="translate(-3658.768 -465.591)" fill="#eb674d"/>
          <path id="패스_107" data-name="패스 107" d="M3681.83,568.356a4.465,4.465,0,0,1-.44,4.055,7.346,7.346,0,0,1-3.981,2.82,6.364,6.364,0,0,1-4.406.107,4.283,4.283,0,0,1-2.638-2.757,3.888,3.888,0,0,1,.61-3.773l.155-.214-5.668,1.948-.315-.92-.317-.918,15.016-5.159.291.848.295.857-1.492.512.418.12A3.8,3.8,0,0,1,3681.83,568.356Zm-9.933,3.3a2.742,2.742,0,0,0,1.76,1.919,7.326,7.326,0,0,0,6.227-2.2,2.68,2.68,0,0,0,.337-2.577,2.791,2.791,0,0,0-1.748-1.81,4.312,4.312,0,0,0-2.94.1,6.8,6.8,0,0,0-3.183,1.954A2.6,2.6,0,0,0,3671.9,571.654Z" transform="translate(-3663.345 -470.669)" fill="#eb674d"/>
          <path id="패스_108" data-name="패스 108" d="M3669.157,557.182a2,2,0,0,0-1.44.876,3.02,3.02,0,0,0-.413,1.9,3.331,3.331,0,0,0,.535,1.812,1.383,1.383,0,0,0,1.268.555,1.064,1.064,0,0,0,.9-.5,5.715,5.715,0,0,0,.516-1.8l.35-2.033a5.106,5.106,0,0,1,.984-2.476,2.683,2.683,0,0,1,1.95-.837,3.321,3.321,0,0,1,2.792,1.065,5.141,5.141,0,0,1,1.207,3.274,5.725,5.725,0,0,1-.739,3.694,4.012,4.012,0,0,1-2.951,1.513l-.118-1.864a2.469,2.469,0,0,0,1.727-.981,3.7,3.7,0,0,0,.411-2.26,3.312,3.312,0,0,0-.619-1.948,1.681,1.681,0,0,0-1.484-.584,1.053,1.053,0,0,0-.891.5,5.742,5.742,0,0,0-.514,1.818l-.353,2.035a4.83,4.83,0,0,1-.943,2.385,2.634,2.634,0,0,1-1.9.813,3.183,3.183,0,0,1-2.653-1,4.817,4.817,0,0,1-1.146-3.084,4.9,4.9,0,0,1,.784-3.268,3.532,3.532,0,0,1,2.626-1.432Z" transform="translate(-3662.679 -478.147)" fill="#eb674d"/>
          <path id="패스_109" data-name="패스 109" d="M3679.029,551.647a11.032,11.032,0,0,1,.054,1.453,2.372,2.372,0,0,1-.681,1.757,2.81,2.81,0,0,1-1.963.394l-7.6-.505-.107,1.594-1.583-.105.105-1.594-3.233-.216.129-1.939,3.233.214.122-1.821,1.583.107-.12,1.821,7.6.505a.732.732,0,0,0,.636-.265,1.378,1.378,0,0,0,.28-.811l.048-.689Z" transform="translate(-3664.024 -481.351)" fill="#eb674d"/>
          <path id="패스_110" data-name="패스 110" d="M3675.969,554.6a7.329,7.329,0,0,1-8.662-1.8,5.332,5.332,0,0,1,1.585-7.618,7.348,7.348,0,0,1,8.66,1.8,5.337,5.337,0,0,1-1.583,7.618Zm.124-6.433a6.215,6.215,0,0,0-6.328-1.316,3.071,3.071,0,0,0-.994,4.776,6.246,6.246,0,0,0,6.328,1.316,3.081,3.081,0,0,0,.994-4.776Z" transform="translate(-3662.088 -486.771)" fill="#eb674d"/>
          <path id="패스_111" data-name="패스 111" d="M3667.847,544.5l.319-.863.321-.87,1.854.686a6.811,6.811,0,0,1-.606-.789,3.28,3.28,0,0,1-.448-3.056,1.652,1.652,0,0,1,.282-.483l1.863.689-.149.37a3.127,3.127,0,0,0,.042,2.612,3.873,3.873,0,0,0,2.229,1.74l5.806,2.147-.337.911-.335.912Z" transform="translate(-3660.8 -491.26)" fill="#eb674d"/>
          <path id="패스_112" data-name="패스 112" d="M3682.6,542.94a11.273,11.273,0,0,1,2.214,3.244,3.164,3.164,0,0,1-.4,2.487,3,3,0,0,1-.551.771l-1.587-.853a3.538,3.538,0,0,0,.681-.9,1.373,1.373,0,0,0,.046-1.226,7.83,7.83,0,0,0-1.3-1.841l-.145-.116h0l-12.381-1.794.523-.973.529-.983,9.879,1.814v0l-6.934-7.286.5-.933.509-.942Z" transform="translate(-3659.69 -496.08)" fill="#eb674d"/>
        </g>
      </g>
      <path id="패스_113" data-name="패스 113" d="M3742.678,584.33c-4.68,1.757-5.5,2.575-7.251,7.25a.366.366,0,0,1-.7,0c-1.633-4.675-2.571-5.845-7.132-7.484-.352-.114-.352-.467,0-.581,4.68-1.757,5.5-2.809,7.132-7.251a.367.367,0,0,1,.7,0c1.753,4.676,2.571,5.847,7.251,7.485C3742.911,583.864,3743.025,584.216,3742.678,584.33Z" transform="translate(53.382 52.992)" fill="#fff"/>
      <path id="패스_114" data-name="패스 114" d="M3691.678,532.33c-4.68,1.757-5.5,2.575-7.251,7.25a.366.366,0,0,1-.7,0c-1.633-4.675-2.571-5.845-7.132-7.484-.352-.114-.352-.466,0-.581,4.68-1.757,5.5-2.809,7.132-7.252a.367.367,0,0,1,.7,0c1.753,4.676,2.571,5.847,7.251,7.486C3691.91,531.864,3692.025,532.216,3691.678,532.33Z" transform="translate(10.375 9.142)" fill="#fff"/>
    </g>
    <g id="그룹_49" data-name="그룹 49" transform="translate(1408.511 742.403)">
      <path id="패스_5" data-name="패스 5" d="M1139.175,326.65a71.41,71.41,0,0,1,16.378-3.429,116.484,116.484,0,0,1,16.259-.469,114.153,114.153,0,0,1,16.167,1.772,70.573,70.573,0,0,1,16.046,4.76,70.558,70.558,0,0,1-16.38,3.442,114.582,114.582,0,0,1-16.258.455,116.442,116.442,0,0,1-16.165-1.786A71.467,71.467,0,0,1,1139.175,326.65Z" transform="translate(-1139.175 -293.48)" fill="#fff"/>
      <path id="패스_6" data-name="패스 6" d="M1163.429,303.79a80,80,0,0,1,3.387,17.41,131.622,131.622,0,0,1,.425,17.289,129.22,129.22,0,0,1-1.812,17.2,79.047,79.047,0,0,1-4.8,17.077,79.143,79.143,0,0,1-3.4-17.411,129.207,129.207,0,0,1-.411-17.288,131.4,131.4,0,0,1,1.828-17.2A79.891,79.891,0,0,1,1163.429,303.79Z" transform="translate(-1129.602 -303.79)" fill="#fff"/>
      <path id="패스_7" data-name="패스 7" d="M1150.264,315.375a37.945,37.945,0,0,1,10.646,5.513,56.705,56.705,0,0,1,8.469,7.52,55.716,55.716,0,0,1,6.818,9.041,37.482,37.482,0,0,1,4.621,11.068,37.5,37.5,0,0,1-10.656-5.5,55.725,55.725,0,0,1-8.458-7.531,56.719,56.719,0,0,1-6.809-9.05A37.949,37.949,0,0,1,1150.264,315.375Z" transform="translate(-1133.115 -297.459)" fill="#fff"/>
      <path id="패스_8" data-name="패스 8" d="M1184,315.584a42.04,42.04,0,0,1-6.04,11.131,64.035,64.035,0,0,1-8.048,8.954,62.944,62.944,0,0,1-9.568,7.305,41.547,41.547,0,0,1-11.6,5.106,41.526,41.526,0,0,1,6.031-11.142,62.836,62.836,0,0,1,8.057-8.943,64.04,64.04,0,0,1,9.577-7.3A42.03,42.03,0,0,1,1184,315.584Z" transform="translate(-1133.946 -297.345)" fill="#fff"/>
    </g>
  </g>
</svg>
