<svg xmlns="http://www.w3.org/2000/svg" width="464.049" height="414.562" viewBox="0 0 464.049 414.562">
  <g id="그룹_641" data-name="그룹 641" transform="translate(-86.943 -2639.679)">
    <g id="그룹_426" data-name="그룹 426" transform="translate(407.209 2639.679)">
      <path id="패스_5" data-name="패스 5" d="M1139.175,324.861a39.411,39.411,0,0,1,9.039-1.892,64.293,64.293,0,0,1,8.974-.259,63.006,63.006,0,0,1,8.922.978,38.951,38.951,0,0,1,8.856,2.627,38.94,38.94,0,0,1-9.04,1.9,63.239,63.239,0,0,1-8.973.251,64.26,64.26,0,0,1-8.921-.986A39.443,39.443,0,0,1,1139.175,324.861Z" transform="translate(-1139.175 -306.554)" fill="#3ea548"/>
      <path id="패스_6" data-name="패스 6" d="M1160.411,303.79a44.149,44.149,0,0,1,1.869,9.609,72.638,72.638,0,0,1,.235,9.542,71.323,71.323,0,0,1-1,9.492,43.624,43.624,0,0,1-2.651,9.425,43.676,43.676,0,0,1-1.877-9.609,71.3,71.3,0,0,1-.227-9.541,72.515,72.515,0,0,1,1.009-9.492A44.085,44.085,0,0,1,1160.411,303.79Z" transform="translate(-1141.742 -303.79)" fill="#3ea548"/>
      <path id="패스_7" data-name="패스 7" d="M1150.264,315.375a20.94,20.94,0,0,1,5.875,3.043,31.294,31.294,0,0,1,4.674,4.15,30.741,30.741,0,0,1,3.763,4.989,20.688,20.688,0,0,1,2.55,6.108,20.7,20.7,0,0,1-5.881-3.037,30.763,30.763,0,0,1-4.668-4.156,31.3,31.3,0,0,1-3.758-4.995A20.948,20.948,0,0,1,1150.264,315.375Z" transform="translate(-1140.8 -305.487)" fill="#3ea548"/>
      <path id="패스_8" data-name="패스 8" d="M1168.2,315.584a23.2,23.2,0,0,1-3.334,6.143,35.324,35.324,0,0,1-4.441,4.942,34.737,34.737,0,0,1-5.281,4.032,22.931,22.931,0,0,1-6.4,2.818,22.915,22.915,0,0,1,3.329-6.149,34.679,34.679,0,0,1,4.447-4.936,35.346,35.346,0,0,1,5.286-4.027A23.2,23.2,0,0,1,1168.2,315.584Z" transform="translate(-1140.577 -305.518)" fill="#3ea548"/>
    </g>
    <g id="그룹_427" data-name="그룹 427" transform="translate(67.879 2705)">
      <path id="패스_7-2" data-name="패스 7" d="M1150.264,315.375a48.872,48.872,0,0,1,13.714,7.1,73.04,73.04,0,0,1,10.909,9.688,71.741,71.741,0,0,1,8.783,11.646,48.289,48.289,0,0,1,5.952,14.258,48.308,48.308,0,0,1-13.728-7.088,71.814,71.814,0,0,1-10.9-9.7,73.072,73.072,0,0,1-8.771-11.658A48.9,48.9,0,0,1,1150.264,315.375Z" transform="translate(-1128.173 -292.296)" fill="#3ea548"/>
      <path id="패스_8-2" data-name="패스 8" d="M1194.156,315.584a54.154,54.154,0,0,1-7.781,14.339,82.458,82.458,0,0,1-10.367,11.534,81.077,81.077,0,0,1-12.325,9.411,53.527,53.527,0,0,1-14.937,6.578,53.486,53.486,0,0,1,7.769-14.353,80.96,80.96,0,0,1,10.379-11.521,82.512,82.512,0,0,1,12.337-9.4A54.141,54.141,0,0,1,1194.156,315.584Z" transform="translate(-1129.681 -292.089)" fill="#3ea548"/>
    </g>
    <circle id="타원_72" data-name="타원 72" cx="6" cy="6" r="6" transform="translate(450 2690)" fill="#3ea548"/>
    <g id="그룹_436" data-name="그룹 436" transform="translate(-939.356 -3165.223)">
      <g id="그룹_436-2" data-name="그룹 436" transform="translate(1081.988 6164.142)">
        <ellipse id="타원_76" data-name="타원 76" cx="136.288" cy="25.93" rx="136.288" ry="25.93" transform="translate(1.731 1.73)"/>
        <path id="패스_903" data-name="패스 903" d="M1220.007,6374.253c-36.509,0-70.849-2.708-96.694-7.625-18.852-3.586-41.325-9.974-41.325-20.035s22.473-16.45,41.325-20.036c25.845-4.917,60.185-7.625,96.694-7.625s70.849,2.708,96.693,7.625c18.853,3.586,41.325,9.974,41.325,20.036s-22.472,16.448-41.325,20.035C1290.855,6371.546,1256.516,6374.253,1220.007,6374.253Zm0-51.86c-79.3,0-134.558,12.754-134.558,24.2s55.261,24.2,134.558,24.2,134.557-12.754,134.557-24.2S1299.3,6322.393,1220.007,6322.393Z" transform="translate(-1081.988 -6318.932)"/>
      </g>
      <g id="그룹_533" data-name="그룹 533" transform="translate(1097.937 5816.063)">
        <g id="그룹_520" data-name="그룹 520">
          <g id="그룹_438" data-name="그룹 438" transform="translate(263.837 153.069)">
            <g id="그룹_437" data-name="그룹 437">
              <path id="패스_904" data-name="패스 904" d="M1509.935,6068.213a58,58,0,0,1-16.257-2.225,7.138,7.138,0,0,1,4.3-13.613c1.057.325,24.012,7.119,38.683-10.162a7.138,7.138,0,0,1,10.882,9.24C1535.968,6065.088,1521.117,6068.213,1509.935,6068.213Z" transform="translate(-1486.966 -6037.97)" fill="#9abde8"/>
              <path id="패스_905" data-name="패스 905" d="M1509.165,6069.177a59.346,59.346,0,0,1-16.782-2.307,8.868,8.868,0,0,1,5.344-16.913c.919.281,22.891,6.806,36.844-9.631a8.869,8.869,0,1,1,13.521,11.48C1535.9,6066.164,1520.2,6069.177,1509.165,6069.177Zm-14.089-16.165a5.407,5.407,0,0,0-1.645,10.56,56.568,56.568,0,0,0,15.733,2.144c10.3,0,24.958-2.8,36.289-16.15a5.408,5.408,0,0,0-8.245-7c-15.413,18.156-39.492,11.009-40.51,10.7A5.4,5.4,0,0,0,1495.076,6053.012Z" transform="translate(-1486.196 -6037.202)"/>
            </g>
          </g>
          <g id="그룹_448" data-name="그룹 448" transform="translate(309.485 99.952)">
            <g id="그룹_439" data-name="그룹 439" transform="translate(6.861 40.242)">
              <circle id="타원_77" data-name="타원 77" cx="7.939" cy="7.939" r="7.939" fill="#fff"/>
            </g>
            <g id="그룹_447" data-name="그룹 447">
              <g id="그룹_440" data-name="그룹 440" transform="translate(1.895 44.231)">
                <path id="패스_906" data-name="패스 906" d="M1560.395,6026.867s-7.739,9.37,1.474,19.581c10.589,11.738,23.794,1.265,23.794,1.265" transform="translate(-1555.642 -6025.135)" fill="#fff"/>
                <path id="패스_907" data-name="패스 907" d="M1572.7,6052.958c-4.131,0-8.7-1.482-12.882-6.121-10.1-11.193-1.611-21.738-1.524-21.844a1.73,1.73,0,0,1,2.672,2.2c-.282.349-6.635,8.4,1.421,17.326,9.355,10.371,20.947,1.45,21.436,1.065a1.731,1.731,0,0,1,2.149,2.713C1585.884,6048.371,1579.97,6052.958,1572.7,6052.958Z" transform="translate(-1554.881 -6024.365)"/>
              </g>
              <g id="그룹_441" data-name="그룹 441" transform="translate(26.23 36.908)">
                <path id="패스_908" data-name="패스 908" d="M1590.037,6013.785" transform="translate(-1590.037 -6013.785)" fill="#fff"/>
              </g>
              <g id="그룹_442" data-name="그룹 442">
                <path id="패스_909" data-name="패스 909" d="M1579.142,5999.037s-14.032.24-12.476,16.423,17.846,15.951,23.057,13.9a32.553,32.553,0,0,0,12.634-9.588c1.661-2.311,5.843-1.782,5.843-1.782s14.056.631,18.793.315,8.1-3.693,6.849-8.81a8.956,8.956,0,0,0-5.744-6.035s2.117-1.562,1.328-7.088-8.516-7.14-10.487-7.125c0,0,1.579-8.844-9.317-8.923-8.212-.06-14.529,1.342-22.9,4.659s-11.845,1.263-12.318-1.737-.474-9.791-.948-12.95-4.422-9.16-12.792-6.79-3.794,7.766-3.119,9.341c1.518,3.543,3.622,11.7,1.885,16.283-.789,1.579-4.62,4.572-4.778,9.8s1.432,8.319,5.538,11.161" transform="translate(-1552.912 -5961.234)" fill="#fff"/>
                <path id="패스_910" data-name="패스 910" d="M1582.756,6031.308a20.65,20.65,0,0,1-10.743-2.827c-4.539-2.782-7.249-7.493-7.839-13.624-.547-5.687.648-10.217,3.549-13.467a15.743,15.743,0,0,1,10.62-4.854h.031a1.73,1.73,0,0,1,.035,3.46h0a12.4,12.4,0,0,0-8.126,3.724c-2.216,2.5-3.111,6.134-2.663,10.8.489,5.08,2.576,8.782,6.2,11.005a18.479,18.479,0,0,0,14.5,1.448,31.083,31.083,0,0,0,11.864-8.989c2.116-2.943,6.581-2.591,7.388-2.5,1.023.044,14.107.606,18.537.315a6.143,6.143,0,0,0,4.635-2.214,5.236,5.236,0,0,0,.649-4.459,7.159,7.159,0,0,0-4.573-4.792,1.76,1.76,0,0,1-1.287-1.412,1.593,1.593,0,0,1,.727-1.608c.2-.227,1.233-1.632.685-5.478-.6-4.193-7.085-5.637-8.739-5.637h-.035a1.732,1.732,0,0,1-1.7-2.036,6.374,6.374,0,0,0-1.2-4.646c-1.234-1.466-3.4-2.22-6.426-2.242-7.72-.056-13.759,1.174-22.25,4.537-5.284,2.093-9.305,2.39-11.95.879a5.44,5.44,0,0,1-2.715-3.956c-.253-1.6-.37-4.049-.494-6.641-.114-2.378-.232-4.838-.455-6.322a7.429,7.429,0,0,0-3.246-4.681c-1.991-1.286-4.469-1.522-7.364-.7-1.987.563-3.228,1.326-3.587,2.209-.462,1.131.457,2.735,1.064,3.8a10.106,10.106,0,0,1,.523.99c1.181,2.755,4.067,11.9,1.913,17.577a1.71,1.71,0,0,1-.07.16,10.793,10.793,0,0,1-1.3,1.829c-1.349,1.668-3.2,3.951-3.3,7.253-.138,4.6,1.116,7.14,4.793,9.686a1.73,1.73,0,1,1-1.97,2.846c-4.636-3.209-6.457-6.87-6.283-12.635.135-4.468,2.595-7.509,4.064-9.326a12.446,12.446,0,0,0,.862-1.136c1.447-4.02-.51-11.659-1.894-14.889-.05-.117-.208-.392-.346-.633-.826-1.444-2.364-4.131-1.265-6.825.788-1.931,2.756-3.354,5.85-4.23,4.851-1.375,8.214-.147,10.183,1.124a10.815,10.815,0,0,1,4.792,7.076c.248,1.657.37,4.205.489,6.668.114,2.387.233,4.853.456,6.268a1.963,1.963,0,0,0,1.011,1.489c.765.436,3.168,1.2,8.96-1.091,8.832-3.5,15.445-4.851,23.55-4.78,4.112.03,7.168,1.212,9.081,3.513a9.268,9.268,0,0,1,2.022,5.584c3.608.618,9.62,2.971,10.4,8.435a12.525,12.525,0,0,1-.505,6.609,10.135,10.135,0,0,1,4.89,6.349,8.575,8.575,0,0,1-1.219,7.325,9.436,9.436,0,0,1-7.2,3.622c-4.777.321-18.407-.287-18.985-.313-.046,0-.093-.006-.139-.011-.819-.1-3.367-.114-4.222,1.076a34.016,34.016,0,0,1-13.4,10.188A19.606,19.606,0,0,1,1582.756,6031.308ZM1626.3,6001.3Z" transform="translate(-1552.143 -5960.464)"/>
              </g>
              <g id="그룹_443" data-name="그룹 443" transform="translate(35.003 26.675)">
                <path id="패스_911" data-name="패스 911" d="M1605.209,6001.5s10,4.093,11.074,12.411a59.97,59.97,0,0,1,.218,8.277" transform="translate(-1603.48 -5999.772)" fill="#fff"/>
                <path id="패스_912" data-name="패스 912" d="M1615.733,6023.152l-.078,0a1.732,1.732,0,0,1-1.653-1.806,58.5,58.5,0,0,0-.2-7.979c-.929-7.2-9.924-10.994-10.015-11.032a1.73,1.73,0,0,1,1.314-3.2c.446.183,10.946,4.582,12.134,13.792a61.184,61.184,0,0,1,.231,8.574A1.732,1.732,0,0,1,1615.733,6023.152Z" transform="translate(-1602.711 -5999.002)"/>
              </g>
              <g id="그룹_444" data-name="그룹 444" transform="translate(41.66 26.157)">
                <path id="패스_913" data-name="패스 913" d="M1637.465,6000.88s-15.056-1.308-22.636,4.794" transform="translate(-1613.099 -5999.026)" fill="#fff"/>
                <path id="패스_914" data-name="패스 914" d="M1614.061,6006.632a1.73,1.73,0,0,1-1.086-3.078c8.03-6.465,23.228-5.226,23.871-5.17a1.73,1.73,0,0,1-.3,3.448c-.144-.01-14.458-1.17-21.4,4.418A1.717,1.717,0,0,1,1614.061,6006.632Z" transform="translate(-1612.329 -5998.253)"/>
              </g>
              <g id="그룹_445" data-name="그룹 445" transform="translate(46.346 37.988)">
                <path id="패스_915" data-name="패스 915" d="M1648.709,6020.355s-10.024-5.292-27.109-.474" transform="translate(-1619.869 -6016.119)" fill="#fff"/>
                <path id="패스_916" data-name="패스 916" d="M1647.938,6021.313a1.73,1.73,0,0,1-.8-.2c-.1-.054-9.726-4.885-25.837-.341a1.731,1.731,0,1,1-.939-3.332c17.547-4.948,27.953.38,28.387.609a1.731,1.731,0,0,1-.809,3.261Z" transform="translate(-1619.099 -6015.345)"/>
              </g>
              <g id="그룹_446" data-name="그룹 446" transform="translate(3.716 24.33)">
                <path id="패스_917" data-name="패스 917" d="M1560.012,6001.429s2.336-3,4.231-3.313" transform="translate(-1558.281 -5996.384)" fill="#fff"/>
                <path id="패스_918" data-name="패스 918" d="M1559.241,6002.388a1.73,1.73,0,0,1-1.364-2.793c.459-.589,2.874-3.55,5.311-3.956a1.731,1.731,0,0,1,.569,3.415c-.719.119-2.237,1.5-3.152,2.671A1.728,1.728,0,0,1,1559.241,6002.388Z" transform="translate(-1557.512 -5995.614)"/>
              </g>
            </g>
          </g>
          <g id="그룹_461" data-name="그룹 461" transform="translate(0 244.07)">
            <g id="그룹_449" data-name="그룹 449" transform="translate(0 29.82)">
              <path id="패스_919" data-name="패스 919" d="M1141.1,6256.843h0s-8.105-8.018-5.112-21.261c0-.018,0-.034,0-.052a12.455,12.455,0,0,0,.687-2.009c1.755-7.286,1.9-16.857-6.068-18.775s-19.847,1.8-22.78,11.828a17.781,17.781,0,0,0-.281,4.218l6.626,37.19s1.858,17.919,25.268,18.2c11.236.133,19.937-6.014,21.692-13.3C1162.673,6266.492,1149.843,6260.238,1141.1,6256.843Z" transform="translate(-1105.8 -6212.524)"/>
              <path id="패스_920" data-name="패스 920" d="M1139.029,6287.14l-.376,0c-23.783-.282-26.756-18.2-26.956-19.656l-6.64-37.271,0-.113a18.672,18.672,0,0,1,.348-4.781c3.061-10.465,15.553-15.262,24.847-13.025,4.236,1.021,6.992,4.03,7.969,8.7.885,4.236.15,8.95-.624,12.159a13.812,13.812,0,0,1-.7,2.1,21.993,21.993,0,0,0,4.435,19.349c10.527,4.125,22.5,10.538,20.721,17.909C1160,6281.029,1150.349,6287.14,1139.029,6287.14Zm-30.524-57.309,6.622,37.2c.074.663,2.062,16.39,23.568,16.646,11.087.16,18.567-6.071,19.988-11.974.9-3.752-6.37-9.123-18.981-14.018l-3.643-1.414,1.547-.772a25.517,25.517,0,0,1-4.113-20.906v-.021l.14-.5a10.633,10.633,0,0,0,.594-1.729,25.455,25.455,0,0,0,.6-10.642c-.7-3.365-2.466-5.342-5.39-6.046-6.723-1.622-17.966,1.236-20.715,10.631A15.032,15.032,0,0,0,1108.5,6229.831Zm26.717,4.928h0Z" transform="translate(-1105.03 -6211.752)"/>
            </g>
            <g id="그룹_450" data-name="그룹 450" transform="translate(7.625 30.248)">
              <path id="패스_921" data-name="패스 921" d="M1152.1,6255.316h0s-8.106-8.018-5.112-21.261c0-.018,0-.034,0-.052a12.478,12.478,0,0,0,.687-2.009c1.755-7.285-3.28-14.748-11.247-16.666s-15.847,2.433-17.6,9.719a22.711,22.711,0,0,0-.28,4.216l6.626,37.192s2.886,15.479,17.083,16.973c11.175,1.176,20.814-4.079,22.569-11.365C1166.367,6265.675,1160.843,6258.71,1152.1,6255.316Z" transform="translate(-1116.816 -6213.142)" fill="#2eaa00"/>
              <path id="패스_922" data-name="패스 922" d="M1144.543,6284.548a30.856,30.856,0,0,1-3.234-.171c-15.3-1.61-18.571-18.209-18.6-18.376l-6.651-37.338,0-.133a23.424,23.424,0,0,1,.327-4.659,14.637,14.637,0,0,1,7.318-9.421,17.183,17.183,0,0,1,12.372-1.575c8.88,2.138,14.5,10.552,12.524,18.753a13.887,13.887,0,0,1-.7,2.1,21.993,21.993,0,0,0,4.438,19.353c9.474,3.82,15.1,11.6,13.412,18.616C1163.92,6279.262,1154.922,6284.548,1144.543,6284.548Zm-25.034-56.225,6.6,37.056c.107.564,2.847,14.218,15.56,15.556,9.993,1.052,19.1-3.361,20.705-10.049,1.3-5.4-3.608-11.6-11.674-14.728l-3.642-1.414,1.546-.772a25.523,25.523,0,0,1-4.1-20.942l.057-.31.075-.173a10.765,10.765,0,0,0,.594-1.73c1.528-6.346-2.945-12.887-9.969-14.578a13.736,13.736,0,0,0-9.889,1.24,11.214,11.214,0,0,0-5.625,7.2A19.557,19.557,0,0,0,1119.509,6228.324Z" transform="translate(-1116.046 -6212.37)"/>
            </g>
            <g id="그룹_451" data-name="그룹 451" transform="translate(70.331 69.714)">
              <path id="패스_923" data-name="패스 923" d="M1252.01,6306.186h0s-10.676-4-13.36-17.312c0-.018-.013-.032-.017-.049a12.464,12.464,0,0,0-.194-2.114c-1.378-7.367-5.16-16.16-13.214-14.653s-17.377,9.757-15.952,20.109a17.79,17.79,0,0,0,1.468,3.962l21.255,31.23s9.023,15.593,30.5,6.273c10.308-4.473,15.734-13.641,14.356-21.006C1275.645,6306.167,1261.378,6305.707,1252.01,6306.186Z" transform="translate(-1207.403 -6270.156)"/>
              <path id="패스_924" data-name="패스 924" d="M1248.906,6337.548a22.841,22.841,0,0,1-19.126-10.013l-21.3-31.3-.05-.1a18.674,18.674,0,0,1-1.638-4.5c-1.486-10.8,7.95-20.288,17.348-22.046,4.279-.8,8.027.817,10.831,4.684,2.54,3.5,3.8,8.106,4.4,11.352a13.96,13.96,0,0,1,.219,2.2c2.238,11.02,10.251,15.092,11.955,15.843,11.3-.538,24.843.415,26.238,7.869,1.628,8.706-4.835,18.342-15.369,22.913A33.932,33.932,0,0,1,1248.906,6337.548Zm-37.435-43.066,21.256,31.24c.339.575,8.583,14.114,28.313,5.553,10.163-4.411,14.461-13.133,13.345-19.1-.711-3.793-9.545-5.722-23.055-5.029l-4.494.229,1.484-1.484a25.541,25.541,0,0,1-12.1-17.282h0l-.082-.351,0-.176a10.736,10.736,0,0,0-.164-1.822,25.464,25.464,0,0,0-3.805-9.958c-2.018-2.782-4.433-3.869-7.391-3.313-6.8,1.271-15.891,8.475-14.557,18.174A15.106,15.106,0,0,0,1211.471,6294.482Zm26.4-6.429h0Z" transform="translate(-1206.637 -6269.386)"/>
            </g>
            <g id="그룹_452" data-name="그룹 452" transform="translate(76.498 68.969)">
              <path id="패스_925" data-name="패스 925" d="M1261,6301.176h0s-10.676-4-13.36-17.312c0-.018-.012-.032-.017-.048a12.46,12.46,0,0,0-.194-2.114c-1.378-7.367-9.025-12.117-17.079-10.611s-13.466,8.7-12.088,16.067a22.687,22.687,0,0,0,1.468,3.962l21.256,31.231s8.963,12.944,22.53,8.5c10.679-3.5,17.327-12.234,15.949-19.6C1278.255,6304.794,1270.366,6300.7,1261,6301.176Z" transform="translate(-1216.316 -6269.08)" fill="#2eaa00"/>
              <path id="패스_926" data-name="패스 926" d="M1257.14,6332.735c-11.155,0-18.265-10.052-18.349-10.171l-21.338-31.353-.057-.121a23.342,23.342,0,0,1-1.607-4.386c-1.552-8.292,4.491-16.4,13.471-18.086s17.547,3.7,19.1,11.993a13.905,13.905,0,0,1,.221,2.208c2.241,11.026,10.264,15.1,11.959,15.841,10.211-.4,18.528,4.408,19.855,11.5,1.579,8.435-5.937,17.908-17.109,21.565A19.677,19.677,0,0,1,1257.14,6332.735Zm-36.673-43.246,21.177,31.117c.329.47,8.411,11.811,20.562,7.832,9.556-3.128,16.05-10.876,14.785-17.639-1.022-5.462-8.031-9.109-16.676-8.664l-4.494.229,1.485-1.485a25.534,25.534,0,0,1-12.1-17.292l-.01-.024-.072-.494a10.672,10.672,0,0,0-.165-1.822c-1.2-6.418-7.957-10.562-15.06-9.229s-11.906,7.632-10.705,14.048A19.571,19.571,0,0,0,1220.468,6289.489Z" transform="translate(-1215.547 -6268.31)"/>
            </g>
            <g id="그룹_453" data-name="그룹 453" transform="translate(85.08 68.309)">
              <path id="패스_927" data-name="패스 927" d="M1253.809,6283.833c.549,4.256-.826,8.24-4.005,10.358-4.934,3.287-12.344.833-16.552-5.481s-3.618-14.1,1.316-17.385c3.145-2.1,7.3-1.858,10.983.225" transform="translate(-1228.715 -6268.129)" fill="#fff"/>
              <path id="패스_928" data-name="패스 928" d="M1244.089,6296.6c-4.708,0-9.776-2.793-13.045-7.7a17.521,17.521,0,0,1-3.056-10.919,11.337,11.337,0,0,1,4.852-8.867c3.594-2.4,8.378-2.336,12.792.158a1.731,1.731,0,0,1-1.7,3.014c-3.256-1.84-6.684-1.949-9.172-.292a7.96,7.96,0,0,0-3.32,6.249,14.057,14.057,0,0,0,2.485,8.737c3.672,5.511,10.019,7.751,14.152,5,2.52-1.679,3.734-4.93,3.248-8.7a1.73,1.73,0,1,1,3.433-.442c.658,5.1-1.122,9.594-4.762,12.019A10.552,10.552,0,0,1,1244.089,6296.6Z" transform="translate(-1227.945 -6267.357)"/>
            </g>
            <g id="그룹_454" data-name="그룹 454" transform="translate(17.109 31.231)">
              <path id="패스_929" data-name="패스 929" d="M1153.245,6235.692c-1.239,4.107-4.123,7.182-7.89,7.814-5.846.982-11.605-4.287-12.863-11.77s2.464-14.346,8.311-15.328c3.727-.626,7.418,1.288,9.93,4.7" transform="translate(-1130.517 -6214.561)" fill="#fff"/>
              <path id="패스_930" data-name="패스 930" d="M1143.192,6244.584c-6.167,0-11.879-5.616-13.176-13.33a17.524,17.524,0,0,1,1.677-11.213,11.343,11.343,0,0,1,8.053-6.108c4.265-.712,8.6,1.295,11.611,5.377a1.731,1.731,0,0,1-2.787,2.053c-2.219-3.011-5.307-4.515-8.25-4.016a7.957,7.957,0,0,0-5.584,4.343,14.055,14.055,0,0,0-1.306,8.99c1.1,6.529,5.976,11.172,10.87,10.351,2.985-.5,5.423-2.973,6.519-6.607a1.731,1.731,0,0,1,3.314,1c-1.485,4.923-4.947,8.3-9.26,9.022A10.161,10.161,0,0,1,1143.192,6244.584Z" transform="translate(-1129.747 -6213.791)"/>
            </g>
            <g id="그룹_455" data-name="그룹 455" transform="translate(27.572 68.885)">
              <path id="패스_931" data-name="패스 931" d="M1160.2,6273.458a1.726,1.726,0,0,1-1.093-.389c-.192-.149-3.91-2.92-11.982-.331a1.731,1.731,0,1,1-1.057-3.3c10.07-3.229,15.034.784,15.241.958a1.73,1.73,0,0,1-1.11,3.059Z" transform="translate(-1144.863 -6268.189)"/>
            </g>
            <g id="그룹_457" data-name="그룹 457" transform="translate(24.511)">
              <g id="그룹_456" data-name="그룹 456">
                <path id="패스_932" data-name="패스 932" d="M1226.969,6171.171c-.469.311-14.607,47.692-75.43,36.514a7.128,7.128,0,0,0-8.414,5.229c-.879,3.767,1.391,7.925,5.229,8.414,72.61,9.261,95.29-46.312,93.659-48.262" transform="translate(-1141.21 -6169.44)" fill="#fff"/>
                <path id="패스_933" data-name="패스 933" d="M1163.526,6223.335a127.634,127.634,0,0,1-16.158-1.061,7.622,7.622,0,0,1-5.324-3.3,9.185,9.185,0,0,1-1.37-7.221,8.9,8.9,0,0,1,10.412-6.538c49.918,9.177,67.831-21.261,73.215-34.772.327-.822.462-1.161.946-1.482a1.731,1.731,0,0,1,2.445,2.324c-.042.1-.1.246-.177.438a61.981,61.981,0,0,1-17.667,24.681c-15.048,12.583-35.028,16.692-59.388,12.215a5.38,5.38,0,0,0-6.415,3.919,5.67,5.67,0,0,0,.841,4.459,4.208,4.208,0,0,0,2.921,1.846c36.885,4.7,59.981-7.794,72.857-19.11,13.455-11.825,18.7-24.709,18.926-26.936a1.731,1.731,0,0,1,2.984-1.61c1.406,1.679-.9,6.789-3.084,10.78a78.214,78.214,0,0,1-28.282,28.94C1197.441,6219.175,1181.453,6223.335,1163.526,6223.335Zm76.39-49.932,0,0Zm0,0h0Zm-12.753-1.557h0Zm0,0h0Z" transform="translate(-1140.442 -6168.67)"/>
              </g>
            </g>
            <g id="그룹_458" data-name="그룹 458" transform="translate(106.774 99.186)">
              <path id="패스_934" data-name="패스 934" d="M1261.016,6320.556a1.73,1.73,0,0,1-1.156-3.018c7.867-7.066,14.042-5.432,14.3-5.36a1.731,1.731,0,0,1-.918,3.337c-.234-.056-4.759-1.07-11.07,4.6A1.721,1.721,0,0,1,1261.016,6320.556Z" transform="translate(-1259.286 -6311.965)"/>
            </g>
            <g id="그룹_460" data-name="그룹 460" transform="translate(92.446 2.854)">
              <g id="그룹_459" data-name="그룹 459">
                <path id="패스_935" data-name="패스 935" d="M1300.653,6179.715c-.3.475,6.173,49.5-53.9,64.165a7.129,7.129,0,0,0-5.54,8.213c.738,3.8,4.51,6.663,8.213,5.54,70.049-21.241,68.021-81.23,65.735-82.341" transform="translate(-1239.355 -6173.563)" fill="#fff"/>
                <path id="패스_936" data-name="패스 936" d="M1247,6258.842a7.835,7.835,0,0,1-4.051-1.157,9.185,9.185,0,0,1-4.2-6.029,8.9,8.9,0,0,1,6.828-10.224c49.3-12.039,53.2-47.139,52.594-61.672a2.59,2.59,0,0,1,.257-1.739,1.731,1.731,0,0,1,3.182,1.121c0,.107.01.266.019.473a62.01,62.01,0,0,1-6.031,29.75c-8.588,17.634-25.142,29.554-49.2,35.429a5.382,5.382,0,0,0-4.252,6.2,5.667,5.667,0,0,0,2.592,3.725,4.2,4.2,0,0,0,3.42.489c35.589-10.792,51.55-31.642,58.672-47.231,7.444-16.293,6.957-30.195,6.257-32.32a1.731,1.731,0,0,1,2.065-2.69c1.97.959,1.955,6.565,1.594,11.1a78.229,78.229,0,0,1-13.975,37.975c-11.857,17.015-29.894,29.289-53.609,36.48A7.431,7.431,0,0,1,1247,6258.842Zm54.351-78.971h0Zm0,0h0Z" transform="translate(-1238.587 -6172.793)"/>
              </g>
            </g>
          </g>
          <g id="그룹_477" data-name="그룹 477" transform="translate(5.068)">
            <g id="그룹_462" data-name="그룹 462" transform="translate(1.734 1.734)">
              <circle id="타원_78" data-name="타원 78" cx="139.262" cy="139.262" r="139.262" fill="#9abde8"/>
            </g>
            <g id="그룹_469" data-name="그룹 469" transform="translate(0 0.003)" opacity="0.48">
              <g id="그룹_463" data-name="그룹 463" transform="translate(60.091)">
                <path id="패스_937" data-name="패스 937" d="M1280.071,6098.052c-21.8,0-42.214-14.8-57.49-41.664-15.1-26.56-23.416-61.834-23.416-99.328s8.316-72.769,23.416-99.328c15.275-26.867,35.692-41.664,57.49-41.664v3.46c-42.7,0-77.444,61.7-77.444,137.532s34.741,137.531,77.444,137.531Z" transform="translate(-1199.165 -5816.068)" fill="#4485c6"/>
              </g>
              <g id="그룹_464" data-name="그룹 464" transform="translate(140.736)">
                <path id="패스_938" data-name="패스 938" d="M1315.934,6098.052v-3.461a.558.558,0,0,0-.26.058c.412-.261,4.119-3.654,7.249-41.837,2.127-25.939,3.3-59.945,3.3-95.751s-1.171-69.813-3.3-95.752c-3.129-38.183-6.836-41.577-7.249-41.837a.545.545,0,0,0,.26.058v-3.46c2.74,0,4.587,3.572,6.373,12.328a281.154,281.154,0,0,1,3.848,30.042c2.275,26.352,3.527,61.377,3.527,98.623s-1.252,72.271-3.527,98.622a281.148,281.148,0,0,1-3.848,30.042C1320.52,6094.48,1318.674,6098.052,1315.934,6098.052Z" transform="translate(-1315.674 -5816.068)" fill="#4485c6"/>
              </g>
              <g id="그룹_465" data-name="그룹 465" transform="translate(140.996)">
                <path id="패스_939" data-name="패스 939" d="M1316.049,6098.052v-3.461c50.5,0,91.581-61.7,91.581-137.531s-41.082-137.532-91.581-137.532v-3.46c25.52,0,49.464,14.758,67.419,41.557,17.813,26.585,27.623,61.9,27.623,99.436s-9.81,72.851-27.623,99.436C1365.513,6083.293,1341.569,6098.052,1316.049,6098.052Z" transform="translate(-1316.049 -5816.068)" fill="#4485c6"/>
              </g>
              <g id="그룹_466" data-name="그룹 466" transform="translate(0.003 140.619)">
                <path id="패스_940" data-name="패스 940" d="M1265.322,6033.341c-37.428,0-75.55-1.285-104.593-3.525-14.532-1.12-26.015-2.413-34.127-3.841-11.823-2.081-14.246-4.056-14.246-6.382h3.461a.685.685,0,0,0-.1-.374c.312.414,4.317,4.143,48.156,7.362,28.53,2.1,65.505,3.3,101.447,3.3,35.76,0,66.965-1.146,90.244-3.314,33.082-3.081,35.26-6.937,35.336-7.1a.36.36,0,0,0-.021.127h3.461c0,2.689-3.108,4.591-10.4,6.359a200.628,200.628,0,0,1-25.969,3.86C1334.744,6032.089,1301.838,6033.341,1265.322,6033.341Z" transform="translate(-1112.356 -6019.22)" fill="#4485c6"/>
              </g>
              <g id="그룹_467" data-name="그룹 467" transform="translate(0 140.989)">
                <path id="패스_941" data-name="패스 941" d="M1258.189,6110.578c-37.261,0-74.365-9.6-101.8-26.348-28.4-17.336-44.04-40.233-44.04-64.475h3.461c0,47.355,65.2,87.363,142.376,87.363,74.4,0,132.686-38.375,132.686-87.363h3.461c0,24.592-13.9,47.475-39.131,64.435C1329.884,6101.207,1295.429,6110.578,1258.189,6110.578Z" transform="translate(-1112.352 -6019.754)" fill="#4485c6"/>
              </g>
              <g id="그룹_468" data-name="그룹 468" transform="translate(0.008 48.089)">
                <path id="패스_942" data-name="패스 942" d="M1394.348,5978.449h-3.461c0-51.829-52.8-89.447-125.558-89.447-37.087,0-74.842,9.648-103.586,26.468-29.611,17.329-45.919,39.7-45.919,62.979h-3.461c0-24.563,16.916-47.991,47.632-65.966,29.258-17.122,67.651-26.941,105.334-26.941,36.831,0,70.043,9.605,93.518,27.046C1381.74,5929.6,1394.348,5952.986,1394.348,5978.449Z" transform="translate(-1112.363 -5885.542)" fill="#4485c6"/>
              </g>
            </g>
            <g id="그룹_470" data-name="그룹 470" transform="translate(0.005)">
              <path id="패스_943" data-name="패스 943" d="M1253.351,6098.052a140.995,140.995,0,1,1,74.2-260.9l.218.141a142.227,142.227,0,0,1,56.522,67.385,140.233,140.233,0,0,1,7.575,25.952,142.033,142.033,0,0,1,2.474,26.433,140.882,140.882,0,0,1-140.99,140.99Zm0-278.529a137.589,137.589,0,1,0,72.39,20.583l-.186-.121A137.138,137.138,0,0,0,1253.351,5819.523Z" transform="translate(-1112.359 -5816.063)"/>
            </g>
            <g id="그룹_471" data-name="그룹 471" transform="translate(1.735 33.109)" opacity="0.74">
              <path id="패스_944" data-name="패스 944" d="M1203.4,5953.768c-8.459,4.776-44.618-9.026-49.865,0s-15.436,12.764-14.308,40.375c.762,18.633-5.357,28.137-15.726,26.026a139.421,139.421,0,0,1,40.527-154.578l.007.006s43.262-7.9,50.163,10.362-9.573,14.723-11.94,35.931S1211.855,5948.985,1203.4,5953.768Z" transform="translate(-1114.859 -5863.896)" fill="#2eaa00"/>
            </g>
            <g id="그룹_472" data-name="그룹 472" transform="translate(224.886 114.889)" opacity="0.74">
              <path id="패스_945" data-name="패스 945" d="M1492.616,6008.152a138.782,138.782,0,0,1-38.485,96.111c-30.678-8.909-10.847-27.784-7.462-33.716,4.4-7.711,10.092-8.479,12.217-25.922s3.53-32.747,21.2-51.458c3.3-3.5,6.714-7.281,10.085-11.124A139.893,139.893,0,0,1,1492.616,6008.152Z" transform="translate(-1437.245 -5982.043)" fill="#2eaa00"/>
            </g>
            <g id="그룹_473" data-name="그룹 473" transform="translate(0.005 31.362)">
              <path id="패스_946" data-name="패스 946" d="M1125.45,6021.409a15.422,15.422,0,0,1-3.067-.32l-.943-.192-.334-.9a141.154,141.154,0,0,1,41.03-156.5l1.216-1.033.5.5c6.531-1.079,44.357-6.483,51.192,11.606,4.11,10.878.3,15.141-3.739,19.655-3.318,3.709-7.078,7.915-8.1,17.081-1.069,9.576.894,18.121,2.472,24.987,1.926,8.387,3.448,15.011-2.2,18.2h0c-4.265,2.409-13.17.933-23.482-.773-10.428-1.728-23.406-3.875-25.737.136a45.73,45.73,0,0,1-4.38,5.981c-4.938,6.031-10.536,12.867-9.695,33.453.5,12.271-1.888,21.017-6.908,25.292A11.8,11.8,0,0,1,1125.45,6021.409Zm-1.443-3.557a8.653,8.653,0,0,0,7.026-1.9c4.121-3.509,6.143-11.506,5.693-22.516-.895-21.9,5.146-29.277,10.476-35.786a43.008,43.008,0,0,0,4.065-5.53c3.531-6.074,16.045-4,29.295-1.81,8.444,1.4,18.014,2.979,21.215,1.174,3.246-1.837,2.413-6.207.527-14.416-1.636-7.122-3.673-15.984-2.538-26.146,1.146-10.265,5.479-15.11,8.96-19,3.883-4.342,6.448-7.211,3.08-16.124-5.969-15.8-43.341-10.089-47.8-9.346a137.693,137.693,0,0,0-40,151.4Zm78.62-64.862h0Z" transform="translate(-1112.359 -5861.372)"/>
            </g>
            <g id="그룹_474" data-name="그룹 474" transform="translate(223.161 111.081)">
              <path id="패스_947" data-name="패스 947" d="M1453.89,6104.525l-1.009-.293c-9.878-2.868-15.6-6.958-17.481-12.5-2.624-7.717,3.355-15.874,6.927-20.746.887-1.209,1.651-2.252,2.072-2.989a37.829,37.829,0,0,1,4.189-5.762c3.273-3.915,6.364-7.611,7.813-19.512l.172-1.426c2.011-16.661,3.909-32.4,21.489-51.01,3.021-3.2,6.4-6.924,10.042-11.076l2.339-2.667.662,3.484a142.044,142.044,0,0,1,2.474,26.433,140.354,140.354,0,0,1-38.964,97.3Zm34.434-120.337c-2.769,3.114-5.366,5.955-7.745,8.475-16.8,17.783-18.544,32.271-20.569,49.047l-.173,1.429c-1.573,12.918-5.141,17.187-8.594,21.314a34.551,34.551,0,0,0-3.838,5.257,39.468,39.468,0,0,1-2.286,3.32c-3.379,4.61-8.486,11.575-6.443,17.585,1.415,4.161,6.178,7.52,14.164,9.989a136.9,136.9,0,0,0,37.278-94.146A138.92,138.92,0,0,0,1488.324,5984.188Z" transform="translate(-1434.753 -5976.542)"/>
            </g>
            <g id="그룹_475" data-name="그룹 475" transform="translate(209.675 22.572)" opacity="0.74">
              <path id="패스_948" data-name="패스 948" d="M1475.926,5915.358c-1.717,1.412-3.025,2.533-3.662,3.157-3.53,3.461-17.672-.707-23.68-8.486s-12.016-9.538-24.766-10.957-9.165-6.008-2.6-23.146c6.41-16.765-1-26.815-1.322-27.252A139.717,139.717,0,0,1,1475.926,5915.358Z" transform="translate(-1415.27 -5848.673)" fill="#2eaa00"/>
            </g>
            <g id="그룹_476" data-name="그룹 476" transform="translate(207.459 16.296)">
              <path id="패스_949" data-name="패스 949" d="M1467.094,5918.683q-.53,0-1.094-.039c-6.031-.416-15.01-4.185-19.77-10.349-5.506-7.124-10.968-8.891-23.588-10.3-5.261-.583-7.947-1.718-9.269-3.915-1.979-3.291-.179-7.832,3.09-16.075.662-1.671,1.387-3.5,2.151-5.5,6.03-15.771-.8-25.2-1.093-25.6l-5.452-7.311,7.752,4.806a142.231,142.231,0,0,1,56.727,67.513l.47,1.175-.978.8c-2.21,1.817-3.15,2.666-3.551,3.056A7.535,7.535,0,0,1,1467.094,5918.683Zm-43.93-67.96c1.617,4.944,2.591,12.805-1.318,23.028-.77,2.012-1.5,3.851-2.167,5.534-2.576,6.5-4.438,11.192-3.342,13.015.668,1.111,2.793,1.829,6.686,2.26,13.089,1.456,19.586,3.392,25.944,11.618,3.993,5.172,11.917,8.643,17.27,9.013,1.818.122,3.251-.139,3.829-.7.532-.52,1.469-1.339,2.793-2.444A138.853,138.853,0,0,0,1423.164,5850.723Z" transform="translate(-1412.068 -5839.606)"/>
            </g>
          </g>
          <g id="그룹_509" data-name="그룹 509" transform="translate(100.728 103.687)">
            <g id="그룹_483" data-name="그룹 483">
              <g id="그룹_480" data-name="그룹 480" transform="translate(3.682)">
                <g id="그룹_478" data-name="그룹 478">
                  <path id="패스_950" data-name="패스 950" d="M1296.394,5997.335c0,15.992-8.513,28.962-19.011,28.962a11.966,11.966,0,0,1-1.886-.143c-9.605-1.439-17.125-13.8-17.125-28.82s7.52-27.392,17.125-28.832a12.083,12.083,0,0,1,1.886-.142C1287.88,5968.361,1296.394,5981.332,1296.394,5997.335Z" transform="translate(-1256.641 -5966.63)" fill="#fff"/>
                  <path id="패스_951" data-name="패스 951" d="M1276.613,6027.258a13.969,13.969,0,0,1-2.156-.163c-10.59-1.588-18.586-14.714-18.586-30.53s8-28.953,18.6-30.543a13.753,13.753,0,0,1,2.144-.162c11.436,0,20.741,13.774,20.741,30.705S1288.049,6027.258,1276.613,6027.258Zm0-57.937a10.307,10.307,0,0,0-1.617.122c-8.789,1.318-15.664,13.23-15.664,27.123s6.875,25.793,15.651,27.109a10.416,10.416,0,0,0,1.63.124c9.529,0,17.28-12.217,17.28-27.232S1286.142,5969.321,1276.613,5969.321Z" transform="translate(-1255.871 -5965.86)"/>
                </g>
                <g id="그룹_479" data-name="그룹 479" transform="translate(1.734 1.869)">
                  <path id="패스_952" data-name="패스 952" d="M1278.926,6003.588a102.824,102.824,0,0,1-3.425,22.624c-9.6-1.44-17.125-13.8-17.125-28.82S1265.9,5970,1275.5,5968.56a103.029,103.029,0,0,1,3.412,22.275l-8.191,6.382Z" transform="translate(-1258.376 -5968.56)" fill="#231815"/>
                </g>
              </g>
              <g id="그룹_481" data-name="그룹 481" transform="translate(0 49.281)">
                <ellipse id="타원_79" data-name="타원 79" cx="24.423" cy="10.386" rx="24.423" ry="10.386" fill="#9abde8"/>
              </g>
              <g id="그룹_482" data-name="그룹 482" transform="translate(3.68 47.551)">
                <path id="패스_953" data-name="패스 953" d="M1295.623,6041.885a1.721,1.721,0,0,1-.8-.2c-4.425-2.331-11.061-3.667-18.207-3.667s-13.781,1.336-18.206,3.667a1.73,1.73,0,1,1-1.613-3.062c4.906-2.584,12.129-4.065,19.819-4.065s14.913,1.481,19.819,4.065a1.731,1.731,0,0,1-.808,3.263Z" transform="translate(-1255.869 -6034.558)"/>
              </g>
            </g>
            <g id="그룹_489" data-name="그룹 489" transform="translate(93.502)">
              <g id="그룹_486" data-name="그룹 486" transform="translate(3.682)">
                <g id="그룹_484" data-name="그룹 484">
                  <path id="패스_954" data-name="패스 954" d="M1431.476,5997.335c0,15.992-8.513,28.962-19.011,28.962a11.974,11.974,0,0,1-1.886-.143c-9.6-1.439-17.125-13.8-17.125-28.82s7.521-27.392,17.125-28.832a12.091,12.091,0,0,1,1.886-.142C1422.963,5968.361,1431.476,5981.332,1431.476,5997.335Z" transform="translate(-1391.723 -5966.63)" fill="#fff"/>
                  <path id="패스_955" data-name="패스 955" d="M1411.7,6027.258a13.966,13.966,0,0,1-2.156-.163c-10.59-1.588-18.586-14.714-18.586-30.53s8-28.953,18.6-30.543a13.745,13.745,0,0,1,2.144-.162c11.436,0,20.741,13.774,20.741,30.705S1423.131,6027.258,1411.7,6027.258Zm0-57.937a10.3,10.3,0,0,0-1.617.122c-8.789,1.318-15.664,13.23-15.664,27.123s6.875,25.793,15.651,27.109a10.418,10.418,0,0,0,1.63.124c9.529,0,17.28-12.217,17.28-27.232S1421.224,5969.321,1411.7,5969.321Z" transform="translate(-1390.953 -5965.86)"/>
                </g>
                <g id="그룹_485" data-name="그룹 485" transform="translate(1.735 1.869)">
                  <path id="패스_956" data-name="패스 956" d="M1414.009,6003.588a102.824,102.824,0,0,1-3.425,22.624c-9.6-1.44-17.125-13.8-17.125-28.82s7.52-27.392,17.125-28.832a103.029,103.029,0,0,1,3.413,22.275l-8.19,6.382Z" transform="translate(-1393.459 -5968.56)" fill="#231815"/>
                </g>
              </g>
              <g id="그룹_487" data-name="그룹 487" transform="translate(0 49.281)">
                <ellipse id="타원_80" data-name="타원 80" cx="24.423" cy="10.386" rx="24.423" ry="10.386" fill="#9abde8"/>
              </g>
              <g id="그룹_488" data-name="그룹 488" transform="translate(3.68 47.551)">
                <path id="패스_957" data-name="패스 957" d="M1392.683,6041.885a1.731,1.731,0,0,1-.808-3.263c4.906-2.584,12.131-4.065,19.819-4.065s14.913,1.481,19.819,4.065a1.73,1.73,0,1,1-1.613,3.062c-4.424-2.331-11.06-3.667-18.206-3.667s-13.781,1.336-18.207,3.667A1.721,1.721,0,0,1,1392.683,6041.885Z" transform="translate(-1390.951 -6034.558)"/>
              </g>
            </g>
            <g id="그룹_494" data-name="그룹 494" transform="translate(13.03 54.632)">
              <g id="그룹_490" data-name="그룹 490" transform="translate(0 4.89)">
                <circle id="타원_81" data-name="타원 81" cx="1.33" cy="1.33" r="1.33" fill="#231815"/>
              </g>
              <g id="그룹_491" data-name="그룹 491" transform="translate(6.981)">
                <circle id="타원_82" data-name="타원 82" cx="1.33" cy="1.33" r="1.33" fill="#231815"/>
              </g>
              <g id="그룹_492" data-name="그룹 492" transform="translate(10.869 7.864)">
                <circle id="타원_83" data-name="타원 83" cx="1.33" cy="1.33" r="1.33" fill="#231815"/>
              </g>
              <g id="그룹_493" data-name="그룹 493" transform="translate(18.026 3.559)">
                <circle id="타원_84" data-name="타원 84" cx="1.33" cy="1.33" r="1.33" fill="#231815"/>
              </g>
            </g>
            <g id="그룹_499" data-name="그룹 499" transform="translate(107.582 54.632)">
              <g id="그룹_495" data-name="그룹 495" transform="translate(18.026 4.89)">
                <circle id="타원_85" data-name="타원 85" cx="1.33" cy="1.33" r="1.33" fill="#231815"/>
              </g>
              <g id="그룹_496" data-name="그룹 496" transform="translate(11.046)">
                <circle id="타원_86" data-name="타원 86" cx="1.33" cy="1.33" r="1.33" fill="#231815"/>
              </g>
              <g id="그룹_497" data-name="그룹 497" transform="translate(7.158 7.864)">
                <circle id="타원_87" data-name="타원 87" cx="1.33" cy="1.33" r="1.33" fill="#231815"/>
              </g>
              <g id="그룹_498" data-name="그룹 498" transform="translate(0 3.559)">
                <circle id="타원_88" data-name="타원 88" cx="1.33" cy="1.33" r="1.33" fill="#231815"/>
              </g>
            </g>
            <g id="그룹_500" data-name="그룹 500" transform="translate(57.453 17.56)">
              <path id="패스_958" data-name="패스 958" d="M1336.083,6005.979a11.434,11.434,0,1,1,18.457,8.188l-9,7.051" transform="translate(-1334.324 -5992)" fill="#9abde8"/>
              <path id="패스_959" data-name="패스 959" d="M1344.771,6022.178a1.73,1.73,0,0,1-1.069-3.092l9-7.051a9.7,9.7,0,1,0-15.663-6.946,1.731,1.731,0,1,1-3.453.244,13.165,13.165,0,1,1,21.251,9.427l-9,7.051A1.721,1.721,0,0,1,1344.771,6022.178Z" transform="translate(-1333.554 -5991.229)"/>
            </g>
            <g id="그룹_508" data-name="그룹 508" transform="translate(50.732 53.839)">
              <g id="그룹_505" data-name="그룹 505">
                <g id="그룹_501" data-name="그룹 501" transform="translate(28.243)">
                  <path id="패스_960" data-name="패스 960" d="M1372.34,6077.986c3.5,4.171,8.189,6.344,12.7,5.313,7.375-1.688,11.463-11.318,9.131-21.51s-10.2-17.087-17.576-15.4c-4.924,1.127-8.382,5.794-9.444,11.8" transform="translate(-1365.416 -6044.409)" fill="#9abde8"/>
                  <path id="패스_961" data-name="패스 961" d="M1382.033,6084.513c-4.185,0-8.443-2.195-11.788-6.182a1.73,1.73,0,1,1,2.651-2.224c3.2,3.808,7.3,5.581,10.985,4.737,3.011-.688,5.5-3.017,7-6.555a21.2,21.2,0,0,0,.831-12.881c-2.115-9.247-9.07-15.583-15.5-14.1-4.041.924-7.154,4.917-8.126,10.419a1.73,1.73,0,1,1-3.408-.6c1.217-6.9,5.341-11.951,10.761-13.191,8.293-1.895,17.108,5.594,19.65,16.7a24.671,24.671,0,0,1-1.02,15.007c-1.946,4.587-5.29,7.633-9.412,8.577A11.743,11.743,0,0,1,1382.033,6084.513Z" transform="translate(-1364.646 -6043.642)"/>
                </g>
                <g id="그룹_502" data-name="그룹 502" transform="translate(34.769 9.735)">
                  <ellipse id="타원_89" data-name="타원 89" cx="6.83" cy="9.439" rx="6.83" ry="9.439" transform="translate(0 3.047) rotate(-12.888)" fill="#231815"/>
                </g>
                <g id="그룹_503" data-name="그룹 503" transform="translate(0 3.553)">
                  <path id="패스_962" data-name="패스 962" d="M1354.69,6056.023s-16.778,3.966-28.346-4.746" transform="translate(-1324.613 -6049.545)" fill="#9abde8"/>
                  <path id="패스_963" data-name="패스 963" d="M1344.846,6057.9c-6.024,0-13.867-1.16-20.312-6.015a1.73,1.73,0,1,1,2.082-2.764c10.764,8.107,26.748,4.482,26.908,4.445a1.73,1.73,0,0,1,.795,3.368A44.532,44.532,0,0,1,1344.846,6057.9Z" transform="translate(-1323.844 -6048.775)"/>
                </g>
                <g id="그룹_504" data-name="그룹 504" transform="translate(14.607 33.968)">
                  <path id="패스_964" data-name="패스 964" d="M1367.06,6095.216a27.86,27.86,0,0,0-19.612,14.58" transform="translate(-1345.717 -6093.485)" fill="#9abde8"/>
                  <path id="패스_965" data-name="패스 965" d="M1346.676,6110.757a1.731,1.731,0,0,1-1.537-2.523,29.4,29.4,0,0,1,20.926-15.5,1.73,1.73,0,0,1,.454,3.431h0a26.387,26.387,0,0,0-18.3,13.658A1.731,1.731,0,0,1,1346.676,6110.757Z" transform="translate(-1344.947 -6092.715)"/>
                </g>
              </g>
              <g id="그룹_506" data-name="그룹 506" transform="translate(14.607 33.968)">
                <path id="패스_966" data-name="패스 966" d="M1367.06,6095.216s-16.075,5.16-19.612,14.58" transform="translate(-1345.716 -6093.485)" fill="#9abde8"/>
                <path id="패스_967" data-name="패스 967" d="M1346.677,6110.757a1.732,1.732,0,0,1-1.62-2.339c3.788-10.088,20.015-15.4,20.7-15.619a1.731,1.731,0,0,1,1.058,3.3c-.154.049-15.323,5.021-18.522,13.541A1.731,1.731,0,0,1,1346.677,6110.757Z" transform="translate(-1344.946 -6092.716)"/>
              </g>
              <g id="그룹_507" data-name="그룹 507" transform="translate(14.074 43.14)">
                <path id="패스_968" data-name="패스 968" d="M1354.609,6112.534c.471-1.944.471-4.948-2.376-3.814,0,0-3.089-.007-5.027,5.156C1344.6,6120.839,1352.281,6122.134,1354.609,6112.534Z" transform="translate(-1344.944 -6106.738)" fill="#231815"/>
                <path id="패스_969" data-name="패스 969" d="M1348.287,6120.374a3.91,3.91,0,0,1-2.958-1.3c-1.333-1.492-1.519-3.889-.511-6.575,1.965-5.237,5.122-6.11,6.263-6.252a3.337,3.337,0,0,1,3.507.452c1.686,1.463,1.215,4.315.934,5.474h0c-1.055,4.353-3.345,7.368-6.125,8.064A4.561,4.561,0,0,1,1348.287,6120.374Zm3.174-10.695c-.015.005-1.967.208-3.4,4.034-.672,1.79-.409,2.762-.148,3.055.05.054.2.222.645.109.9-.224,2.663-1.64,3.6-5.522a5.25,5.25,0,0,0,.155-1.873c-.058.018-.127.042-.208.074l-.379.15Zm2.38,2.083h0Z" transform="translate(-1344.177 -6105.966)"/>
              </g>
            </g>
          </g>
          <g id="그룹_510" data-name="그룹 510" transform="translate(29.453 163.629)">
            <path id="패스_970" data-name="패스 970" d="M1155.637,6056.685c-5.177,7.356-8.573,17.784-1.769,30.246,14.792,27.1,53.849,29.925,53.849,29.925v-13.961s-28.154-5.041-38.733-18.964c-11.1-14.614,3.74-28.973,3.74-28.973" transform="translate(-1148.344 -6053.227)" fill="#9abde8"/>
            <path id="패스_971" data-name="패스 971" d="M1208.684,6117.946l-1.855-.134c-1.634-.118-40.172-3.214-55.244-30.822-5.915-10.835-5.267-21.925,1.873-32.071a1.731,1.731,0,1,1,2.831,1.991c-6.42,9.123-6.981,18.685-1.666,28.421,12.35,22.623,42.776,27.845,50.6,28.829v-10.612c-5.992-1.248-28.783-6.71-38.38-19.34-11.9-15.657,3.756-31.11,3.915-31.264a1.731,1.731,0,1,1,2.407,2.487c-.559.543-13.593,13.484-3.566,26.682,10.055,13.232,37.385,18.258,37.66,18.307l1.425.255Z" transform="translate(-1147.581 -6052.458)"/>
          </g>
          <g id="그룹_519" data-name="그룹 519" transform="translate(74.841 195.288)">
            <g id="그룹_511" data-name="그룹 511" transform="translate(0 11.535)">
              <path id="패스_972" data-name="패스 972" d="M1233.279,6118.643s-12.579-5.951-16.876,7.767,11.375,17.676,11.375,17.676" transform="translate(-1213.924 -6115.629)" fill="#fff"/>
              <path id="패스_973" data-name="패스 973" d="M1227.008,6145.049a1.767,1.767,0,0,1-.424-.054c-.336-.086-8.274-2.153-11.794-8.45-1.867-3.336-2.138-7.18-.809-11.422,1.447-4.621,3.939-7.733,7.406-9.252,5.615-2.457,11.61.319,11.863.438a1.731,1.731,0,0,1-1.477,3.132c-.082-.038-4.878-2.221-9.019-.391-2.5,1.1-4.338,3.493-5.47,7.106a10.719,10.719,0,0,0,.518,8.685c2.779,4.991,9.565,6.78,9.633,6.8a1.732,1.732,0,0,1-.427,3.409Z" transform="translate(-1213.153 -6114.859)"/>
            </g>
            <g id="그룹_512" data-name="그룹 512" transform="translate(9.935)">
              <path id="패스_974" data-name="패스 974" d="M1231.928,6122.082s1.332-6.687,5.552-9.791,14.269-10.737,22.477-8.248c2.441.627,5.587-2.074,9.433-3.156,2.051-.577,10.072-.653,9.793,10.99a8.763,8.763,0,0,1,6.708,3.79c2.15,3.325,2.487,7.78-4.118,12.614,0,0,2.809,4.547.809,8.805-2.664,5.673-10.382,8.625-10.971,8.616s2.72,2.718-1.686,6.137-14.443,8.539-27.37-.262c-14.525-9.89-12.439-21.141-12.439-21.141" transform="translate(-1228.277 -6098.963)" fill="#fff"/>
              <path id="패스_975" data-name="패스 975" d="M1256.034,6157.418c-4.414,0-9.567-1.326-15.224-5.179-15.283-10.4-13.261-22.381-13.167-22.886a1.73,1.73,0,0,1,3.4.631c-.069.407-1.6,10.329,11.712,19.4,11.935,8.125,21,3.69,25.337.324,2.231-1.732,1.687-2.785,1.289-3.553a2.042,2.042,0,0,1-.079-2.1,1.779,1.779,0,0,1,1.348-.835c1.316-.333,7.493-3.159,9.592-7.629,1.566-3.333-.7-7.128-.719-7.167a1.737,1.737,0,0,1,.453-2.3c7.013-5.132,4.51-9.006,3.687-10.28a6.966,6.966,0,0,0-5.3-3,1.74,1.74,0,0,1-1.685-1.771c.095-3.986-.82-6.755-2.719-8.23a6.107,6.107,0,0,0-4.876-1.053,24.407,24.407,0,0,0-3.955,1.631c-2.206,1.065-4.29,2.074-6.378,1.534-.024-.007-.047-.012-.071-.02-7.165-2.169-16.588,4.771-20.612,7.737l-.339.25c-3.615,2.66-4.868,8.676-4.881,8.737a1.73,1.73,0,0,1-3.394-.678c.06-.3,1.517-7.384,6.223-10.846l.336-.249c4.81-3.543,14.811-10.912,23.625-8.276.865.2,2.38-.531,3.984-1.305a27.739,27.739,0,0,1,4.523-1.847,9.587,9.587,0,0,1,7.935,1.653c2.526,1.961,3.884,5.154,4.047,9.5a10.18,10.18,0,0,1,6.44,4.349c1.811,2.8,3.655,8.242-3.393,14.053a11.163,11.163,0,0,1,.2,9.042c-2.207,4.7-7.316,7.717-10.35,8.961.613,2.34-.328,4.5-2.812,6.423A23.411,23.411,0,0,1,1256.034,6157.418Zm14.567-14.192Zm.264-.022h0Z" transform="translate(-1227.506 -6098.195)"/>
            </g>
            <g id="그룹_513" data-name="그룹 513" transform="translate(21.037 26.333)">
              <path id="패스_976" data-name="패스 976" d="M1246.045,6139.606c1.028-.012,7.031,2.471,9.8-.868" transform="translate(-1244.314 -6137.008)" fill="#fff"/>
              <path id="패스_977" data-name="패스 977" d="M1250.717,6141.448a19.882,19.882,0,0,1-4.672-.7c-.3-.074-.674-.164-.816-.184a1.731,1.731,0,0,1,.023-3.46,6.909,6.909,0,0,1,1.61.281c1.876.457,5.367,1.3,6.886-.524a1.73,1.73,0,1,1,2.662,2.211A7.048,7.048,0,0,1,1250.717,6141.448Zm-5.458-.88h0Z" transform="translate(-1243.545 -6136.238)"/>
            </g>
            <g id="그룹_514" data-name="그룹 514" transform="translate(18.769 34.345)">
              <path id="패스_978" data-name="패스 978" d="M1242.769,6150.314a11.542,11.542,0,0,0,8.485,4.529" transform="translate(-1241.038 -6148.584)" fill="#fff"/>
              <path id="패스_979" data-name="패스 979" d="M1250.484,6155.8h-.048a13.259,13.259,0,0,1-9.853-5.264,1.731,1.731,0,0,1,2.828-2,9.892,9.892,0,0,0,7.121,3.8,1.731,1.731,0,0,1-.047,3.46Z" transform="translate(-1240.269 -6147.814)"/>
            </g>
            <g id="그룹_515" data-name="그룹 515" transform="translate(35.853 12.803)">
              <path id="패스_980" data-name="패스 980" d="M1267.449,6121.049c.366-.235,7.136-5.286,14.122,2.319" transform="translate(-1265.719 -6117.461)" fill="#fff"/>
              <path id="패스_981" data-name="패스 981" d="M1280.8,6124.331a1.727,1.727,0,0,1-1.275-.56c-5.182-5.641-9.987-3.347-11.814-2.1l-.1.065a1.731,1.731,0,0,1-1.885-2.9c4.162-2.844,10.617-3.639,16.343,2.6a1.731,1.731,0,0,1-1.273,2.9Z" transform="translate(-1264.95 -6116.693)"/>
            </g>
            <g id="그룹_516" data-name="그룹 516" transform="translate(46.117 10.87)">
              <path id="패스_982" data-name="패스 982" d="M1282.276,6119.7s5.995-4.5,13-2.986" transform="translate(-1280.547 -6114.67)" fill="#fff"/>
              <path id="패스_983" data-name="패스 983" d="M1281.51,6120.658a1.73,1.73,0,0,1-1.043-3.112c.271-.2,6.716-4.958,14.4-3.293a1.731,1.731,0,0,1-.734,3.383c-6.108-1.327-11.538,2.64-11.593,2.681A1.724,1.724,0,0,1,1281.51,6120.658Z" transform="translate(-1279.778 -6113.9)"/>
            </g>
            <g id="그룹_517" data-name="그룹 517" transform="translate(52.739 27.588)">
              <path id="패스_984" data-name="패스 984" d="M1291.845,6143.986s2.268,1.26,8.962-3.436" transform="translate(-1290.115 -6138.821)" fill="#fff"/>
              <path id="패스_985" data-name="패스 985" d="M1291.977,6145.1a3.574,3.574,0,0,1-1.742-.369,1.73,1.73,0,0,1,1.513-3.107c.234.04,2.29.254,7.295-3.258a1.731,1.731,0,1,1,1.988,2.833C1296.5,6144.375,1293.641,6145.1,1291.977,6145.1Zm-.061-3.4h0Zm0,0h0Zm0,0h0Z" transform="translate(-1289.345 -6138.051)"/>
            </g>
            <g id="그룹_518" data-name="그룹 518" transform="translate(41.887 44.806)">
              <path id="패스_986" data-name="패스 986" d="M1276.168,6165.429s5.459,1.539,9.651.2" transform="translate(-1274.437 -6163.697)" fill="#fff"/>
              <path id="패스_987" data-name="패스 987" d="M1281.072,6167.134a25,25,0,0,1-6.142-.811,1.731,1.731,0,0,1,.937-3.332c.069.019,5.029,1.376,8.657.219a1.731,1.731,0,0,1,1.052,3.3A15,15,0,0,1,1281.072,6167.134Z" transform="translate(-1273.667 -6162.926)"/>
            </g>
          </g>
        </g>
        <g id="그룹_525" data-name="그룹 525" transform="translate(318.48 107.647)">
          <g id="그룹_521" data-name="그룹 521" transform="translate(1.696 1.73)">
            <path id="패스_988" data-name="패스 988" d="M1572.8,5993.63s-.937-19.55,16.558-19.55,18.041,6.3,27.312,9.775,1.318,13.272,6.62,15.8-6.62,11.532-6.62,11.532-50.64-3.6-49.05-10.547S1572.8,5993.63,1572.8,5993.63Z" transform="translate(-1567.588 -5974.08)" fill="#634f3b"/>
          </g>
          <g id="그룹_522" data-name="그룹 522">
            <path id="패스_989" data-name="패스 989" d="M1613.267,6012.539a30.65,30.65,0,0,1-5.34-.624l-.555-.1a1.731,1.731,0,1,1,.6-3.41l.573.1c1.783.322,5.1.923,6.763.289,1.629-.62,6.983-5.349,7.076-7.646.008-.2.016-.419-.586-.706-3.356-1.6-3.1-5.108-2.89-7.927.288-3.9.268-6.364-3.593-7.814a33.11,33.11,0,0,1-7.612-4.224c-4.061-2.8-7.9-5.44-19.092-5.44-4.326,0-7.772,1.311-10.243,3.895-4.919,5.145-4.592,13.758-4.588,13.844l.088,1.95-1.744-.136c-.3.066-2.349.681-3.5,5.384.107.472.7,1.959,3.941,2.29a1.731,1.731,0,1,1-.351,3.444c-5.537-.567-7.047-4.053-7.072-5.818l0-.207.047-.2c1.2-5.235,3.524-7.19,5.137-7.92.095-2.976.836-10.081,5.526-15,3.15-3.3,7.444-4.98,12.761-4.98,12.272,0,16.737,3.076,21.056,6.051a29.834,29.834,0,0,0,6.864,3.834c6.483,2.433,6.09,7.774,5.829,11.308-.224,3.025-.124,4.048.927,4.549a4.08,4.08,0,0,1,2.555,3.969c-.185,4.567-7.439,10.032-9.3,10.742A9.286,9.286,0,0,1,1613.267,6012.539Z" transform="translate(-1565.138 -5971.581)"/>
          </g>
          <g id="그룹_523" data-name="그룹 523" transform="translate(16.173 18.539)">
            <path id="패스_990" data-name="패스 990" d="M1598.774,6005.938a1.732,1.732,0,0,1-1.677-1.311c-.051-.176-.256-.569-.442-.6a3.027,3.027,0,0,0-1.692.481,1.737,1.737,0,0,1-2.661-1.459,2.348,2.348,0,0,0-.235-1.091,2.034,2.034,0,0,0-.126.4,1.731,1.731,0,0,1-3.415-.563c.3-1.82,1.6-3.666,3.768-3.4a3.709,3.709,0,0,1,3.01,2.3,5.052,5.052,0,0,1,1.939-.071,4.257,4.257,0,0,1,3.211,3.168,1.732,1.732,0,0,1-1.257,2.1A1.761,1.761,0,0,1,1598.774,6005.938Z" transform="translate(-1588.503 -5998.364)"/>
          </g>
          <g id="그룹_524" data-name="그룹 524" transform="translate(40.393 15.846)">
            <path id="패스_991" data-name="패스 991" d="M1628.838,5999.76a1.732,1.732,0,0,1-1.66-1.242,1.842,1.842,0,0,0-.321-.584,1.715,1.715,0,0,0-.7.224,1.744,1.744,0,0,1-2.383-.521,1.719,1.719,0,0,1,.483-2.371,4.731,4.731,0,0,1,3.5-.681,4.281,4.281,0,0,1,2.742,2.957,1.73,1.73,0,0,1-1.66,2.22Z" transform="translate(-1623.493 -5994.473)"/>
          </g>
        </g>
        <g id="그룹_526" data-name="그룹 526" transform="translate(349.528 141.899)">
          <circle id="타원_90" data-name="타원 90" cx="2.701" cy="2.701" r="2.701" fill="#634f3b"/>
        </g>
        <g id="그룹_527" data-name="그룹 527" transform="translate(353.525 139.678)">
          <ellipse id="타원_91" data-name="타원 91" cx="3.541" cy="4.753" rx="3.541" ry="4.753" fill="#634f3b"/>
        </g>
        <g id="그룹_528" data-name="그룹 528" transform="translate(326.112 135.802)">
          <ellipse id="타원_92" data-name="타원 92" cx="4.223" cy="3.187" rx="4.223" ry="3.187" fill="#634f3b"/>
        </g>
        <g id="그룹_529" data-name="그룹 529" transform="translate(353.474 144.26)">
          <path id="패스_992" data-name="패스 992" d="M1620.438,6031.224c-1.3,0-4.744,0-4.744-3.706a1.73,1.73,0,0,1,3.461,0c0,.069,0,.124.007.166a6.559,6.559,0,0,0,1.276.079,1.558,1.558,0,0,0,1.557-1.556,1.73,1.73,0,0,1,3.461,0A5.023,5.023,0,0,1,1620.438,6031.224Z" transform="translate(-1615.694 -6024.477)"/>
        </g>
        <g id="그룹_530" data-name="그룹 530" transform="translate(349.216 84.457)">
          <line id="선_9" data-name="선 9" y1="28.702" transform="translate(1.73 1.73)" fill="#fff"/>
          <path id="패스_993" data-name="패스 993" d="M1611.273,5970.241a1.73,1.73,0,0,1-1.73-1.73v-28.7a1.73,1.73,0,0,1,3.461,0v28.7A1.73,1.73,0,0,1,1611.273,5970.241Z" transform="translate(-1609.543 -5938.079)"/>
        </g>
        <g id="그룹_531" data-name="그룹 531" transform="translate(321.591 70.238)">
          <path id="패스_994" data-name="패스 994" d="M1594.177,5923.134c7.231,4.379,7.574,9.027,5.146,13.034s-6.7,5.858-13.935,1.479-12.252-17.337-12.252-17.337S1586.945,5918.754,1594.177,5923.134Z" transform="translate(-1570.711 -5918.307)" fill="#2eaa00"/>
          <path id="패스_995" data-name="패스 995" d="M1591.726,5941.13c-2.247,0-4.989-.762-8.313-2.775-7.648-4.631-12.756-17.64-12.969-18.191l-.811-2.093,2.231-.252c.587-.064,14.483-1.566,22.131,3.064h0c9.589,5.807,7.707,12.148,5.731,15.412A9.235,9.235,0,0,1,1591.726,5941.13Zm-17.116-20.046c1.724,3.751,5.667,11.325,10.6,14.31,7.224,4.375,10.057,1.585,11.559-.894s2.662-6.282-4.563-10.658h0C1587.273,5920.857,1578.733,5920.871,1574.61,5921.084Z" transform="translate(-1569.633 -5917.535)"/>
        </g>
        <g id="그룹_532" data-name="그룹 532" transform="translate(346.519 64.378)">
          <path id="패스_996" data-name="패스 996" d="M1615.725,5915.2c-8.457,5.122-8.858,10.557-6.019,15.244s7.84,6.85,16.3,1.729,14.328-20.276,14.328-20.276S1624.182,5910.076,1615.725,5915.2Z" transform="translate(-1606.409 -5909.843)" fill="#2eaa00"/>
          <path id="패스_997" data-name="패스 997" d="M1616.562,5936.08a10.173,10.173,0,0,1-9.1-5.515c-2.253-3.722-4.393-10.96,6.6-17.621h0c8.86-5.365,25.014-3.619,25.7-3.542l2.231.251-.811,2.094c-.248.64-6.186,15.764-15.045,21.13C1622.62,5935.007,1619.408,5936.08,1616.562,5936.08Zm-.7-20.175c-9.677,5.861-6.484,11.133-5.434,12.867a7.174,7.174,0,0,0,4.872,3.736c2.429.446,5.475-.428,9.049-2.591,6.007-3.638,10.76-13,12.683-17.257-4.662-.269-15.162-.394-21.17,3.245Z" transform="translate(-1605.647 -5909.071)"/>
        </g>
      </g>
    </g>
  </g>
</svg>
