<svg xmlns="http://www.w3.org/2000/svg" width="196.893" height="72.517" viewBox="0 0 196.893 72.517">
  <g id="그룹_57" data-name="그룹 57" transform="translate(-678.756 -303.79)">
    <g id="그룹_4" data-name="그룹 4" transform="translate(678.756 314.85)" opacity="0.5">
      <path id="패스_1" data-name="패스 1" d="M678.756,406.64a63.684,63.684,0,0,1,14.594-3.055,103.812,103.812,0,0,1,14.486-.417,101.948,101.948,0,0,1,14.405,1.579,62.909,62.909,0,0,1,14.3,4.242,62.908,62.908,0,0,1-14.594,3.067,101.939,101.939,0,0,1-14.486.4,103.805,103.805,0,0,1-14.4-1.591A63.687,63.687,0,0,1,678.756,406.64Z" transform="translate(-678.756 -377.086)" fill="#fff"/>
      <path id="패스_2" data-name="패스 2" d="M749.436,333.426a71.271,71.271,0,0,1,3.018,15.512,117.323,117.323,0,0,1,.38,15.405,115.215,115.215,0,0,1-1.616,15.324,70.4,70.4,0,0,1-4.279,15.216,70.4,70.4,0,0,1-3.03-15.513,115.22,115.22,0,0,1-.367-15.4,117.328,117.328,0,0,1,1.629-15.323A71.273,71.273,0,0,1,749.436,333.426Z" transform="translate(-719.296 -333.426)" fill="#fff"/>
      <path id="패스_3" data-name="패스 3" d="M719.7,376.2a33.8,33.8,0,0,1,9.486,4.912,50.531,50.531,0,0,1,7.545,6.7,49.615,49.615,0,0,1,6.076,8.055,33.407,33.407,0,0,1,4.117,9.862,33.414,33.414,0,0,1-9.5-4.9,49.653,49.653,0,0,1-7.536-6.71,50.541,50.541,0,0,1-6.067-8.064A33.791,33.791,0,0,1,719.7,376.2Z" transform="translate(-704.417 -360.236)" fill="#fff"/>
      <path id="패스_4" data-name="패스 4" d="M745.5,376.969a37.439,37.439,0,0,1-5.382,9.919,57.051,57.051,0,0,1-7.171,7.978,56.055,56.055,0,0,1-8.525,6.509,37.018,37.018,0,0,1-10.331,4.549A37.009,37.009,0,0,1,719.463,396a56.041,56.041,0,0,1,7.18-7.969,57.053,57.053,0,0,1,8.533-6.5A37.427,37.427,0,0,1,745.5,376.969Z" transform="translate(-700.903 -360.718)" fill="#fff"/>
    </g>
    <g id="그룹_15" data-name="그룹 15" transform="translate(710.323 303.79)">
      <g id="그룹_14" data-name="그룹 14">
        <g id="그룹_13" data-name="그룹 13">
          <g id="그룹_10" data-name="그룹 10">
            <g id="그룹_5" data-name="그룹 5" transform="translate(140.266)" opacity="0.5">
              <path id="패스_5" data-name="패스 5" d="M1139.175,323.621a17.235,17.235,0,0,1,3.953-.827,28.114,28.114,0,0,1,3.924-.113,27.545,27.545,0,0,1,3.9.428,17.032,17.032,0,0,1,3.872,1.149,17.026,17.026,0,0,1-3.953.831,27.652,27.652,0,0,1-3.924.11,28.1,28.1,0,0,1-3.9-.431A17.246,17.246,0,0,1,1139.175,323.621Z" transform="translate(-1139.175 -315.616)" fill="#fff"/>
              <path id="패스_6" data-name="패스 6" d="M1158.319,303.79a19.3,19.3,0,0,1,.817,4.2,31.767,31.767,0,0,1,.1,4.172,31.2,31.2,0,0,1-.437,4.15,19.067,19.067,0,0,1-1.159,4.121,19.1,19.1,0,0,1-.821-4.2,31.178,31.178,0,0,1-.1-4.172,31.705,31.705,0,0,1,.441-4.15A19.279,19.279,0,0,1,1158.319,303.79Z" transform="translate(-1150.156 -303.79)" fill="#fff"/>
              <path id="패스_7" data-name="패스 7" d="M1150.264,315.375a9.159,9.159,0,0,1,2.569,1.33,13.692,13.692,0,0,1,2.044,1.815,13.447,13.447,0,0,1,1.645,2.182,9.043,9.043,0,0,1,1.115,2.671,9.05,9.05,0,0,1-2.572-1.328,13.444,13.444,0,0,1-2.041-1.818,13.682,13.682,0,0,1-1.643-2.184A9.158,9.158,0,0,1,1150.264,315.375Z" transform="translate(-1146.125 -311.051)" fill="#fff"/>
              <path id="패스_8" data-name="패스 8" d="M1157.252,315.584a10.146,10.146,0,0,1-1.458,2.686,15.46,15.46,0,0,1-1.942,2.161,15.192,15.192,0,0,1-2.309,1.763,10.026,10.026,0,0,1-2.8,1.232,10.023,10.023,0,0,1,1.455-2.689,15.167,15.167,0,0,1,1.944-2.158,15.453,15.453,0,0,1,2.311-1.761A10.143,10.143,0,0,1,1157.252,315.584Z" transform="translate(-1145.173 -311.182)" fill="#fff"/>
            </g>
            <g id="그룹_6" data-name="그룹 6" transform="translate(112.941 16.12)" opacity="0.5">
              <path id="패스_9" data-name="패스 9" d="M1095.347,347.162a6.538,6.538,0,0,1,4.576,3.678q3.031,6.013-4.384,14.176a62.88,62.88,0,0,1-15.372,12.669q1.744,5.191,4.565,5.816a9.372,9.372,0,0,0,6.286-1.124,26.682,26.682,0,0,0,6.064-5.025,59.691,59.691,0,0,0,6.568-7.9q1.375-2,3.092-.983t.528,3.421a34.35,34.35,0,0,1-6.141,8.536,32.682,32.682,0,0,1-8.978,6.794q-5.9,2.975-10.522,2t-7.561-8.089a6.67,6.67,0,0,1-5.1.672c-1.549-.483-2.5-1.079-2.858-1.779q-.73-1.451,2.013-1.842a12.313,12.313,0,0,0,4.581-1.483,29.934,29.934,0,0,1,3.507-16.562,28.014,28.014,0,0,1,12.434-11.807A10.018,10.018,0,0,1,1095.347,347.162Zm-13.647,13.93a18,18,0,0,0-3.641,12.412,46.35,46.35,0,0,0,11.32-9.48q5.729-6.331,4.082-9.6a2.306,2.306,0,0,0-1.911-1.414,5.731,5.731,0,0,0-2.985.767Q1085.965,355.089,1081.7,361.092Z" transform="translate(-1065.957 -346.983)" fill="#fff"/>
            </g>
            <path id="패스_10" data-name="패스 10" d="M958.569,387.344l1.46,1.123a15.05,15.05,0,0,1,7.075-2.985c3.909-.511,7.49,1.949,8.139,6.929l2.008,15.415-11.8,1.538-1.692-12.982-1.3.693,1.623,12.464-11.8,1.538-2.933-22.533Z" transform="translate(-879.927 -354.953)" fill="#fff"/>
            <g id="그룹_7" data-name="그룹 7" transform="translate(143.187 27.882)">
              <path id="패스_11" data-name="패스 11" d="M1164.658,400.8a35.689,35.689,0,0,1-5.873-3.743l-.469.969a36.991,36.991,0,0,0,5.889,3.715l-4.92,10.179a23.74,23.74,0,0,1-6.1-2.083c-5.323-2.569-7.637-7.444-5.241-12.4l2.265-4.687-1.4-.68,4.061-8.4,1.171.564,2.766-5.727,11.389,5.5-2.769,5.727,3.718,1.8Z" transform="translate(-1147.001 -378.498)" fill="#fff"/>
            </g>
            <g id="그룹_8" data-name="그룹 8" transform="translate(96.285 23.544)">
              <path id="패스_12" data-name="패스 12" d="M1040.661,382.8a35.689,35.689,0,0,1-6.963.158l.15,1.066a36.937,36.937,0,0,0,6.96-.191l1.576,11.2a23.735,23.735,0,0,1-6.227,1.663c-5.852.827-10.487-1.935-11.256-7.388l-.726-5.154-1.546.216-1.3-9.243,1.286-.183-.888-6.3,12.524-1.766.886,6.3,4.09-.574Z" transform="translate(-1021.328 -366.874)" fill="#fff"/>
            </g>
            <g id="그룹_9" data-name="그룹 9" transform="translate(0 34.865)">
              <path id="패스_13" data-name="패스 13" d="M790.956,407.479c1.018,7.82-3.207,12.534-12.04,13.231l.722,5.532L767.1,427.876l-3.757-28.839,11.322-1.476C785.209,396.186,789.813,398.7,790.956,407.479Zm-7.611,2.6-.133-1.033c-2.767.359-7.152.107-9.1-.764l-.545,1.007C775.8,410.352,780.578,410.443,783.345,410.083Z" transform="translate(-763.338 -397.209)" fill="#fff"/>
            </g>
          </g>
          <g id="그룹_11" data-name="그룹 11" transform="translate(31.374 16.181)" opacity="0.5">
            <path id="패스_14" data-name="패스 14" d="M1114.651,468.617c-.012.13.109.1.186-.224l-.076-.266Z" transform="translate(-1014.91 -422.976)" fill="#fff"/>
            <path id="패스_15" data-name="패스 15" d="M1115.737,462.621c-.05-.4-.286-.829-.377-.565.21.366.107.459.294.88a.845.845,0,0,1-.048.408c-.036.094-.072.137-.1.106.012.12-.085.5-.059.692a2.329,2.329,0,0,0,.186-1.544C1115.669,462.473,1115.708,462.592,1115.737,462.621Z" transform="translate(-1015.355 -419.119)" fill="#fff"/>
            <path id="패스_16" data-name="패스 16" d="M1055.449,401.382l.176.126A1.511,1.511,0,0,0,1055.449,401.382Z" transform="translate(-977.804 -381.141)" fill="#fff"/>
            <path id="패스_17" data-name="패스 17" d="M1005.784,376.381c.147.057.215.069.227.059C1005.872,376.393,1005.757,376.356,1005.784,376.381Z" transform="translate(-946.672 -365.465)" fill="#fff"/>
            <path id="패스_18" data-name="패스 18" d="M997.16,372.395l.191.086A.611.611,0,0,0,997.16,372.395Z" transform="translate(-941.269 -362.972)" fill="#fff"/>
            <path id="패스_19" data-name="패스 19" d="M1054.67,400.847l-.456-.319C1054.155,400.551,1054.442,400.7,1054.67,400.847Z" transform="translate(-977.025 -380.605)" fill="#fff"/>
            <path id="패스_20" data-name="패스 20" d="M1112.047,452.45c.066.094.113.174.168.243-.046-.08-.085-.161-.138-.239A.114.114,0,0,1,1112.047,452.45Z" transform="translate(-1013.279 -413.15)" fill="#fff"/>
            <path id="패스_21" data-name="패스 21" d="M1076.261,414.384l.137.1a.955.955,0,0,0,.149.032Z" transform="translate(-990.848 -389.29)" fill="#fff"/>
            <path id="패스_22" data-name="패스 22" d="M1090.692,425.75c-.118-.107-.244-.045-.327-.041a.8.8,0,0,1,.322.156C1090.705,425.849,1090.708,425.813,1090.692,425.75Z" transform="translate(-999.689 -396.375)" fill="#fff"/>
            <path id="패스_23" data-name="패스 23" d="M1111.116,448.152l.124.156Z" transform="translate(-1012.695 -410.456)" fill="#fff"/>
            <path id="패스_24" data-name="패스 24" d="M1065.033,406.7a.129.129,0,0,0-.029-.073C1065,406.641,1065.008,406.667,1065.033,406.7Z" transform="translate(-983.791 -384.428)" fill="#fff"/>
            <path id="패스_25" data-name="패스 25" d="M1097.785,480.173c0,.01.006.014.006.022C1097.826,480.174,1097.836,480.162,1097.785,480.173Z" transform="translate(-1004.339 -430.524)" fill="#fff"/>
            <path id="패스_26" data-name="패스 26" d="M1115.416,469.778l-.044.1a.161.161,0,0,0,.055.05Z" transform="translate(-1015.363 -424.011)" fill="#fff"/>
            <path id="패스_27" data-name="패스 27" d="M981.017,365.863l.026.012C981.209,365.919,981.117,365.889,981.017,365.863Z" transform="translate(-931.15 -358.878)" fill="#fff"/>
            <path id="패스_28" data-name="패스 28" d="M852.17,382.933c-.119-.334.041-.1.206.075s.3.314.073-.149C852.449,382.976,851.809,382.144,852.17,382.933Z" transform="translate(-850.321 -369.362)" fill="#fff"/>
            <path id="패스_29" data-name="패스 29" d="M1111.616,451.606l-.14-.244A2.662,2.662,0,0,0,1111.616,451.606Z" transform="translate(-1012.921 -412.468)" fill="#fff"/>
            <path id="패스_30" data-name="패스 30" d="M853.029,383.15h0c-.016-.031-.032-.063-.045-.1A.993.993,0,0,0,853.029,383.15Z" transform="translate(-850.901 -369.652)" fill="#fff"/>
            <path id="패스_31" data-name="패스 31" d="M942.532,354.507a.519.519,0,0,0,.135.091C942.665,354.585,942.636,354.561,942.532,354.507Z" transform="translate(-907.029 -351.76)" fill="#fff"/>
            <path id="패스_32" data-name="패스 32" d="M970.679,363.056l-.257-.1C970.522,363,970.606,363.03,970.679,363.056Z" transform="translate(-924.51 -357.055)" fill="#fff"/>
            <path id="패스_33" data-name="패스 33" d="M926.6,351.484a1.9,1.9,0,0,0-.4-.085.408.408,0,0,0,.058.027A.964.964,0,0,1,926.6,351.484Z" transform="translate(-896.796 -349.812)" fill="#fff"/>
            <path id="패스_34" data-name="패스 34" d="M911.332,348.988c.03.014.071.028.107.041l.19.021Z" transform="translate(-887.473 -348.301)" fill="#fff"/>
            <path id="패스_35" data-name="패스 35" d="M1049.764,480.165a1.031,1.031,0,0,1,.256.153C1049.942,480.215,1050.815,480.308,1049.764,480.165Z" transform="translate(-974.24 -430.521)" fill="#fff"/>
            <path id="패스_36" data-name="패스 36" d="M1111.986,452.141a.28.28,0,0,1-.135-.126l.1.167C1111.979,452.188,1112,452.183,1111.986,452.141Z" transform="translate(-1013.156 -412.877)" fill="#fff"/>
            <path id="패스_37" data-name="패스 37" d="M924.55,353.848l-.929-.194C923.879,353.716,924.217,353.786,924.55,353.848Z" transform="translate(-895.175 -351.225)" fill="#fff"/>
            <path id="패스_38" data-name="패스 38" d="M940.6,445l.2.079A.812.812,0,0,0,940.6,445Z" transform="translate(-905.82 -408.48)" fill="#fff"/>
            <path id="패스_39" data-name="패스 39" d="M915.122,352.154a3.174,3.174,0,0,0-.515-.164.52.52,0,0,0-.114.017Z" transform="translate(-889.454 -350.182)" fill="#fff"/>
            <path id="패스_40" data-name="패스 40" d="M1050.452,480.578v0Z" transform="translate(-974.67 -430.779)" fill="#fff"/>
            <path id="패스_41" data-name="패스 41" d="M929.418,397.325c-.9-.064-.434.137-.632.22-1.079-.039-.487-.167-.844-.284-.672-.023-1.2.1-1.7.024-.034-.032-.13-.054-.013-.075-.723.054-2.1-.246-2.944-.208a.293.293,0,0,1-.1-.057c.121.1.129.191.093.247-.4-.056-.764,0-.9-.136a.752.752,0,0,0,.394-.016l-.428-.018c-.354-.216.583.038.6-.084a20.156,20.156,0,0,1-2.425-.255c-.1-.175,1.476.193.662-.083l.961.221c-.7-.366.586.115-.053-.258-1.266-.258-1.44-.151-2.7-.439-.3.031.071.143-.231.174-1.836-.188-1.339-.668-2.7-.734a2.225,2.225,0,0,1-1.454-.124l.358-.1c-1.216-.3-.756.094-2.006-.33.242-.007.972.173.792.109-.8-.328-.608-.045-1.244-.2l-.094-.184c-1.3-.29-2.752-.564-4.186-.932.091-.022.348,0,.028-.14a45.052,45.052,0,0,1-5.5-1.776l-.7-.083c-.151-.05-.263-.149-.091-.12-.651-.263-.061.07-.4.016-.383-.116-.475-.242-.224-.2-.6-.145-1.458-.371-2.31-.631a18.352,18.352,0,0,1-2.283-.865l.253.048c-.937-.392-1.17-.141-2.01-.587l.177.041a56.92,56.92,0,0,1-5.827-2.461c-.375.065-1.972-.938-2.21-.745-1.1-.62-.752-.524-2.331-1.332-.425-.208-.715-.131-1.256-.357l.046-.134-.781-.2-.311-.332-.512-.2c.194.1.393.255.346.278a6.348,6.348,0,0,1-1.828-1.069c-.624-.263-1.252-.518-1.869-.8a2.393,2.393,0,0,1,.632.2c-1.029-.363-.108-.222-1.051-.555.1.089-.1.042-.135.057a18.511,18.511,0,0,0-2.152-1.178l.187-.011c-1.317-.723-2.811-1.462-4.271-2.308.5.342.3.419-.14.185l-.1-.228c-.323-.08.42.308-.2.077-.538-.331-.282-.359.056-.219l-.689-.339c-.016-.061.151.009.22-.017-.323-.072-1.058-.805-1.529-.9l-.014-.06-1.738-1.042c-.491-.3-.955-.56-1.528-.938-.093.093-.525-.225-.925-.364-.82-.591-1.686-1.307-2.68-2-.73-.447-.266-.057-.622-.22.018-.131-.973-.832-.413-.532l-3-2.169c.126.162.289.319.173.277-.274-.194-.565-.513-.491-.527l.076.046c-1.727-1.174-3.37-3.375-4.659-4.385l.073.057c-.432-.37-.84-.762-1.25-1.155-.508-.593.379.289.047-.188a11.043,11.043,0,0,1-1.523-1.736l-.581-.819c-.185-.281-.383-.562-.616-.857a5.685,5.685,0,0,0-.444-1.061c-.112-.2-.2-.426-.308-.649s-.235-.455-.319-.7a5.62,5.62,0,0,1-.568-2.745l-.081.086a1.4,1.4,0,0,1,.074-.72c-.087.029-.077.4-.128.163a4.861,4.861,0,0,1,.654-2.281,6.111,6.111,0,0,1,1.733-1.742,13.652,13.652,0,0,1,4.83-1.734,2.526,2.526,0,0,0,.989-.366,2.2,2.2,0,0,1,1.279-.23l-.438.2a42.092,42.092,0,0,1,7.86-.372,1.085,1.085,0,0,1-.411.064,6.342,6.342,0,0,0,2.014.039c.4.038.086.084.328.152.534.115,1.372-.011,1.648.125.047.022-.156.021-.256.02.359-.031,1.638.2,1.316.034.951.166,1.838.181,2.589.365.52-.078,1.62.33,1.811.155-.051.1.359.207.86.295a10.3,10.3,0,0,0,1.4.182c-.213.024.51.162.258.2.686.121,1.316.227,1.219.094,1.207.5,2.568.352,3.2.824,1.022.176,2,.384,2.952.579.948.217,1.874.42,2.777.654-.117.17-2-.52-1.975-.291a37.434,37.434,0,0,1,4.432,1.029c.427.159-.272.011-.429,0,.857.218,1.675.467,2.468.715s1.558.5,2.325.689a1.2,1.2,0,0,1-.336-.05c.3.086.675.257.671.156l-.294-.073c-.427-.289,1.257.127,1.334.077-.586.085,1.452.566.549.617.2.049.456.089.433.015.281.116.358.185.045.149,1.064.325.725.1,1.673.441-.019.041-.216-.011-.332,0a7.059,7.059,0,0,1,1.808.51c-.057.007.023.076-.215-.015a40.917,40.917,0,0,1,3.878,1.329c-.513.01.484.261.5.45l.818.277-.289-.209c.7.291,1.362.431,1.941.731l-.546-.15c.44.172.883.336,1.32.515l-.714-.37c.74.214.01-.237.918.2-.195-.065.694.3,1.016.551h0a5.223,5.223,0,0,1,1.237.462c.11.11-.183.125-.112.2.395.021,1.63.691,2.119.745-.157-.032-.2.046-.163.084l.331.022c.3.181.34.22.259.26.944.468-.212-.339.88.278a2.052,2.052,0,0,1-.25-.069c1.119.572,2.225.973,3.234,1.537.229.3-.924-.406-.638-.1l2.326,1.041A24.755,24.755,0,0,1,919.5,364.8l-.256-.158c.31-.107,1.005.663,1.771.957-.183-.081-.293-.009-.233-.006.944.569,2,1.032,3.483,1.811l-.211-.05c.538.367,1.457.895,2.043,1.283.21.054.549.27.387.067,1.653,1.432,3.6,2.034,5.016,3.375-.189-.129-.481-.265-.331-.161.458.294.921.581,1.375.883-.044-.162-.136-.179-.372-.44a4.136,4.136,0,0,1,.94.532c-.638-.374-.093.142.129.375-.024-.057.085-.023.083-.065.58.654.246-.094,1.109.7l-.082.007a12.433,12.433,0,0,1,1.1.723c.081.215-.406-.235-.49-.174a8.034,8.034,0,0,1,1.569,1.082c-.241-.149-.557-.4-.8-.548a4.8,4.8,0,0,0,.865.857l-.035-.032c.277.25.558.494.825.754l-.193-.213c.833.291,1.332,1.027,2.293,1.623-.939-.575-.209-.034-.364.014.186.218.478.537.36.484.471.263.578.66,1.228,1.049-.007.055.4.39.238.388.5.457-.057-.171.019-.167a8.708,8.708,0,0,1,1.266,1.3,15.214,15.214,0,0,0,1.448,1.6c.223.237.408.421.572.577l.427.431a7.248,7.248,0,0,1,.9,1.013c.166.382-.319-.189-.319-.189.31.585.594.986.932,1.507-.1-.09-.06.039-.012.225.256.421.3.217.525.834a2.124,2.124,0,0,1-.371-.367c.141.252.292.5.445.748s.262.522.387.8c-.019.173-.237-.3-.356-.477.293.6.59,1.618.729,1.806a2.582,2.582,0,0,0-.047-.432c.068.238-.072.144-.138-.024a1.734,1.734,0,0,1-.166-.609.443.443,0,0,1,.015-.245,2.588,2.588,0,0,1,.154.4c.088-.255-.1-.659-.3-1.1-.23-.434-.524-.892-.721-1.277a3.818,3.818,0,0,1,.336.235c-.171-.25-.383-.475-.57-.711-.051-.189-.025-.359.215,0-.231-.6-.328-.453-.539-.96-.019-.059,0-.041.04,0l-.386-.484c.1.078.054-.162.241.171a5,5,0,0,0-.8-1.1,2.75,2.75,0,0,1-.5-.676l.068.064c-1.027-1.144-.2-.03-1.06-.805l-.259-.8-.2-.018c-.1-.121-.3-.361-.225-.356-.47-.366.027.112-.274-.074a8.859,8.859,0,0,0-.913-1c-.318-.319-.591-.578-.574-.72-.271-.112.469.561-.169.054,0-.332-.7-.624-1.149-1.161.241.05.689.539.244-.007-.453-.124-.975-.944-1.458-1.286-.13.11-1.014-.778-1.826-1.338a5.257,5.257,0,0,0-.752-.689c-.452-.372-1-.818-1.349-1.119l.038-.006c-.24.026-.99-.548-1.566-.922.08-.066.2-.026.532.155l-.525-.378a3.17,3.17,0,0,1-.692-.361l.206-.011c-.716-.48-1.506-.87-2.389-1.54-.116.064.554.755-.464.179,0-.077.022-.191.292-.045a2.576,2.576,0,0,1-.482-.286l.449.168c-.4-.316-.269-.07-.6-.3.056-.071-.214-.218-.127-.246a3.2,3.2,0,0,0,.422.28,6.474,6.474,0,0,1-.922-.758c.006.064-.065.1-.353-.065-.732-.452-.191-.249-.592-.555-.209-.058-.64-.406-.725-.3a.725.725,0,0,1-.286-.29c-.412-.179-1.79-1.06-1.434-.677l.093.067-.065-.032,0,0,0,0c-1.323-.624-2.581-1.588-3.879-2.232l.024-.038c-.777-.38-1.708-.882-2.3-1.09-.225-.12-.493-.356-.372-.352a8.717,8.717,0,0,1-1.507-.761c.627.232-.172-.166.632.258a7.642,7.642,0,0,0-1.766-.882c.333.035-.516-.415-.9-.564l.5.339c-.419-.187-.775-.372-1.136-.561l.265-.04c-1.5-.933-2.992-1.083-4.084-1.909-.467-.094.839.46.409.4-.727-.35-1.406-.9-1.637-1-.98-.522-1.037-.207-2.077-.721.115.109.185.3-.628,0-.736-.332-.829-.59-.34-.437.181.069.261.121.246.135.248.084.571.2.3.018l-.118.008c-.347-.208-1.379-.625-1.1-.608-.585-.185-.275-.017.132.181-.93-.465-1.494-.629-2.469-1.065.147.09.269.207.112.144-1.432-.637-.679-.158-1.674-.524-.531-.3.275-.112-.749-.425-.59-.282-.078-.183.181-.133a13.51,13.51,0,0,1-2.194-.919l.5.139c-.3-.085-.531-.173-.773-.258l.239.2c-.277-.119-.517-.206-.5-.246-.316-.038.162.25-.451.134-.359-.187-1.17-.356-1.252-.539,1.172.472-.083-.184.931.155a5.276,5.276,0,0,1-.715-.259c-.037-.03.05-.013.13.006-1.1-.53-.578-.031-1.761-.441.177-.026-.225-.24-.424-.289.478.164.185.206-.273.116a6.728,6.728,0,0,0-1.239-.37l.447.175a4.457,4.457,0,0,1-1.1-.253c-.026-.075.5.114.315.026-.636-.05-1.288-.58-2.147-.736-.368-.169.008-.157-.319-.3-.961-.178-.973-.42-1.98-.619.253.185.309.174-.411.079q.818.189,1.631.4l-1.076-.158c.486.141,1.042.243,1.327.347-.516-.064-.458-.074-.252.083a21.5,21.5,0,0,0-2.08-.627l.1-.253c-1.124-.455-2.1-.44-3.592-.91l.474.175a11.111,11.111,0,0,1-1.44-.307c.068-.077-.231-.184-.428-.291.009.073-1.109-.286-1.291-.135l-.653-.272c-1.221-.333-1.461-.071-2.641-.346.378-.021-.15-.2.661-.1-.4-.084-.751-.175-.769-.115-.221-.106-1.125-.11-1.475-.258a1.513,1.513,0,0,1-.693,0c-.046-.027.01-.043.01-.043-.01.043-.711-.072-.338.1-1.177-.512-3.439-.556-4.482-.94-.883-.079-1.943-.19-2.745-.254.054-.022.007-.045.157-.021-1.1-.184-.7.184-1.948-.007-.632-.189.674-.034.278-.116-.153-.3-1.522-.08-2.363-.274l.207-.01a21.367,21.367,0,0,0-2.653.032s.051-.026.006-.045c-.727.148-2.1.234-3.112.362.308-.138.459-.094.257-.2-.456.049.146.18-.761.277-.3-.032-.962-.01-1.065-.126l.861-.106a5.408,5.408,0,0,0-1.571.17l.047-.08c-1.316.239-1.3.412-2.689.746l.156.01c-.695.4-.664.067-1.358.458l-.284-.085a14.746,14.746,0,0,0-2.357,1.427,6.814,6.814,0,0,1,.85-.708c.364-.218.745-.464,1.048-.624-.245.087-.639.3-1.005.489a3.743,3.743,0,0,0-.759.548,3.435,3.435,0,0,1,.566-.387c-.476.458-1.165.926-1.86,1.691-.031-.091-.172-.024-.371.15a5.722,5.722,0,0,0-.627.838l-.29.557a4.3,4.3,0,0,0-.223.568c-.062.184-.144.35-.188.5a2.065,2.065,0,0,1-.135.372,10.733,10.733,0,0,0-.02,1.436,11.792,11.792,0,0,0,.217,1.418,10.77,10.77,0,0,0,1.047,2.843c-.051-.4.018-.259.13-.056s.274.469.364.344a4.362,4.362,0,0,1,.355.627c.228.439.44.894.689,1.327.142.333-.328-.341-.345-.275.609.894.169.436.534,1.061,0-.181.328.225.7.716-.15-.25-.3-.5-.436-.758a4.967,4.967,0,0,1,.846,1.12,3.663,3.663,0,0,0,.9,1.089l-.386-.3a15.921,15.921,0,0,0,2.678,2.439c.076.118.154.3-.105.078,1.314,1.307,3.207,2.565,4.245,3.548l-.151-.034a3.763,3.763,0,0,1,.84.593c-.035.009-.15-.032-.028.07a7.844,7.844,0,0,1,1.137.761l-.356-.173a11.578,11.578,0,0,0,1.838,1.275c.563.333,1.113.619,1.746,1.021-.119.165,1.006,1.019,1.581,1.425l-.036.01a50.584,50.584,0,0,0,4.767,2.693,17.735,17.735,0,0,0,2.277,1.489c.963.542,2,1.136,2.826,1.635-.243-.171.116-.116.428.027.379.248,1.166.462,1.017.592l-.14-.079a6.173,6.173,0,0,0,1.709,1.034l.215-.161a15.406,15.406,0,0,0,2.928,1.568,11.051,11.051,0,0,1,2.387,1.211c.441.134.958.366,1.4.5l-.075.108c1.139.556,1.716.817,3.166,1.409l-.33-.041c.807.361,1.171.095,1.925.4l.152.272a33.3,33.3,0,0,0,4.294,1.7c-.033.018-.1.054-.332-.026.677.26,2.581,1.111,2.426.769-.044.171,1.49.553,2.3.762l-.164.077a6.787,6.787,0,0,1,1.693.318c.214.09.16.162-.122.032.711.312.609.08,1.475.446l-.356-.035a2.961,2.961,0,0,0,1.152.242,4.358,4.358,0,0,1,1.5.64,2.275,2.275,0,0,1,1.007.171c.048.06-.124.036-.21.024,1.248.471,1.934.437,2.78.8.006.046.058.083.128.116-1.018-.289-1.83-.545-1.751-.532-.034.112.779.381.081.338a17.134,17.134,0,0,1,2.651.531.466.466,0,0,1,.095.069l-.086-.011a2.485,2.485,0,0,0,.513.122c.252.087.411.145.658.212a6.08,6.08,0,0,0,1.345.419c0-.132.534.025.054-.207.063.026-.082-.006-.357-.074-.063-.013-.136-.031-.179-.034l.031,0-1.025-.265a3.164,3.164,0,0,1,1.132.252c.233-.024.485-.042.627-.048.52.314,1.588.679,1.714.824a20.366,20.366,0,0,0,3.852.573.933.933,0,0,1,.53.22,5.758,5.758,0,0,0-.582-.065,10.5,10.5,0,0,0,2.359.273c.9.247-.543.056.721.265l-.179.019c2.445.7,4.1.262,6.835.912a.887.887,0,0,1-.322-.095,36.583,36.583,0,0,0,4.857.378c1.638.046,3.269.016,4.853.036a3.965,3.965,0,0,0,1.525-.273l.209.115c.3-.093.609-.166.909-.276a14.137,14.137,0,0,1,1.847-.246,5.6,5.6,0,0,0,2.063-.565l-.235-.01c.286-.1.735-.277,1.1-.429.354-.173.632-.3.611-.228a.786.786,0,0,1,.37-.24l.051.053a9.134,9.134,0,0,0,1.18-.946c.478-.334.471-.282.538-.241.031.016.072.02.185-.06a2.927,2.927,0,0,0,.588-.583c.434-.536.747-1.735.6-1.519-.119.231-.336.571-.407.552l.223-.528c-.072-.087-.119-.248-.232-.239s-.29.181-.656.689l-.2.395a1.964,1.964,0,0,1-.232.388l-.277.137a3.439,3.439,0,0,0,.483-.566,1.833,1.833,0,0,0-.2.208,1.538,1.538,0,0,0-.17.183c-.1.124-.171.252-.256.383a1.242,1.242,0,0,0-.36.159,5.856,5.856,0,0,1-.6.691c-.137-.014.251-.348-.284-.074-.311.3.446-.055-.124.368-.43.144-.361-.009-.791.3-.089-.018,0-.1.17-.208a4.564,4.564,0,0,1-.72.387,2.193,2.193,0,0,0-.582.315c-.474.053-1.516.5-1.522.284a6.3,6.3,0,0,1-1.2.436c.741-.371-1.614.26-1.445-.046a4.943,4.943,0,0,1-1.392.3c-.591.046-1.235.113-1.76.18a.731.731,0,0,1,.265-.049,9.43,9.43,0,0,1-1.147-.09c-.071.191-1,.229-1.5.335-.726-.177.445-.208.217-.375.036.15-1.264.133-1.02.252-.554-.128-.479-.07-.76-.229-.107.217-.519.025-.987.132-.8-.164-.194-.224-1.083-.215C928.628,397.352,929.418,397.325,929.418,397.325Zm-20.807-3.478v0l.423.113Zm-1.713-.488.742.217c.048.06-.03.085-.2.034C907.539,393.609,907.143,393.469,906.9,393.359Zm3.4,1.872c-.279-.056-.364-.1-.395-.14l.483.113.036-.007A.279.279,0,0,1,910.3,395.232Z" transform="translate(-847.402 -347.146)" fill="#fff"/>
            <path id="패스_42" data-name="패스 42" d="M1017.116,475.82c.04.007.063.008.115.021l-.156-.072-.107.013Z" transform="translate(-953.684 -427.766)" fill="#fff"/>
            <path id="패스_43" data-name="패스 43" d="M1055.952,401.742l-.031-.022a.4.4,0,0,1,.059.057A.264.264,0,0,1,1055.952,401.742Z" transform="translate(-978.1 -381.353)" fill="#fff"/>
            <path id="패스_44" data-name="패스 44" d="M945.464,447.105l-.011.031.153.04Z" transform="translate(-908.859 -409.8)" fill="#fff"/>
            <path id="패스_45" data-name="패스 45" d="M1077.413,417.147a.372.372,0,0,0,.085.1A.462.462,0,0,0,1077.413,417.147Z" transform="translate(-991.57 -391.022)" fill="#fff"/>
            <path id="패스_46" data-name="패스 46" d="M1086.4,424.071l.439.409C1086.65,424.3,1086.51,424.171,1086.4,424.071Z" transform="translate(-997.201 -395.362)" fill="#fff"/>
            <path id="패스_47" data-name="패스 47" d="M1092.941,429.81a.152.152,0,0,0,.084,0l0,0Z" transform="translate(-1001.303 -398.957)" fill="#fff"/>
            <path id="패스_48" data-name="패스 48" d="M970.518,365.491l-.121-.033C970.108,365.392,970.3,365.444,970.518,365.491Z" transform="translate(-924.402 -358.604)" fill="#fff"/>
            <path id="패스_49" data-name="패스 49" d="M1009.042,379.324c-.16-.043-.317-.087-.48-.141C1008.81,379.3,1009.005,379.388,1009.042,379.324Z" transform="translate(-948.415 -367.227)" fill="#fff"/>
            <path id="패스_50" data-name="패스 50" d="M926.212,354.2l0,0-.1-.019Z" transform="translate(-896.735 -351.552)" fill="#fff"/>
            <path id="패스_51" data-name="패스 51" d="M1006.8,378.415a3.967,3.967,0,0,0,.658.287A6.051,6.051,0,0,0,1006.8,378.415Z" transform="translate(-947.311 -366.745)" fill="#fff"/>
            <path id="패스_52" data-name="패스 52" d="M1114.766,459.462l.032.147c.007,0,.016,0,.025.013Z" transform="translate(-1014.983 -417.545)" fill="#fff"/>
            <path id="패스_53" data-name="패스 53" d="M1114.919,459.89l.057.159A.481.481,0,0,0,1114.919,459.89Z" transform="translate(-1015.079 -417.813)" fill="#fff"/>
            <path id="패스_54" data-name="패스 54" d="M1115.158,460.657c-.03-.114-.045-.229-.086-.341A1.365,1.365,0,0,0,1115.158,460.657Z" transform="translate(-1015.175 -418.08)" fill="#fff"/>
            <path id="패스_55" data-name="패스 55" d="M1110.171,449.166l-.066-.016A.07.07,0,0,0,1110.171,449.166Z" transform="translate(-1012.061 -411.081)" fill="#fff"/>
            <path id="패스_56" data-name="패스 56" d="M1108.309,446.345c.186.249.353.695.617,1.033l.053.013C1108.805,447.266,1108.563,446.528,1108.309,446.345Z" transform="translate(-1010.936 -409.323)" fill="#fff"/>
            <path id="패스_57" data-name="패스 57" d="M1099.9,434.271l.746.818c-.1-.173-.229-.4.132-.049C1099.906,433.936,1100.9,435.323,1099.9,434.271Z" transform="translate(-1005.664 -401.755)" fill="#fff"/>
            <path id="패스_58" data-name="패스 58" d="M1092.99,427.467c.458.379.043-.059.084-.059C1092.762,427.19,1092.687,427.138,1092.99,427.467Z" transform="translate(-1001.213 -397.344)" fill="#fff"/>
            <path id="패스_59" data-name="패스 59" d="M1037.917,391.253l.107-.077C1037.609,390.984,1038,391.215,1037.917,391.253Z" transform="translate(-966.76 -374.697)" fill="#fff"/>
            <path id="패스_60" data-name="패스 60" d="M1026.041,387.3l.366.26.236,0Z" transform="translate(-959.371 -372.316)" fill="#fff"/>
            <path id="패스_61" data-name="패스 61" d="M1019.361,381.742l.188.07-.711-.28Z" transform="translate(-954.856 -368.699)" fill="#fff"/>
            <path id="패스_62" data-name="패스 62" d="M914.221,349.1l.116.162C914.647,349.277,914.736,349.126,914.221,349.1Z" transform="translate(-889.283 -348.368)" fill="#fff"/>
            <path id="패스_63" data-name="패스 63" d="M864.5,349.706a2.388,2.388,0,0,0-1,.245C863.893,349.844,864.3,349.782,864.5,349.706Z" transform="translate(-857.489 -348.75)" fill="#fff"/>
            <path id="패스_64" data-name="패스 64" d="M932.108,444.189l-.344-.12.627.267Z" transform="translate(-900.279 -407.897)" fill="#fff"/>
          </g>
          <g id="그룹_12" data-name="그룹 12" transform="translate(23.68 27.159)">
            <path id="패스_65" data-name="패스 65" d="M843.967,403.509c.387,2.94,3.181,2.96,7.017-.227l.831.55a21.528,21.528,0,0,1-11.868,8.227c-5.13,1.127-5.342-1.7-5.841-5.738L831.553,384.8c-.389-2.647-2.334-2.661-4.56-2.172l-.205-1.516c7.082-1.7,9.76-3.868,12.6-4.492,1.112-.245,1.554.292,1.616.866Z" transform="translate(-826.788 -376.562)" fill="#fff"/>
          </g>
          <path id="패스_66" data-name="패스 66" d="M882.63,413.986c-.5-3.836.687-5.94,3.785-7.506a34.216,34.216,0,0,1,9.546-2.709l-.153-1.18a40.546,40.546,0,0,0-12.229,3.734l-1-7.673c2.954-1.81,6.625-3,11.786-3.673,7.633-1,11.033,1.188,12.023,8.786l1.7,13.093-9.224,1.2-.16-1.256a13.653,13.653,0,0,0-3.07-7.137l-1.052.546c1.441,1.276,2.673,4.68,3.025,7.373a21.5,21.5,0,0,1-7.3,2.15C885.78,420.327,883.148,417.967,882.63,413.986Z" transform="translate(-838.04 -360.805)" fill="#fff"/>
        </g>
      </g>
    </g>
  </g>
</svg>
