<svg xmlns="http://www.w3.org/2000/svg" width="58.584" height="60.31" viewBox="0 0 58.584 60.31">
  <g id="그룹_19" data-name="그룹 19" transform="translate(-200.133 -38.69)">
    <g id="그룹_18" data-name="그룹 18">
      <path id="패스_67" data-name="패스 67" d="M200.133,68.845a66.289,66.289,0,0,1,14.646-3.574,108.537,108.537,0,0,1,14.646-.985,106.6,106.6,0,0,1,14.646.973,65.5,65.5,0,0,1,14.646,3.586,65.391,65.391,0,0,1-14.646,3.586,106.6,106.6,0,0,1-14.646.974,108.7,108.7,0,0,1-14.646-.986A66.234,66.234,0,0,1,200.133,68.845Z" fill="#fff"/>
      <path id="패스_68" data-name="패스 68" d="M229.425,38.69a68,68,0,0,1,3.692,15.078,111.338,111.338,0,0,1,1.018,15.077,109.422,109.422,0,0,1-1,15.078A67.22,67.22,0,0,1,229.425,99a67.165,67.165,0,0,1-3.705-15.077,109.269,109.269,0,0,1-1.006-15.078,111.338,111.338,0,0,1,1.018-15.077A68.054,68.054,0,0,1,229.425,38.69Z" fill="#fff"/>
      <path id="패스_69" data-name="패스 69" d="M215.04,54.922a34.751,34.751,0,0,1,9.8,4.434,50.943,50.943,0,0,1,7.913,6.265,49.027,49.027,0,0,1,6.481,7.65,32.278,32.278,0,0,1,4.573,9.5A34.387,34.387,0,0,1,234,78.343a50.869,50.869,0,0,1-14.376-13.932A32.662,32.662,0,0,1,215.04,54.922Z" fill="#fff"/>
      <path id="패스_70" data-name="패스 70" d="M244.725,54.036a36.257,36.257,0,0,1-5.039,9.932A57.463,57.463,0,0,1,224.4,78.786a38.051,38.051,0,0,1-10.27,4.868,35.818,35.818,0,0,1,5.03-9.94,55.337,55.337,0,0,1,6.939-8.093,57.493,57.493,0,0,1,8.37-6.708A38.469,38.469,0,0,1,244.725,54.036Z" fill="#fff"/>
    </g>
  </g>
</svg>
