<svg xmlns="http://www.w3.org/2000/svg" xmlns:xlink="http://www.w3.org/1999/xlink" width="815.854" height="300.486" viewBox="0 0 815.854 300.486">
  <defs>
    <linearGradient id="linear-gradient" x1="57.805" y1="40.048" x2="57.805" y2="39.043" gradientUnits="objectBoundingBox">
      <stop offset="0" stop-color="#fff"/>
      <stop offset="1" stop-color="#fcee82"/>
    </linearGradient>
    <linearGradient id="linear-gradient-2" x1="28.597" y1="11.098" x2="28.597" y2="10.099" xlink:href="#linear-gradient"/>
    <linearGradient id="linear-gradient-3" x1="55.383" y1="181.89" x2="55.383" y2="180.947" xlink:href="#linear-gradient"/>
    <linearGradient id="linear-gradient-4" x1="40.721" y1="336.574" x2="40.721" y2="335.697" xlink:href="#linear-gradient"/>
    <linearGradient id="linear-gradient-5" x1="48.981" y1="276.011" x2="48.981" y2="275.1" xlink:href="#linear-gradient"/>
    <linearGradient id="linear-gradient-6" x1="21.329" y1="72.621" x2="21.329" y2="71.68" xlink:href="#linear-gradient"/>
    <linearGradient id="linear-gradient-7" x1="62.732" y1="91.193" x2="62.732" y2="90.222" xlink:href="#linear-gradient"/>
    <linearGradient id="linear-gradient-8" x1="34.896" y1="173.212" x2="34.896" y2="172.303" xlink:href="#linear-gradient"/>
    <linearGradient id="linear-gradient-9" x1="30.219" y1="126.306" x2="30.219" y2="125.341" xlink:href="#linear-gradient"/>
    <linearGradient id="linear-gradient-10" x1="83.869" y1="141.451" x2="83.869" y2="140.484" xlink:href="#linear-gradient"/>
    <linearGradient id="linear-gradient-11" x1="303.896" y1="311.057" x2="303.896" y2="310.079" xlink:href="#linear-gradient"/>
    <linearGradient id="linear-gradient-12" x1="300.002" y1="848.429" x2="300.002" y2="847.396" xlink:href="#linear-gradient"/>
    <linearGradient id="linear-gradient-13" x1="193.936" y1="142.718" x2="193.936" y2="141.72" xlink:href="#linear-gradient"/>
    <linearGradient id="linear-gradient-14" x1="78.286" y1="699.458" x2="78.286" y2="698.597" xlink:href="#linear-gradient"/>
    <linearGradient id="linear-gradient-15" x1="19.058" y1="45.301" x2="19.058" y2="44.335" xlink:href="#linear-gradient"/>
    <linearGradient id="linear-gradient-16" x1="74.892" y1="91.091" x2="74.892" y2="90.115" xlink:href="#linear-gradient"/>
    <linearGradient id="linear-gradient-17" x1="209.877" y1="267.921" x2="209.877" y2="266.941" xlink:href="#linear-gradient"/>
    <linearGradient id="linear-gradient-18" x1="67.242" y1="269.428" x2="67.242" y2="268.489" xlink:href="#linear-gradient"/>
    <linearGradient id="linear-gradient-19" x1="35.935" y1="240.311" x2="35.935" y2="239.414" xlink:href="#linear-gradient"/>
    <linearGradient id="linear-gradient-20" x1="23.038" y1="290.986" x2="23.038" y2="290.177" xlink:href="#linear-gradient"/>
    <linearGradient id="linear-gradient-21" x1="30.555" y1="404.8" x2="30.555" y2="403.997" xlink:href="#linear-gradient"/>
    <linearGradient id="linear-gradient-22" x1="21.284" y1="150.157" x2="21.284" y2="149.225" xlink:href="#linear-gradient"/>
    <linearGradient id="linear-gradient-23" x1="75.608" y1="130.988" x2="75.608" y2="130.017" xlink:href="#linear-gradient"/>
    <linearGradient id="linear-gradient-24" x1="10.175" y1="128.55" x2="10.175" y2="127.746" xlink:href="#linear-gradient"/>
    <linearGradient id="linear-gradient-25" x1="51.173" y1="312.698" x2="51.173" y2="311.801" xlink:href="#linear-gradient"/>
    <linearGradient id="linear-gradient-26" x1="14.756" y1="153.298" x2="14.756" y2="152.426" xlink:href="#linear-gradient"/>
    <linearGradient id="linear-gradient-27" x1="7229.458" y1="12249.009" x2="7229.458" y2="12248.187" xlink:href="#linear-gradient"/>
    <linearGradient id="linear-gradient-28" x1="0.599" y1="1.439" x2="0.599" y2="0.493" xlink:href="#linear-gradient"/>
    <linearGradient id="linear-gradient-29" x1="41.577" y1="327.248" x2="41.577" y2="326.338" xlink:href="#linear-gradient"/>
    <linearGradient id="linear-gradient-30" x1="165.594" y1="403.191" x2="165.594" y2="402.236" xlink:href="#linear-gradient"/>
    <linearGradient id="linear-gradient-31" x1="68.612" y1="345.737" x2="68.612" y2="344.819" xlink:href="#linear-gradient"/>
    <linearGradient id="linear-gradient-32" x1="116.838" y1="221.68" x2="116.838" y2="220.714" xlink:href="#linear-gradient"/>
    <linearGradient id="linear-gradient-33" x1="23.304" y1="55.648" x2="23.304" y2="54.693" xlink:href="#linear-gradient"/>
    <linearGradient id="linear-gradient-34" x1="120.621" y1="2246.233" x2="120.621" y2="2245.083" xlink:href="#linear-gradient"/>
    <linearGradient id="linear-gradient-35" x1="34.784" y1="374.005" x2="34.784" y2="373.173" xlink:href="#linear-gradient"/>
    <linearGradient id="linear-gradient-36" x1="19.991" y1="145.803" x2="19.991" y2="144.911" xlink:href="#linear-gradient"/>
    <linearGradient id="linear-gradient-37" x1="86.852" y1="1166.516" x2="86.852" y2="1165.703" xlink:href="#linear-gradient"/>
    <linearGradient id="linear-gradient-38" x1="14.701" y1="83.141" x2="14.701" y2="82.235" xlink:href="#linear-gradient"/>
    <linearGradient id="linear-gradient-39" x1="184.99" y1="138.145" x2="184.99" y2="137.161" xlink:href="#linear-gradient"/>
    <linearGradient id="linear-gradient-40" x1="184.955" y1="138.778" x2="184.955" y2="137.794" xlink:href="#linear-gradient"/>
    <linearGradient id="linear-gradient-41" x1="123.392" y1="65.275" x2="123.392" y2="64.286" xlink:href="#linear-gradient"/>
    <linearGradient id="linear-gradient-42" x1="157.539" y1="1172.115" x2="157.539" y2="1171.216" xlink:href="#linear-gradient"/>
    <linearGradient id="linear-gradient-43" x1="15.945" y1="22" x2="15.945" y2="21.026" xlink:href="#linear-gradient"/>
    <linearGradient id="linear-gradient-44" x1="12.086" y1="28.041" x2="12.086" y2="27.079" xlink:href="#linear-gradient"/>
    <linearGradient id="linear-gradient-45" x1="25.073" y1="58.149" x2="25.073" y2="57.192" xlink:href="#linear-gradient"/>
    <linearGradient id="linear-gradient-46" x1="49.357" y1="152.176" x2="49.357" y2="151.199" xlink:href="#linear-gradient"/>
    <linearGradient id="linear-gradient-47" x1="16.227" y1="90.373" x2="16.227" y2="89.431" xlink:href="#linear-gradient"/>
    <linearGradient id="linear-gradient-48" x1="13.694" y1="84.518" x2="13.694" y2="83.622" xlink:href="#linear-gradient"/>
    <linearGradient id="linear-gradient-49" x1="24.773" y1="153.415" x2="24.773" y2="152.453" xlink:href="#linear-gradient"/>
    <linearGradient id="linear-gradient-50" x1="9.445" y1="105.621" x2="9.445" y2="104.461" xlink:href="#linear-gradient"/>
    <linearGradient id="linear-gradient-51" x1="17.013" y1="93.264" x2="17.013" y2="92.36" xlink:href="#linear-gradient"/>
  </defs>
  <g id="그룹_44" data-name="그룹 44" transform="translate(-678.756 -303.79)">
    <g id="그룹_4" data-name="그룹 4" transform="translate(678.756 349.621)">
      <path id="패스_1" data-name="패스 1" d="M678.756,417.824c20.277-7.159,40.4-10.483,60.471-12.658a430.157,430.157,0,0,1,60.025-1.729,422.425,422.425,0,0,1,59.69,6.541c19.832,3.783,39.615,8.744,59.241,17.575-20.277,7.21-40.4,10.55-60.472,12.71a422.4,422.4,0,0,1-60.024,1.678A430.148,430.148,0,0,1,738,435.348C718.169,431.552,698.385,426.6,678.756,417.824Z" transform="translate(-678.756 -295.362)" fill="#eb674d"/>
      <path id="패스_2" data-name="패스 2" d="M768.3,333.426c7.108,21.545,10.381,42.934,12.5,64.277a486.13,486.13,0,0,1,1.574,63.833,477.381,477.381,0,0,1-6.7,63.5c-3.834,21.1-8.847,42.153-17.73,63.049-7.159-21.547-10.446-42.937-12.556-64.28a477.406,477.406,0,0,1-1.522-63.831,486.141,486.141,0,0,1,6.749-63.494C754.47,375.377,759.468,354.323,768.3,333.426Z" transform="translate(-643.412 -333.426)" fill="#eb674d"/>
      <path id="패스_3" data-name="패스 3" d="M719.7,376.2c15.265,4.791,27.709,12.181,39.306,20.353a209.407,209.407,0,0,1,31.263,27.768A205.594,205.594,0,0,1,815.443,457.7c7.214,12.212,13.559,25.224,17.059,40.863-15.3-4.757-27.757-12.138-39.345-20.319a205.745,205.745,0,0,1-31.226-27.8,209.42,209.42,0,0,1-25.139-33.414C729.589,404.805,723.231,391.8,719.7,376.2Z" transform="translate(-656.384 -310.053)" fill="#eb674d"/>
      <path id="패스_4" data-name="패스 4" d="M844.235,376.969c-5.439,15.864-13.479,28.9-22.3,41.1a236.426,236.426,0,0,1-29.712,33.057A232.284,232.284,0,0,1,756.9,478.1c-12.862,7.811-26.523,14.755-42.809,18.851,5.4-15.9,13.434-28.953,22.263-41.137a232.208,232.208,0,0,1,29.749-33.02,236.424,236.424,0,0,1,35.36-26.931C814.331,388.057,827.983,381.1,844.235,376.969Z" transform="translate(-659.448 -309.632)" fill="#eb674d"/>
    </g>
    <g id="그룹_15" data-name="그룹 15" transform="translate(809.558 303.79)">
      <g id="그룹_14" data-name="그룹 14">
        <g id="그룹_13" data-name="그룹 13">
          <g id="그룹_10" data-name="그룹 10">
            <g id="그룹_5" data-name="그룹 5" transform="translate(581.213)">
              <path id="패스_5" data-name="패스 5" d="M1139.175,326.65a71.41,71.41,0,0,1,16.378-3.429,116.484,116.484,0,0,1,16.259-.469,114.153,114.153,0,0,1,16.167,1.772,70.573,70.573,0,0,1,16.046,4.76,70.558,70.558,0,0,1-16.38,3.442,114.582,114.582,0,0,1-16.258.455,116.442,116.442,0,0,1-16.165-1.786A71.467,71.467,0,0,1,1139.175,326.65Z" transform="translate(-1139.175 -293.48)" fill="#3ea548"/>
              <path id="패스_6" data-name="패스 6" d="M1163.429,303.79a80,80,0,0,1,3.387,17.41,131.622,131.622,0,0,1,.425,17.289,129.22,129.22,0,0,1-1.812,17.2,79.047,79.047,0,0,1-4.8,17.077,79.143,79.143,0,0,1-3.4-17.411,129.207,129.207,0,0,1-.411-17.288,131.4,131.4,0,0,1,1.828-17.2A79.891,79.891,0,0,1,1163.429,303.79Z" transform="translate(-1129.602 -303.79)" fill="#3ea548"/>
              <path id="패스_7" data-name="패스 7" d="M1150.264,315.375a37.945,37.945,0,0,1,10.646,5.513,56.705,56.705,0,0,1,8.469,7.52,55.716,55.716,0,0,1,6.818,9.041,37.482,37.482,0,0,1,4.621,11.068,37.5,37.5,0,0,1-10.656-5.5,55.725,55.725,0,0,1-8.458-7.531,56.719,56.719,0,0,1-6.809-9.05A37.949,37.949,0,0,1,1150.264,315.375Z" transform="translate(-1133.115 -297.459)" fill="#3ea548"/>
              <path id="패스_8" data-name="패스 8" d="M1184,315.584a42.04,42.04,0,0,1-6.04,11.131,64.035,64.035,0,0,1-8.048,8.954,62.944,62.944,0,0,1-9.568,7.305,41.547,41.547,0,0,1-11.6,5.106,41.526,41.526,0,0,1,6.031-11.142,62.836,62.836,0,0,1,8.057-8.943,64.04,64.04,0,0,1,9.577-7.3A42.03,42.03,0,0,1,1184,315.584Z" transform="translate(-1133.946 -297.345)" fill="#3ea548"/>
            </g>
            <g id="그룹_6" data-name="그룹 6" transform="translate(467.985 66.795)">
              <path id="패스_9" data-name="패스 9" d="M1187.74,347.724q12.658,2.788,18.959,15.242,12.561,24.916-18.166,58.742-30.745,33.835-63.7,52.494,7.226,21.51,18.916,24.1,11.661,2.614,26.048-4.656,9.337-4.7,25.127-20.821a247.327,247.327,0,0,0,27.216-32.746q5.7-8.3,12.811-4.075,7.08,4.238,2.19,14.176-8.377,17.358-25.445,35.369a135.433,135.433,0,0,1-37.2,28.15q-24.442,12.327-43.6,8.294-19.165-4.018-31.331-33.519-11.51,5.808-21.135,2.784c-6.418-2-10.378-4.469-11.841-7.373q-3.025-6.01,8.343-7.632t18.981-6.144q-2.484-37.108,14.53-68.627t51.522-48.925Q1175.061,344.95,1187.74,347.724Zm-56.549,57.723q-17.678,24.879-15.089,51.43,23.169-13.048,46.905-39.283t16.912-39.772q-2.728-5.409-7.918-5.858c-3.461-.3-7.573.761-12.367,3.18Q1148.865,380.572,1131.191,405.447Z" transform="translate(-1065.957 -346.983)" fill="#3ea548"/>
            </g>
            <path id="패스_10" data-name="패스 10" d="M987.555,393.4l6.051,4.655c9.655-7.007,18.921-11.012,29.315-12.367,16.2-2.116,31.036,8.074,33.723,28.711l8.32,63.873-48.9,6.374-7.01-53.792-5.369,2.873,6.727,51.645L961.5,491.751l-12.152-93.37Z" transform="translate(-661.693 -259.185)" fill="#fff"/>
            <g id="그룹_7" data-name="그룹 7" transform="translate(593.315 115.532)">
              <path id="패스_11" data-name="패스 11" d="M1220.167,470.9a147.907,147.907,0,0,1-24.336-15.511l-1.943,4.016a153.255,153.255,0,0,0,24.4,15.392L1197.9,516.973a98.374,98.374,0,0,1-25.27-8.631c-22.057-10.646-31.643-30.844-21.715-51.39l9.384-19.42-5.819-2.819,16.827-34.825,4.851,2.338,11.461-23.729,47.19,22.8-11.473,23.729,15.4,7.455Z" transform="translate(-1147.001 -378.498)" fill="#fff"/>
            </g>
            <g id="그룹_8" data-name="그룹 8" transform="translate(398.969 97.556)">
              <path id="패스_12" data-name="패스 12" d="M1101.439,432.85a147.877,147.877,0,0,1-28.852.654l.621,4.418a153.055,153.055,0,0,0,28.838-.79l6.532,46.392a98.35,98.35,0,0,1-25.8,6.891c-24.25,3.429-43.454-8.02-46.639-30.615l-3.009-21.358-6.405.9-5.4-38.3,5.331-.758-3.681-26.092,51.894-7.318,3.671,26.1,16.949-2.377Z" transform="translate(-1021.328 -366.874)" fill="#fff"/>
            </g>
            <g id="그룹_9" data-name="그룹 9" transform="translate(0 144.467)">
              <path id="패스_13" data-name="패스 13" d="M877.777,439.763c4.217,32.4-13.289,51.934-49.89,54.826l2.991,22.922-51.97,6.77-15.57-119.5,46.916-6.115C853.963,392.972,873.039,403.39,877.777,439.763Zm-31.538,10.793-.551-4.281c-11.467,1.489-29.635.445-37.715-3.167l-2.258,4.172C814.982,451.669,834.772,452.045,846.239,450.555Z" transform="translate(-763.338 -397.209)" fill="#fff"/>
            </g>
          </g>
          <g id="그룹_11" data-name="그룹 11" transform="translate(130.001 67.049)">
            <path id="패스_14" data-name="패스 14" d="M1114.653,470.156c-.048.538.45.405.769-.926l-.314-1.1Z" transform="translate(-701.364 -281.037)" fill="url(#linear-gradient)"/>
            <path id="패스_15" data-name="패스 15" d="M1116.92,464.654c-.206-1.675-1.186-3.433-1.56-2.341.872,1.516.442,1.9,1.217,3.645a3.5,3.5,0,0,1-.2,1.692c-.147.39-.3.567-.4.441.049.5-.354,2.086-.246,2.869a9.648,9.648,0,0,0,.769-6.4C1116.639,464.041,1116.8,464.535,1116.92,464.654Z" transform="translate(-700.976 -284.399)" fill="url(#linear-gradient-2)"/>
            <path id="패스_16" data-name="패스 16" d="M1055.449,401.382l.73.523A6.28,6.28,0,0,0,1055.449,401.382Z" transform="translate(-733.715 -317.509)" fill="url(#linear-gradient-3)"/>
            <path id="패스_17" data-name="패스 17" d="M1005.8,376.407c.611.237.889.285.942.244C1006.16,376.457,1005.684,376.3,1005.8,376.407Z" transform="translate(-760.856 -331.176)" fill="url(#linear-gradient-4)"/>
            <path id="패스_18" data-name="패스 18" d="M997.16,372.395l.79.357A2.531,2.531,0,0,0,997.16,372.395Z" transform="translate(-765.567 -333.349)" fill="url(#linear-gradient-5)"/>
            <path id="패스_19" data-name="패스 19" d="M1056.128,401.849l-1.89-1.321C1054,400.624,1055.182,401.249,1056.128,401.849Z" transform="translate(-734.394 -317.976)" fill="url(#linear-gradient-6)"/>
            <path id="패스_20" data-name="패스 20" d="M1112.047,452.45c.272.39.47.722.694,1.008-.192-.333-.353-.667-.571-.99A.471.471,0,0,1,1112.047,452.45Z" transform="translate(-702.786 -289.603)" fill="url(#linear-gradient-7)"/>
            <path id="패스_21" data-name="패스 21" d="M1076.261,414.384l.569.408a3.953,3.953,0,0,0,.619.133Z" transform="translate(-722.342 -310.405)" fill="url(#linear-gradient-8)"/>
            <path id="패스_22" data-name="패스 22" d="M1091.718,425.946c-.49-.444-1.01-.186-1.353-.17a3.314,3.314,0,0,1,1.336.648C1091.774,426.355,1091.786,426.206,1091.718,425.946Z" transform="translate(-714.635 -304.228)" fill="url(#linear-gradient-9)"/>
            <path id="패스_23" data-name="패스 23" d="M1111.116,448.152l.515.648Z" transform="translate(-703.295 -291.952)" fill="url(#linear-gradient-10)"/>
            <path id="패스_24" data-name="패스 24" d="M1065.134,406.93a.533.533,0,0,0-.122-.3C1064.976,406.684,1065.031,406.793,1065.134,406.93Z" transform="translate(-728.495 -314.643)" fill="url(#linear-gradient-11)"/>
            <path id="패스_25" data-name="패스 25" d="M1097.787,480.186c-.014.042.023.059.025.091C1097.959,480.189,1098,480.141,1097.787,480.186Z" transform="translate(-710.581 -274.456)" fill="url(#linear-gradient-12)"/>
            <path id="패스_26" data-name="패스 26" d="M1115.556,469.778l-.184.431a.665.665,0,0,0,.229.209Z" transform="translate(-700.97 -280.134)" fill="url(#linear-gradient-13)"/>
            <path id="패스_27" data-name="패스 27" d="M981.017,365.863l.11.049C981.813,366.095,981.433,365.97,981.017,365.863Z" transform="translate(-774.388 -336.919)" fill="url(#linear-gradient-14)"/>
            <path id="패스_28" data-name="패스 28" d="M852.516,384.013c-.493-1.382.172-.41.855.311s1.246,1.3.3-.616C853.675,384.194,851.021,380.744,852.516,384.013Z" transform="translate(-844.857 -327.779)" fill="url(#linear-gradient-15)"/>
            <path id="패스_29" data-name="패스 29" d="M1112.056,452.372c-.192-.333-.385-.671-.58-1.01A10.993,10.993,0,0,0,1112.056,452.372Z" transform="translate(-703.099 -290.198)" fill="url(#linear-gradient-16)"/>
            <path id="패스_30" data-name="패스 30" d="M853.168,383.455l0,0c-.067-.13-.131-.261-.187-.4A4.145,4.145,0,0,0,853.168,383.455Z" transform="translate(-844.352 -327.525)" fill="url(#linear-gradient-17)"/>
            <path id="패스_31" data-name="패스 31" d="M942.532,354.507a2.157,2.157,0,0,0,.558.379C943.083,354.829,942.961,354.73,942.532,354.507Z" transform="translate(-795.418 -343.124)" fill="url(#linear-gradient-18)"/>
            <path id="패스_32" data-name="패스 32" d="M971.488,363.373l-1.066-.418C970.838,363.139,971.183,363.267,971.488,363.373Z" transform="translate(-780.178 -338.508)" fill="url(#linear-gradient-19)"/>
            <path id="패스_33" data-name="패스 33" d="M927.853,351.753a7.873,7.873,0,0,0-1.646-.354,1.7,1.7,0,0,0,.241.111A4,4,0,0,1,927.853,351.753Z" transform="translate(-804.339 -344.823)" fill="url(#linear-gradient-20)"/>
            <path id="패스_34" data-name="패스 34" d="M911.332,348.988c.125.059.3.114.442.172l.787.085Z" transform="translate(-812.467 -346.14)" fill="url(#linear-gradient-21)"/>
            <path id="패스_35" data-name="패스 35" d="M1049.764,480.165a4.264,4.264,0,0,1,1.061.636C1050.5,480.372,1054.12,480.757,1049.764,480.165Z" transform="translate(-736.821 -274.458)" fill="url(#linear-gradient-22)"/>
            <path id="패스_36" data-name="패스 36" d="M1112.412,452.538a1.161,1.161,0,0,1-.561-.523l.427.691C1112.383,452.731,1112.457,452.709,1112.412,452.538Z" transform="translate(-702.894 -289.841)" fill="url(#linear-gradient-23)"/>
            <path id="패스_37" data-name="패스 37" d="M927.47,354.46l-3.849-.806C924.691,353.909,926.091,354.2,927.47,354.46Z" transform="translate(-805.752 -343.59)" fill="url(#linear-gradient-24)"/>
            <path id="패스_38" data-name="패스 38" d="M940.6,445l.848.326A3.367,3.367,0,0,0,940.6,445Z" transform="translate(-796.471 -293.674)" fill="url(#linear-gradient-25)"/>
            <path id="패스_39" data-name="패스 39" d="M917.1,352.669a13.133,13.133,0,0,0-2.134-.679,2.158,2.158,0,0,0-.472.071Z" transform="translate(-810.74 -344.5)" fill="url(#linear-gradient-26)"/>
            <path id="패스_40" data-name="패스 40" d="M1050.456,480.584l-.006-.008Z" transform="translate(-736.446 -274.234)" fill="url(#linear-gradient-27)"/>
            <path id="패스_41" data-name="패스 41" d="M1187.247,555.069c-3.718-.266-1.8.566-2.618.912-4.471-.161-2.018-.691-3.5-1.177-2.785-.094-4.986.4-7.049.1-.142-.133-.54-.223-.052-.309-3,.223-8.694-1.021-12.2-.863a1.218,1.218,0,0,1-.421-.237c.5.427.535.792.385,1.025-1.669-.234-3.167.006-3.721-.564a3.115,3.115,0,0,0,1.632-.068l-1.775-.073c-1.468-.9,2.416.158,2.491-.346a83.531,83.531,0,0,1-10.049-1.056c-.432-.725,6.118.8,2.745-.343l3.98.914c-2.909-1.516,2.43.476-.218-1.067-5.247-1.069-5.968-.626-11.184-1.819-1.25.128.294.594-.957.722-7.607-.781-5.547-2.77-11.195-3.04-1.508.131-2.232.795-6.023-.515l1.484-.407c-5.04-1.245-3.135.39-8.314-1.369,1-.028,4.028.716,3.283.452-3.3-1.358-2.519-.186-5.154-.829l-.39-.761c-5.4-1.2-11.4-2.335-17.345-3.863.379-.091,1.441,0,.116-.581a186.67,186.67,0,0,1-22.787-7.36l-2.883-.345c-.628-.209-1.092-.616-.376-.5-2.7-1.092-.252.289-1.65.068-1.585-.479-1.969-1-.926-.82-2.5-.6-6.041-1.539-9.573-2.614a76.019,76.019,0,0,1-9.46-3.585l1.048.2c-3.885-1.622-4.848-.585-8.329-2.431l.735.172c-8.479-3.4-18.03-6.746-24.143-10.2-1.554.269-8.17-3.888-9.157-3.087-4.573-2.57-3.116-2.171-9.659-5.521-1.76-.861-2.963-.544-5.205-1.48l.192-.555-3.238-.846-1.288-1.376-2.122-.833c.8.418,1.63,1.058,1.433,1.151-3.347-1.246-7.627-4.131-7.574-4.431-2.584-1.092-5.187-2.148-7.746-3.3a9.91,9.91,0,0,1,2.62.815c-4.262-1.506-.448-.92-4.353-2.3.431.37-.422.175-.56.238a76.681,76.681,0,0,0-8.915-4.881l.773-.045c-5.457-3-11.648-6.057-17.7-9.562,2.077,1.418,1.234,1.737-.578.767l-.4-.945c-1.338-.333,1.74,1.274-.849.317-2.228-1.37-1.168-1.486.232-.909l-2.856-1.4c-.068-.252.625.037.911-.07-1.338-.3-4.383-3.336-6.336-3.729l-.059-.249-7.2-4.319c-2.035-1.223-3.959-2.321-6.33-3.888-.384.385-2.177-.934-3.834-1.508-3.4-2.448-6.985-5.417-11.1-8.3-3.023-1.853-1.1-.238-2.578-.912.073-.544-4.032-3.447-1.71-2.2l-12.444-8.986c.523.671,1.2,1.321.716,1.149-1.135-.8-2.34-2.126-2.035-2.184l.317.189c-7.155-4.867-13.966-13.983-19.307-18.171l.3.238c-1.791-1.533-3.482-3.156-5.177-4.788-2.1-2.459,1.571,1.2.195-.778a45.761,45.761,0,0,1-6.31-7.193c-.81-1.144-1.6-2.255-2.406-3.395-.765-1.163-1.587-2.331-2.552-3.549a23.583,23.583,0,0,0-1.842-4.4c-.463-.829-.809-1.764-1.276-2.691-.43-.942-.976-1.885-1.324-2.9-1.823-3.939-2.716-8.4-2.352-11.374l-.337.356c-.308-1.545.138-1.887.306-2.985-.359.119-.319,1.656-.531.676a20.144,20.144,0,0,1,2.709-9.452,25.317,25.317,0,0,1,7.182-7.219c5.906-3.809,13.006-5.835,20.016-7.183a10.467,10.467,0,0,0,4.1-1.516c.86-.464,1.9-1.011,5.3-.954l-1.814.838c10.571-2.116,21.963-1.461,32.57-1.54a4.5,4.5,0,0,1-1.7.266c2.216.507,8.272.55,8.343.161,1.648.158.357.349,1.358.629,2.215.478,5.683-.046,6.831.517.195.093-.645.087-1.059.083,1.488-.128,6.787.844,5.454.139,3.939.688,7.616.749,10.729,1.514,2.154-.323,6.715,1.367,7.5.643-.213.4,1.488.857,3.562,1.222a42.674,42.674,0,0,0,5.79.755c-.882.1,2.112.671,1.068.84,2.841.5,5.453.942,5.052.391,5,2.052,10.643,1.458,13.272,3.416,4.236.73,8.283,1.591,12.234,2.4,3.928.9,7.765,1.74,11.509,2.709-.486.705-8.272-2.156-8.182-1.206,7.172,1.526,11.441,2.01,18.364,4.264,1.769.66-1.129.045-1.778,0,3.552.9,6.942,1.935,10.225,2.964,3.274,1.061,6.456,2.075,9.633,2.856a4.946,4.946,0,0,1-1.392-.206c1.236.357,2.8,1.064,2.782.646l-1.22-.3c-1.769-1.2,5.21.527,5.527.32-2.428.351,6.017,2.344,2.273,2.558.824.2,1.89.37,1.792.062,1.163.479,1.484.766.187.617,4.407,1.347,3,.411,6.931,1.826-.077.172-.9-.045-1.376.019a29.258,29.258,0,0,1,7.493,2.114c-.238.031.094.314-.889-.06,5.686,2.077,10.023,2.706,16.071,5.507-2.125.04,2.006,1.081,2.069,1.867l3.39,1.146-1.2-.866c2.887,1.206,5.645,1.786,8.045,3.029l-2.264-.62c1.822.714,3.659,1.392,5.468,2.136l-2.958-1.534c3.067.886.043-.982,3.8.846-.807-.271,2.876,1.253,4.211,2.283l-.011,0a21.64,21.64,0,0,1,5.126,1.914c.458.455-.758.518-.462.817,1.635.087,6.753,2.864,8.781,3.087-.65-.131-.835.192-.674.348l1.372.091c1.253.75,1.41.912,1.075,1.079,3.911,1.938-.878-1.4,3.648,1.152a8.528,8.528,0,0,1-1.036-.285c4.635,2.369,9.219,4.032,13.4,6.367.949,1.259-3.827-1.682-2.643-.433l9.637,4.313a102.593,102.593,0,0,1,9.319,4.593l-1.061-.653c1.284-.442,4.166,2.747,7.339,3.965-.758-.336-1.214-.036-.965-.026,3.912,2.36,8.3,4.276,14.433,7.5l-.872-.207c2.229,1.522,6.039,3.708,8.464,5.315.872.224,2.276,1.118,1.605.277,6.849,5.935,14.925,8.427,20.783,13.983-.784-.535-1.993-1.1-1.37-.668,1.9,1.22,3.818,2.409,5.7,3.657-.182-.671-.563-.741-1.543-1.823a17.127,17.127,0,0,1,3.9,2.2c-2.643-1.548-.385.589.536,1.556-.1-.238.353-.094.342-.271,2.4,2.711,1.019-.391,4.594,2.914l-.34.029a51.451,51.451,0,0,1,4.543,3c.336.889-1.681-.976-2.032-.719,2.213,1.608,4.887,2.524,6.5,4.482-1-.615-2.307-1.658-3.3-2.272a19.91,19.91,0,0,0,3.586,3.549l-.145-.135c1.146,1.038,2.312,2.049,3.419,3.125l-.8-.883c3.45,1.2,5.521,4.257,9.5,6.725-3.891-2.383-.868-.141-1.508.057.77.9,1.979,2.225,1.492,2.006,1.953,1.089,2.4,2.734,5.089,4.347-.028.227,1.669,1.618.988,1.61,2.088,1.894-.235-.707.077-.691a36.092,36.092,0,0,1,5.244,5.4,63.056,63.056,0,0,0,6,6.63c.925.982,1.692,1.743,2.371,2.392l1.769,1.786a30.035,30.035,0,0,1,3.732,4.2c.687,1.582-1.322-.784-1.322-.784,1.285,2.425,2.461,4.086,3.863,6.243-.4-.374-.25.161-.048.934,1.063,1.746,1.239.9,2.177,3.456a8.785,8.785,0,0,1-1.539-1.52c.585,1.042,1.209,2.061,1.843,3.1.577,1.058,1.084,2.162,1.605,3.3-.077.718-.982-1.246-1.475-1.978,1.214,2.5,2.443,6.705,3.022,7.483a10.7,10.7,0,0,0-.193-1.791c.28.987-.3.6-.574-.1a7.178,7.178,0,0,1-.69-2.525,1.834,1.834,0,0,1,.062-1.016,10.712,10.712,0,0,1,.639,1.661c.366-1.056-.41-2.733-1.24-4.574-.951-1.8-2.17-3.694-2.988-5.29a15.833,15.833,0,0,1,1.393.974c-.708-1.036-1.585-1.97-2.36-2.946-.21-.784-.1-1.488.889.02-.956-2.474-1.358-1.879-2.233-3.978-.08-.243.014-.17.165,0l-1.6-2.006c.413.325.224-.671,1,.71a20.7,20.7,0,0,0-3.314-4.574,11.391,11.391,0,0,1-2.091-2.8l.283.266c-4.257-4.741-.841-.122-4.39-3.337l-1.075-3.326-.847-.076c-.424-.5-1.26-1.494-.931-1.474-1.947-1.519.11.465-1.134-.308a36.733,36.733,0,0,0-3.782-4.148c-1.316-1.324-2.448-2.4-2.377-2.985-1.123-.464,1.944,2.324-.7.223-.017-1.376-2.9-2.587-4.763-4.809,1,.209,2.856,2.235,1.013-.029-1.877-.512-4.041-3.913-6.042-5.328-.538.456-4.2-3.223-7.567-5.546a21.8,21.8,0,0,0-3.115-2.856c-1.874-1.54-4.152-3.391-5.592-4.636l.158-.026c-.994.107-4.1-2.269-6.491-3.821.331-.275.843-.11,2.205.643l-2.177-1.567a13.133,13.133,0,0,1-2.869-1.494l.854-.045c-2.968-1.99-6.24-3.6-9.9-6.382-.479.266,2.3,3.127-1.924.742-.006-.319.09-.792,1.209-.186a10.668,10.668,0,0,1-1.995-1.185l1.859.694c-1.638-1.31-1.113-.291-2.485-1.242.232-.3-.886-.9-.526-1.021a13.268,13.268,0,0,0,1.748,1.158,26.822,26.822,0,0,1-3.82-3.142c.025.266-.271.424-1.463-.269-3.031-1.874-.793-1.03-2.453-2.3-.868-.24-2.652-1.683-3-1.225a3.006,3.006,0,0,1-1.186-1.2c-1.709-.742-7.418-4.39-5.941-2.805l.385.278-.271-.135.012.008-.012-.008c-5.484-2.586-10.694-6.579-16.074-9.248l.1-.159c-3.22-1.573-7.08-3.654-9.514-4.516-.932-.5-2.044-1.475-1.542-1.46a36.115,36.115,0,0,1-6.246-3.152c2.6.962-.713-.69,2.62,1.07-3.1-1.752-3.667-2.417-7.316-3.656,1.381.144-2.137-1.72-3.719-2.335l2.086,1.4c-1.737-.773-3.21-1.543-4.709-2.323l1.1-.165c-6.235-3.865-12.4-4.486-16.923-7.909-1.936-.39,3.476,1.907,1.693,1.669-3.014-1.452-5.826-3.712-6.783-4.146-4.062-2.165-4.3-.86-8.6-2.986.476.45.769,1.231-2.6.006-3.05-1.375-3.435-2.447-1.409-1.809.75.288,1.081.5,1.021.56,1.027.35,2.368.827,1.245.076l-.487.034c-1.44-.863-5.716-2.589-4.573-2.521-2.423-.769-1.141-.071.548.752-3.854-1.928-6.189-2.607-10.231-4.414.609.374,1.113.857.462.6-5.932-2.641-2.813-.653-6.936-2.173-2.2-1.225,1.14-.464-3.1-1.76-2.447-1.169-.323-.759.748-.551-3.931-1.016-6.954-2.927-9.09-3.809l2.055.577c-1.228-.351-2.2-.718-3.2-1.07l.988.832c-1.147-.495-2.143-.852-2.057-1.021-1.311-.158.67,1.035-1.867.554-1.489-.776-4.846-1.477-5.19-2.233,4.857,1.956-.345-.761,3.859.643a21.864,21.864,0,0,1-2.962-1.073c-.155-.125.207-.056.54.026-4.54-2.194-2.4-.127-7.3-1.828.733-.107-.933-.993-1.758-1.2,1.979.68.765.854-1.132.479-3.062-1.325-3.484-.973-5.133-1.534l1.853.727c-.745.113-2.314-.439-4.551-1.049-.108-.311,2.058.473,1.307.11-2.634-.209-5.335-2.4-8.9-3.051-1.523-.7.032-.651-1.321-1.225-3.982-.739-4.03-1.741-8.2-2.566,1.047.769,1.281.721-1.7.326q3.391.784,6.758,1.662l-4.46-.653c2.013.585,4.318,1.007,5.5,1.438-2.139-.264-1.9-.308-1.045.343-2.546-1.5-5.556-1.254-8.617-2.6l.405-1.048c-4.659-1.884-8.7-1.823-14.883-3.769l1.962.725c-.946.192-3.885-.951-5.968-1.271.281-.317-.959-.764-1.774-1.208.039.3-4.6-1.183-5.351-.56l-2.708-1.126c-5.058-1.378-6.053-.294-10.944-1.435,1.565-.088-.62-.815,2.74-.41-1.644-.348-3.11-.724-3.187-.476-.914-.441-4.659-.455-6.113-1.067a6.268,6.268,0,0,1-2.873-.006c-.189-.113.042-.179.042-.179-.042.179-2.944-.3-1.4.413-4.876-2.122-14.249-2.306-18.57-3.9-3.657-.326-8.052-.786-11.373-1.052.224-.093.029-.186.653-.087-4.545-.761-2.907.761-8.074-.031-2.618-.782,2.793-.141,1.151-.481-.636-1.243-6.3-.331-9.79-1.134l.857-.04c-2.683-.532-6.594.2-10.994.134,0,0,.213-.108.025-.186-3.013.612-8.7.97-12.9,1.5,1.276-.572,1.9-.388,1.064-.821-1.891.2.606.745-3.152,1.146-1.243-.132-3.985-.043-4.414-.521l3.566-.438c-1.9-.439-4.628.5-6.51.705l.2-.331c-5.454.991-5.391,1.706-11.144,3.091l.647.043c-2.88,1.659-2.753.277-5.626,1.9l-1.177-.354a61.107,61.107,0,0,0-9.766,5.914,28.244,28.244,0,0,1,3.523-2.934c1.509-.9,3.085-1.924,4.341-2.584-1.016.36-2.646,1.25-4.166,2.024A15.5,15.5,0,0,0,860.5,357.9a14.218,14.218,0,0,1,2.346-1.605c-1.973,1.9-4.828,3.838-7.706,7.007-.127-.379-.713-.1-1.536.623a23.7,23.7,0,0,0-2.6,3.473c-.393.755-.8,1.536-1.2,2.307a17.858,17.858,0,0,0-.923,2.352c-.258.761-.6,1.451-.778,2.075a8.552,8.552,0,0,1-.561,1.54,44.476,44.476,0,0,0-.082,5.951,48.838,48.838,0,0,0,.9,5.875,44.625,44.625,0,0,0,4.336,11.779c-.21-1.664.073-1.073.54-.232.486.834,1.135,1.942,1.506,1.424a18.041,18.041,0,0,1,1.471,2.6c.946,1.817,1.825,3.705,2.853,5.5.589,1.378-1.358-1.412-1.431-1.14,2.524,3.705.7,1.808,2.213,4.4-.019-.75,1.358.934,2.887,2.968-.622-1.036-1.254-2.057-1.808-3.141a20.594,20.594,0,0,1,3.506,4.641,15.174,15.174,0,0,0,3.718,4.511l-1.6-1.231c2.255,2.313,8.127,8.686,11.1,10.108.317.487.64,1.234-.436.322,5.445,5.417,13.288,10.629,17.589,14.7l-.628-.139c1.164.823,2.266,1.124,3.481,2.459-.144.036-.623-.133-.118.291a32.493,32.493,0,0,1,4.71,3.155l-1.475-.718a47.973,47.973,0,0,0,7.616,5.281c2.332,1.381,4.61,2.566,7.233,4.231-.493.683,4.168,4.222,6.552,5.9l-.148.043c7.163,4.857,12.744,7.327,19.754,11.158,1.887,1.678,5.5,3.829,9.435,6.17,3.99,2.245,8.291,4.709,11.708,6.773-1.005-.707.483-.479,1.772.111,1.571,1.028,4.831,1.916,4.214,2.454l-.581-.326c.885,1.349,4.42,2.892,7.08,4.285l.892-.667c3.147,2.468,7.861,4.551,12.132,6.5,4.312,1.87,8.227,3.514,9.893,5.02,1.828.555,3.968,1.519,5.781,2.063l-.312.447c4.72,2.3,7.109,3.384,13.117,5.838l-1.365-.172c3.345,1.5,4.853.393,7.978,1.648l.631,1.127c5.886,2.454,11.654,5.454,17.795,7.056-.138.074-.4.224-1.376-.11,2.8,1.078,10.694,4.6,10.052,3.187-.181.708,6.175,2.29,9.519,3.156l-.681.317a28.128,28.128,0,0,1,7.016,1.318c.888.374.662.671-.5.131,2.946,1.294,2.524.333,6.112,1.848l-1.477-.145a12.272,12.272,0,0,0,4.775,1c2.038.435,5.909,2.044,6.231,2.651a9.426,9.426,0,0,1,4.171.71c.2.249-.512.15-.869.1,5.173,1.953,8.015,1.811,11.521,3.329.026.19.241.343.529.479-4.217-1.2-7.582-2.259-7.254-2.2-.141.466,3.226,1.579.337,1.4,2.825.5,7.732,1.019,10.984,2.2a1.945,1.945,0,0,1,.393.288l-.357-.045a10.294,10.294,0,0,0,2.125.506c1.044.362,1.7.6,2.725.88.291.495,3.871,1.26,5.573,1.735-.009-.546,2.211.1.223-.86.261.11-.339-.023-1.478-.3-.26-.054-.564-.127-.741-.142l.129-.014c-1.123-.289-2.586-.668-4.248-1.1a13.113,13.113,0,0,1,4.692,1.044c.964-.1,2.01-.175,2.6-.2,2.154,1.3,6.58,2.813,7.1,3.414,5.314.977,12.432,2.7,15.963,2.374a3.865,3.865,0,0,1,2.194.912,23.834,23.834,0,0,0-2.412-.271c3.045.413,8.926,1.7,9.777,1.13,3.738,1.024-2.252.23,2.986,1.1l-.742.079c10.132,2.91,17,1.084,28.32,3.78a3.671,3.671,0,0,1-1.333-.393,151.575,151.575,0,0,0,20.127,1.568c6.789.192,13.544.068,20.107.148,3.732-.049,4.1-.518,6.317-1.13l.866.478c1.26-.387,2.525-.688,3.767-1.143a58.561,58.561,0,0,1,7.653-1.019,23.219,23.219,0,0,0,8.549-2.341l-.976-.043c1.186-.421,3.047-1.149,4.544-1.778,1.466-.718,2.62-1.236,2.53-.945a3.255,3.255,0,0,1,1.534-.993l.212.221a37.848,37.848,0,0,0,4.888-3.92c1.981-1.386,1.95-1.169,2.229-1,.127.068.3.082.767-.25a12.136,12.136,0,0,0,2.436-2.416c1.8-2.219,3.095-7.19,2.5-6.293-.492.959-1.393,2.368-1.687,2.286l.923-2.19c-.3-.362-.492-1.027-.963-.99-.487.031-1.2.752-2.72,2.853l-.846,1.636a8.148,8.148,0,0,1-.96,1.61l-1.149.568a14.249,14.249,0,0,0,2-2.346,7.6,7.6,0,0,0-.832.861,6.347,6.347,0,0,0-.7.759c-.4.513-.707,1.044-1.061,1.588a5.146,5.146,0,0,0-1.494.657,24.246,24.246,0,0,1-2.482,2.864c-.568-.057,1.041-1.441-1.177-.306-1.287,1.251,1.848-.227-.512,1.525-1.783.6-1.5-.039-3.276,1.242-.369-.073-.018-.4.7-.863a18.884,18.884,0,0,1-2.982,1.605,9.1,9.1,0,0,0-2.411,1.3c-1.964.218-6.28,2.057-6.308,1.178a26.121,26.121,0,0,1-4.979,1.8c3.07-1.537-6.689,1.079-5.988-.189a20.482,20.482,0,0,1-5.768,1.239c-2.447.192-5.119.47-7.293.747a3.029,3.029,0,0,1,1.1-.2,39.092,39.092,0,0,1-4.754-.371c-.3.793-4.126.95-6.2,1.389-3.01-.732,1.843-.863.9-1.556.15.623-5.238.551-4.226,1.045-2.3-.53-1.984-.289-3.149-.95-.442.9-2.151.105-4.092.546-3.311-.68-.806-.926-4.486-.891C1183.973,555.179,1187.247,555.069,1187.247,555.069Zm-86.218-14.411,0-.011,1.752.47Zm-7.1-2.021,3.073.9c.2.247-.124.354-.837.141C1096.589,539.67,1094.945,539.09,1093.931,538.636Zm14.091,7.759c-1.155-.23-1.509-.433-1.636-.58l2,.469.15-.028A1.157,1.157,0,0,1,1108.022,546.4Z" transform="translate(-847.402 -347.147)" fill="url(#linear-gradient-28)"/>
            <path id="패스_42" data-name="패스 42" d="M1017.58,475.979c.167.031.263.034.478.087l-.646-.3-.444.054Z" transform="translate(-754.742 -276.861)" fill="url(#linear-gradient-29)"/>
            <path id="패스_43" data-name="패스 43" d="M1056.049,401.811l-.128-.091a1.626,1.626,0,0,1,.243.235A1.114,1.114,0,0,1,1056.049,401.811Z" transform="translate(-733.457 -317.325)" fill="url(#linear-gradient-30)"/>
            <path id="패스_44" data-name="패스 44" d="M945.5,447.105l-.047.127.632.167Z" transform="translate(-793.822 -292.524)" fill="url(#linear-gradient-31)"/>
            <path id="패스_45" data-name="패스 45" d="M1077.413,417.147a1.546,1.546,0,0,0,.353.422A1.917,1.917,0,0,0,1077.413,417.147Z" transform="translate(-721.712 -308.895)" fill="url(#linear-gradient-32)"/>
            <path id="패스_46" data-name="패스 46" d="M1086.4,424.071l1.819,1.693C1087.446,425.011,1086.865,424.484,1086.4,424.071Z" transform="translate(-716.803 -305.111)" fill="url(#linear-gradient-33)"/>
            <path id="패스_47" data-name="패스 47" d="M1092.941,429.821a.63.63,0,0,0,.348.006l-.017-.02Z" transform="translate(-713.227 -301.977)" fill="url(#linear-gradient-34)"/>
            <path id="패스_48" data-name="패스 48" d="M971.357,365.695l-.5-.136C969.659,365.282,970.461,365.5,971.357,365.695Z" transform="translate(-780.271 -337.157)" fill="url(#linear-gradient-35)"/>
            <path id="패스_49" data-name="패스 49" d="M1010.549,379.766c-.662-.179-1.313-.359-1.987-.583C1009.59,379.672,1010.4,380.032,1010.549,379.766Z" transform="translate(-759.336 -329.64)" fill="url(#linear-gradient-36)"/>
            <path id="패스_50" data-name="패스 50" d="M926.532,354.263l.009-.008-.431-.08Z" transform="translate(-804.392 -343.306)" fill="url(#linear-gradient-37)"/>
            <path id="패스_51" data-name="패스 51" d="M1006.8,378.415a16.429,16.429,0,0,0,2.725,1.188A25.084,25.084,0,0,0,1006.8,378.415Z" transform="translate(-760.299 -330.06)" fill="url(#linear-gradient-38)"/>
            <path id="패스_52" data-name="패스 52" d="M1114.766,459.462l.135.609c.031-.019.068.011.1.053Z" transform="translate(-701.301 -285.772)" fill="url(#linear-gradient-39)"/>
            <path id="패스_53" data-name="패스 53" d="M1114.919,459.89l.237.659A1.992,1.992,0,0,0,1114.919,459.89Z" transform="translate(-701.217 -285.538)" fill="url(#linear-gradient-40)"/>
            <path id="패스_54" data-name="패스 54" d="M1115.428,461.728c-.124-.473-.185-.95-.355-1.412A5.678,5.678,0,0,0,1115.428,461.728Z" transform="translate(-701.134 -285.305)" fill="url(#linear-gradient-41)"/>
            <path id="패스_55" data-name="패스 55" d="M1110.379,449.215l-.274-.065A.29.29,0,0,0,1110.379,449.215Z" transform="translate(-703.848 -291.407)" fill="url(#linear-gradient-42)"/>
            <path id="패스_56" data-name="패스 56" d="M1108.309,446.345c.77,1.03,1.465,2.878,2.556,4.282l.221.056C1110.366,450.162,1109.362,447.1,1108.309,446.345Z" transform="translate(-704.829 -292.939)" fill="url(#linear-gradient-43)"/>
            <path id="패스_57" data-name="패스 57" d="M1099.9,434.271l3.09,3.388c-.41-.716-.948-1.664.546-.2C1099.932,432.884,1104.035,438.63,1099.9,434.271Z" transform="translate(-709.425 -299.537)" fill="url(#linear-gradient-44)"/>
            <path id="패스_58" data-name="패스 58" d="M1093.593,428.2c1.9,1.571.177-.243.349-.244C1092.651,427.057,1092.34,426.842,1093.593,428.2Z" transform="translate(-713.305 -303.383)" fill="url(#linear-gradient-45)"/>
            <path id="패스_59" data-name="패스 59" d="M1038.192,391.734l.444-.319C1036.917,390.616,1038.533,391.574,1038.192,391.734Z" transform="translate(-743.343 -323.128)" fill="url(#linear-gradient-46)"/>
            <path id="패스_60" data-name="패스 60" d="M1026.041,387.3l1.516,1.078.978-.015Z" transform="translate(-749.785 -325.203)" fill="url(#linear-gradient-47)"/>
            <path id="패스_61" data-name="패스 61" d="M1021.006,382.4l.778.289-2.947-1.159Z" transform="translate(-753.721 -328.357)" fill="url(#linear-gradient-48)"/>
            <path id="패스_62" data-name="패스 62" d="M914.221,349.1l.482.673C915.987,349.844,916.353,349.22,914.221,349.1Z" transform="translate(-810.889 -346.081)" fill="url(#linear-gradient-49)"/>
            <path id="패스_63" data-name="패스 63" d="M867.641,349.71a9.892,9.892,0,0,0-4.145,1.014C865.143,350.281,866.832,350.027,867.641,349.71Z" transform="translate(-838.607 -345.749)" fill="url(#linear-gradient-50)"/>
            <path id="패스_64" data-name="패스 64" d="M933.189,444.565l-1.426-.5,2.6,1.108Z" transform="translate(-801.302 -294.183)" fill="url(#linear-gradient-51)"/>
          </g>
          <g id="그룹_12" data-name="그룹 12" transform="translate(98.122 112.539)">
            <path id="패스_65" data-name="패스 65" d="M897.971,488.219c1.6,12.183,13.182,12.265,29.078-.942l3.444,2.278c-13.08,18.664-34.313,30.816-49.176,34.088-21.258,4.67-22.136-7.036-24.205-23.775l-10.578-89.159c-1.611-10.969-9.67-11.026-18.9-9l-.851-6.28c29.345-7.053,40.44-16.026,52.224-18.613,4.607-1.015,6.438,1.209,6.7,3.589Z" transform="translate(-826.788 -376.562)" fill="#fff"/>
          </g>
          <path id="패스_66" data-name="패스 66" d="M882.978,474.449c-2.074-15.9,2.849-24.613,15.686-31.1,9.622-4.831,26.268-9.5,39.557-11.224l-.636-4.891A168.008,168.008,0,0,0,886.914,442.7l-4.134-31.793c12.242-7.5,27.453-12.427,48.838-15.219,31.63-4.124,45.716,4.924,49.82,36.4l7.059,54.253-38.219,4.98-.665-5.2c-1.563-11.915-6.729-23.054-12.72-29.571l-4.361,2.264c5.972,5.287,11.076,19.394,12.534,30.55-7.573,3.937-17.1,7.191-30.247,8.911C896.03,500.723,885.121,490.945,882.978,474.449Z" transform="translate(-698.211 -254.083)" fill="#fff"/>
        </g>
      </g>
    </g>
  </g>
</svg>
