<svg xmlns="http://www.w3.org/2000/svg" width="495.664" height="408.286" viewBox="0 0 495.664 408.286">
  <g id="그룹_644" data-name="그룹 644" transform="translate(-1496.817 -2501.899)">
    <g id="그룹_633" data-name="그룹 633" transform="translate(-314.509 -2349.624)">
      <g id="그룹_605" data-name="그룹 605" transform="translate(1811.326 4909.151)">
        <g id="그룹_534" data-name="그룹 534" transform="translate(144.395 316.862)">
          <ellipse id="타원_93" data-name="타원 93" cx="113.922" cy="14.882" rx="113.922" ry="14.882" transform="translate(2.015 2.016)"/>
          <path id="패스_998" data-name="패스 998" d="M2257.6,5577.2c-30.514,0-59.215-1.554-80.816-4.375-35.121-4.589-35.121-10.352-35.121-12.523s0-7.934,35.121-12.521c21.6-2.822,50.3-4.375,80.816-4.375s59.215,1.553,80.816,4.375c35.122,4.587,35.122,10.353,35.122,12.521s0,7.934-35.122,12.523C2316.815,5575.644,2288.114,5577.2,2257.6,5577.2Zm-111.907-16.9c.031.124,1.624,4.661,32.156,8.6,21.37,2.753,49.693,4.271,79.751,4.271s58.381-1.519,79.752-4.271c30.8-3.97,32.15-8.552,32.155-8.6s-1.357-4.622-32.158-8.592c-21.371-2.754-49.693-4.272-79.749-4.272s-58.377,1.518-79.748,4.272C2147.32,5555.641,2145.724,5560.178,2145.693,5560.3Z" transform="translate(-2141.662 -5543.403)"/>
        </g>
        <g id="그룹_590" data-name="그룹 590" transform="translate(0 0)">
          <g id="그룹_542" data-name="그룹 542" transform="translate(0 16.314)">
            <g id="그룹_535" data-name="그룹 535">
              <path id="패스_999" data-name="패스 999" d="M1948.723,5150.332l-42.865,12.134-5.743,1.626-9.3,2.635-21.029,5.957-9.773,2.768-45.6-161.044,55.372-15.681,21.029-5.958,9.3-2.635,3-.851,2.74,9.674Z" transform="translate(-1812.718 -4987.587)" fill="#d2eaff"/>
              <path id="패스_1000" data-name="패스 1000" d="M1857.673,5175.753l-.373-1.321-45.974-162.365,91.346-25.873,3.114,11,43.239,152.7Zm-42.957-161.791,44.851,158.4,86.069-24.372-44.856-158.407Z" transform="translate(-1811.326 -4986.195)"/>
            </g>
            <g id="그룹_536" data-name="그룹 536" transform="translate(57.067 5.182)" opacity="0.52">
              <path id="패스_1001" data-name="패스 1001" d="M1936.292,4995.632V5169.59l-21.029,5.957V5001.59Z" transform="translate(-1915.263 -4995.632)" fill="#fff"/>
            </g>
            <g id="그룹_537" data-name="그룹 537" transform="translate(87.397 2.546)" opacity="0.52">
              <path id="패스_1002" data-name="패스 1002" d="M1976.246,4999.656v163.509l-5.743,1.625V4990.833Z" transform="translate(-1970.503 -4990.833)" fill="#fff"/>
            </g>
            <g id="그룹_538" data-name="그룹 538" transform="translate(14.591 51.538)">
              <path id="패스_1003" data-name="패스 1003" d="M1855.856,5169.339l-17.956-63.407,91.351-25.869,17.956,63.409Zm-14.566-61.514,16.46,58.124,86.068-24.371-16.46-58.126Z" transform="translate(-1837.9 -5080.063)"/>
            </g>
            <g id="그룹_539" data-name="그룹 539" transform="translate(28.217 17.544)">
              <path id="패스_1004" data-name="패스 1004" d="M1909.694,5181.942a1.373,1.373,0,0,1-1.32-1l-45.6-161.045a1.373,1.373,0,1,1,2.641-.748l45.6,161.047a1.372,1.372,0,0,1-1.322,1.747Z" transform="translate(-1862.718 -5018.149)"/>
            </g>
            <g id="그룹_540" data-name="그룹 540" transform="translate(59.623 8.651)">
              <path id="패스_1005" data-name="패스 1005" d="M1966.894,5165.745a1.374,1.374,0,0,1-1.32-1l-45.6-161.046a1.372,1.372,0,0,1,2.641-.748l45.6,161.046a1.377,1.377,0,0,1-1.321,1.748Z" transform="translate(-1919.918 -5001.952)"/>
            </g>
            <g id="그룹_541" data-name="그룹 541">
              <path id="패스_1006" data-name="패스 1006" d="M1857.673,5175.753l-.373-1.321-45.974-162.365,91.347-25.873.374,1.322,45.979,162.369Zm-42.957-161.791,44.851,158.4,86.069-24.372-44.857-158.407Z" transform="translate(-1811.326 -4986.195)"/>
            </g>
          </g>
          <g id="그룹_549" data-name="그룹 549" transform="translate(320.177 157.978)">
            <g id="그룹_544" data-name="그룹 544">
              <g id="그룹_543" data-name="그룹 543">
                <path id="패스_1007" data-name="패스 1007" d="M2405.367,5246.709h0c.306.318,31.035,31.915,69.632,31.6a5.5,5.5,0,0,1,.088,11c-43.432.349-76.295-33.561-77.672-35.005a5.434,5.434,0,0,1-.448-.532" transform="translate(-2395.595 -5245.336)" fill="#90d622"/>
                <path id="패스_1008" data-name="패스 1008" d="M2473.3,5289.56c-43.686,0-76.614-33.979-78-35.434a6.757,6.757,0,0,1-.559-.663,1.373,1.373,0,1,1,2.208-1.631,3.891,3.891,0,0,0,.338.4c1.353,1.418,33.494,34.583,76.011,34.583.219,0,.436,0,.656,0a4.126,4.126,0,0,0-.03-8.252h-.61c-38.871,0-69.752-31.707-70.06-32.029a1.373,1.373,0,0,1,1.98-1.9c.3.313,30.417,31.184,68.078,31.184h.612a6.872,6.872,0,0,1,.051,13.744Z" transform="translate(-2394.468 -5244.209)"/>
              </g>
            </g>
            <g id="그룹_545" data-name="그룹 545" transform="translate(51.495 16.567)">
              <path id="패스_1009" data-name="패스 1009" d="M2491.048,5298.323c-.582,3.125-.455,6.829,1.475,9.124,2.9,2.662,5.648,1.328,6.3.732,4,8.5,35.592,11.054,35.056,1.606a5.862,5.862,0,0,0-3.256-5.114l-.005-.006c.362-.212.951-.59,1.6-1.056a6.248,6.248,0,0,0,2.815-2.565,2.216,2.216,0,0,0,.443-.948c.01-.074.013-.146.019-.219a5.29,5.29,0,0,0,.129-.655c.21-1.594-.616-3.439-2.692-4.781a6.724,6.724,0,0,0-1.187-.743c1.632-.959,2.974-2.37,2.882-4.105-.2-3.712-4.637-6.063-10.073-7.127,0,0,3.885-4.856-2.583-5.523-6.977-.718-14.773,5.427-17.135,8.319a4.358,4.358,0,0,0-2.628-1.958,3.931,3.931,0,0,0-2.945.077C2494.495,5285.43,2491.96,5293.417,2491.048,5298.323Z" transform="translate(-2489.377 -5275.51)" fill="#fff"/>
              <path id="패스_1010" data-name="패스 1010" d="M2519.818,5316.021c-8.592,0-18.987-2.479-22.588-7.137a6.376,6.376,0,0,1-6.756-1.553l-.123-.128c-2.722-3.237-2.148-8.253-1.774-10.258h0c.573-3.08,2.915-13.328,9.017-15.953a5.34,5.34,0,0,1,3.924-.119,6.259,6.259,0,0,1,2.227,1.192c3.31-3.309,10.447-8.317,17.24-7.616,2.495.258,4.077,1.145,4.7,2.637a4.324,4.324,0,0,1-.15,3.322c5.772,1.509,9.143,4.366,9.334,7.984a5.213,5.213,0,0,1-1.844,4.1,6.258,6.258,0,0,1,2.831,5.785,6.824,6.824,0,0,1-.13.693c-.005.065-.01.119-.016.172a3.424,3.424,0,0,1-.642,1.509,7.6,7.6,0,0,1-3.151,2.951,7.151,7.151,0,0,1,2.209,4.98c.1,1.811-.641,5.083-6.776,6.64A31.522,31.522,0,0,1,2519.818,5316.021Zm-21.671-11.23.795,1.674c2.507,5.326,19.167,8.267,27.734,6.094,2.216-.562,4.831-1.682,4.71-3.824a4.5,4.5,0,0,0-2.544-3.989l-.272-.186-.069-.077-1.232-1.233,1.532-.9c.313-.185.87-.541,1.488-.987l.2-.118a4.866,4.866,0,0,0,2.214-1.989l.092-.146a1.248,1.248,0,0,0,.2-.344l.048-.368a4.039,4.039,0,0,0,.1-.485c.16-1.216-.616-2.5-2.076-3.45l-.107-.077a5.481,5.481,0,0,0-.947-.59l-2.266-1.129,2.183-1.283c.854-.5,2.276-1.54,2.208-2.85-.137-2.592-3.489-4.78-8.967-5.853l-2.224-.436,1.415-1.77c.4-.511,1.056-1.728.8-2.334-.2-.466-1.113-.826-2.449-.964-6.149-.644-13.524,4.874-15.933,7.821l-1.289,1.578-.979-1.787a3.018,3.018,0,0,0-1.81-1.3l-.1-.035a2.574,2.574,0,0,0-1.914.057c-3.86,1.661-6.4,8.543-7.4,13.932-.62,3.333-.2,6.285,1.121,7.922,2.428,2.168,4.357.688,4.375.671Z" transform="translate(-2488.255 -5274.382)"/>
            </g>
            <g id="그룹_546" data-name="그룹 546" transform="translate(64.145 24.944)">
              <line id="선_10" data-name="선 10" x1="1.429" y2="3.809" transform="translate(1.373 1.373)" fill="#fff"/>
              <path id="패스_1011" data-name="패스 1011" d="M2512.669,5296.2a1.375,1.375,0,0,1-1.285-1.855l1.429-3.809a1.373,1.373,0,1,1,2.57.964l-1.428,3.808A1.374,1.374,0,0,1,2512.669,5296.2Z" transform="translate(-2511.296 -5289.64)"/>
            </g>
            <g id="그룹_547" data-name="그룹 547" transform="translate(59.566 44.03)">
              <line id="선_11" data-name="선 11" y1="3.831" x2="0.913" transform="translate(1.373 1.373)" fill="#fff"/>
              <path id="패스_1012" data-name="패스 1012" d="M2504.329,5330.979a1.39,1.39,0,0,1-.32-.038,1.374,1.374,0,0,1-1.017-1.654l.914-3.831a1.372,1.372,0,0,1,2.67.636l-.913,3.831A1.374,1.374,0,0,1,2504.329,5330.979Z" transform="translate(-2502.955 -5324.402)"/>
            </g>
            <g id="그룹_548" data-name="그룹 548" transform="translate(81.817 22.049)">
              <line id="선_12" data-name="선 12" x1="3.338" y2="0.007" transform="translate(1.373 1.373)" fill="#fff"/>
              <path id="패스_1013" data-name="패스 1013" d="M2544.854,5287.12a1.373,1.373,0,0,1,0-2.745l3.338-.007h0a1.372,1.372,0,0,1,0,2.745l-3.338.007Z" transform="translate(-2543.482 -5284.368)"/>
            </g>
          </g>
          <g id="그룹_550" data-name="그룹 550" transform="translate(390.32 157.633)">
            <rect id="사각형_603" data-name="사각형 603" width="13.739" height="61.586" rx="6.869" transform="translate(13.317 63.073) rotate(-165.769)" fill="#40c0dd"/>
            <path id="패스_1014" data-name="패스 1014" d="M2530.663,5306.636a8.3,8.3,0,0,1-2.04-.255h0a8.239,8.239,0,0,1-5.962-10.016l11.762-46.378a8.242,8.242,0,0,1,15.978,4.052l-11.762,46.378a8.247,8.247,0,0,1-7.975,6.219Zm-1.365-2.916a5.5,5.5,0,0,0,6.68-3.977l11.762-46.379a5.5,5.5,0,0,0-10.656-2.7l-11.762,46.38a5.5,5.5,0,0,0,3.976,6.679Z" transform="translate(-2522.302 -5243.666)"/>
          </g>
          <g id="그룹_551" data-name="그룹 551" transform="translate(402.19 180.131)">
            <path id="패스_1015" data-name="패스 1015" d="M2551.927,5298.234h3.943a5.59,5.59,0,0,0,5.59-5.59h0a5.59,5.59,0,0,0-5.59-5.59h-3.943a5.59,5.59,0,0,0-5.589,5.59h0A5.59,5.59,0,0,0,2551.927,5298.234Z" transform="translate(-2544.966 -5285.682)" fill="#fff"/>
            <path id="패스_1016" data-name="패스 1016" d="M2554.743,5298.48H2550.8a6.962,6.962,0,1,1,0-13.924h3.942a6.962,6.962,0,1,1,0,13.924ZM2550.8,5287.3a4.217,4.217,0,1,0,0,8.433h3.942a4.217,4.217,0,1,0,0-8.433Z" transform="translate(-2543.838 -5284.556)"/>
          </g>
          <g id="그룹_552" data-name="그룹 552" transform="translate(402.19 190.636)">
            <path id="패스_1017" data-name="패스 1017" d="M2551.927,5317.369h3.943a5.59,5.59,0,0,0,5.59-5.59h0a5.589,5.589,0,0,0-5.59-5.589h-3.943a5.589,5.589,0,0,0-5.589,5.589h0A5.59,5.59,0,0,0,2551.927,5317.369Z" transform="translate(-2544.966 -5304.817)" fill="#fff"/>
            <path id="패스_1018" data-name="패스 1018" d="M2554.743,5317.613H2550.8a6.963,6.963,0,1,1,0-13.925h3.942a6.963,6.963,0,0,1,0,13.925Zm-3.942-11.179a4.217,4.217,0,1,0,0,8.435h3.942a4.217,4.217,0,0,0,0-8.435Z" transform="translate(-2543.838 -5303.688)"/>
          </g>
          <g id="그룹_553" data-name="그룹 553" transform="translate(400.372 201.815)">
            <rect id="사각형_604" data-name="사각형 604" width="15.122" height="11.179" rx="5.59" transform="translate(16.495 12.552) rotate(-180)" fill="#fff"/>
            <path id="패스_1019" data-name="패스 1019" d="M2551.431,5337.975h-3.943a6.962,6.962,0,0,1,0-13.925h3.943a6.962,6.962,0,0,1,0,13.925Zm-3.943-11.179a4.217,4.217,0,1,0,0,8.434h3.943a4.217,4.217,0,0,0,0-8.434Z" transform="translate(-2540.526 -5324.05)"/>
          </g>
          <g id="그룹_554" data-name="그룹 554" transform="translate(154.284 11.416)">
            <rect id="사각형_605" data-name="사각형 605" width="187.019" height="297.929" rx="93.51" transform="translate(188.392 299.302) rotate(-180)" fill="#90d622"/>
            <path id="패스_1020" data-name="패스 1020" d="M2187.208,5277.949a94.99,94.99,0,0,1-94.883-94.882v-110.91a94.882,94.882,0,1,1,189.765,0v110.91A94.99,94.99,0,0,1,2187.208,5277.949Zm0-297.929a92.242,92.242,0,0,0-92.137,92.137v110.91a92.137,92.137,0,1,0,184.274,0v-110.91A92.242,92.242,0,0,0,2187.208,4980.02Z" transform="translate(-2092.325 -4977.274)"/>
          </g>
          <g id="그룹_556" data-name="그룹 556" transform="translate(157.31 13.521)">
            <g id="그룹_555" data-name="그룹 555">
              <path id="패스_1021" data-name="패스 1021" d="M2174.778,4981.107a93.469,93.469,0,0,0-46.535,80.867v110.909a93.509,93.509,0,0,0,93.51,93.51h0a94.081,94.081,0,0,0,16.568-1.463,93.077,93.077,0,0,1-46.975,12.642h0a93.509,93.509,0,0,1-93.51-93.509v-110.91A93.538,93.538,0,0,1,2174.778,4981.107Z" transform="translate(-2097.837 -4981.107)" fill="#4eb727"/>
            </g>
          </g>
          <g id="그룹_557" data-name="그룹 557" transform="translate(154.284 11.416)">
            <path id="패스_1022" data-name="패스 1022" d="M2187.208,5277.949a94.99,94.99,0,0,1-94.883-94.882v-110.91a94.882,94.882,0,1,1,189.765,0v110.91A94.99,94.99,0,0,1,2187.208,5277.949Zm0-297.929a92.242,92.242,0,0,0-92.137,92.137v110.91a92.137,92.137,0,1,0,184.274,0v-110.91A92.242,92.242,0,0,0,2187.208,4980.02Z" transform="translate(-2092.325 -4977.274)"/>
          </g>
          <g id="그룹_558" data-name="그룹 558" transform="translate(150.871 80.714)">
            <rect id="사각형_606" data-name="사각형 606" width="193.845" height="27.288" rx="6.531" transform="translate(195.218 28.661) rotate(180)" fill="#fff451"/>
            <path id="패스_1023" data-name="패스 1023" d="M2277.741,5133.521H2091.069a4.965,4.965,0,0,1-4.96-4.958v-20.116a4.965,4.965,0,0,1,4.96-4.959h186.672a4.965,4.965,0,0,1,4.959,4.959v20.116A4.965,4.965,0,0,1,2277.741,5133.521Zm-186.672-27.289a2.217,2.217,0,0,0-2.215,2.214v20.116a2.217,2.217,0,0,0,2.215,2.213h186.672a2.216,2.216,0,0,0,2.213-2.213v-20.116a2.216,2.216,0,0,0-2.213-2.214Z" transform="translate(-2086.109 -5103.488)"/>
          </g>
          <g id="그룹_565" data-name="그룹 565" transform="translate(82.076 179.006)">
            <g id="그룹_560" data-name="그룹 560" transform="translate(12.82)">
              <g id="그룹_559" data-name="그룹 559">
                <path id="패스_1024" data-name="패스 1024" d="M2058.588,5285.007c-8.889,7.994-35.042,28.78-66.383,28.528a5.5,5.5,0,0,0-.088,11c29.724.239,54.5-15.569,67.616-26.033" transform="translate(-1985.289 -5283.635)" fill="#4eb727"/>
                <path id="패스_1025" data-name="패스 1025" d="M1991.647,5324.782l-.669,0a6.871,6.871,0,0,1,.051-13.743h.06c.186,0,.374,0,.56,0,30.276,0,55.44-19.677,64.893-28.178a1.373,1.373,0,1,1,1.836,2.041c-9.688,8.713-35.5,28.883-66.731,28.883-.194,0-.387,0-.582,0h-.036a4.126,4.126,0,0,0-.031,8.252l.647,0c29.424,0,54.014-16.094,66.1-25.737a1.373,1.373,0,0,1,1.712,2.146C2047.092,5308.313,2021.9,5324.781,1991.647,5324.782Z" transform="translate(-1984.161 -5282.508)"/>
              </g>
            </g>
            <g id="그룹_561" data-name="그룹 561" transform="translate(0 13.492)">
              <path id="패스_1026" data-name="패스 1026" d="M1999.705,5316.077a3.928,3.928,0,0,0-2.944-.078,4.365,4.365,0,0,0-2.628,1.959c-2.362-2.893-10.158-9.038-17.135-8.319-6.467.666-2.583,5.522-2.583,5.522-5.436,1.065-9.877,3.414-10.073,7.128-.092,1.734,1.25,3.146,2.882,4.1a6.758,6.758,0,0,0-1.186.743c-2.075,1.342-2.9,3.187-2.691,4.781a5.171,5.171,0,0,0,.129.655c.005.072.009.145.018.217a2.219,2.219,0,0,0,.443.95,6.248,6.248,0,0,0,2.815,2.564c.645.466,1.234.844,1.6,1.056l-.006.006a5.864,5.864,0,0,0-3.256,5.115c-.536,9.446,31.053,6.893,35.056-1.607.649.6,3.4,1.93,6.3-.731,1.93-2.3,2.057-6,1.475-9.125C2007,5326.114,2004.468,5318.126,1999.705,5316.077Z" transform="translate(-1961.94 -5308.209)" fill="#fff"/>
              <path id="패스_1027" data-name="패스 1027" d="M1976.895,5348.718a31.485,31.485,0,0,1-7.531-.8c-6.136-1.556-6.88-4.829-6.777-6.641a7.147,7.147,0,0,1,2.208-4.979,7.6,7.6,0,0,1-3.151-2.953,3.393,3.393,0,0,1-.64-1.5c-.008-.056-.013-.116-.018-.175a6.518,6.518,0,0,1-.13-.694,6.256,6.256,0,0,1,2.831-5.784,5.215,5.215,0,0,1-1.845-4.1c.191-3.62,3.563-6.477,9.334-7.984a4.333,4.333,0,0,1-.15-3.325c.625-1.493,2.208-2.379,4.7-2.637,6.8-.692,13.93,4.308,17.24,7.615a6.249,6.249,0,0,1,2.227-1.191,5.345,5.345,0,0,1,3.924.119h0c6.1,2.625,8.444,12.873,9.017,15.951.374,2.006.948,7.022-1.775,10.259l-.122.128a6.376,6.376,0,0,1-6.756,1.554C1995.883,5346.238,1985.488,5348.718,1976.895,5348.718Zm-8.64-11.58-.122.163-.261.143a4.5,4.5,0,0,0-2.544,3.987c-.122,2.143,2.494,3.263,4.71,3.824,8.568,2.173,25.227-.769,27.734-6.093l.794-1.687,1.375,1.259c.018.017,1.95,1.5,4.376-.67,1.322-1.638,1.741-4.59,1.121-7.923-1-5.388-3.543-12.272-7.4-13.931h0a2.576,2.576,0,0,0-1.912-.056l-.1.035a3.013,3.013,0,0,0-1.81,1.3l-.978,1.788-1.289-1.579c-2.409-2.949-9.789-8.457-15.932-7.821-1.336.137-2.253.5-2.45.964-.256.606.4,1.822.8,2.339l1.39,1.764-2.2.437c-5.478,1.073-8.829,3.262-8.967,5.854-.069,1.308,1.353,2.346,2.207,2.848l2.186,1.285-2.27,1.127a5.43,5.43,0,0,0-.947.591l-.1.075c-1.46.945-2.236,2.235-2.076,3.45a4.038,4.038,0,0,0,.1.485l.052.384a1.518,1.518,0,0,0,.195.328l.092.146a4.86,4.86,0,0,0,2.214,1.99l.2.118c.616.444,1.173.8,1.489.985l1.327.777Zm37.056,1.876h0Z" transform="translate(-1960.812 -5307.081)"/>
            </g>
            <g id="그룹_562" data-name="그룹 562" transform="translate(30.82 21.869)">
              <line id="선_13" data-name="선 13" x2="1.429" y2="3.809" transform="translate(1.373 1.373)" fill="#fff"/>
              <path id="패스_1028" data-name="패스 1028" d="M2019.746,5328.891a1.372,1.372,0,0,1-1.285-.891l-1.429-3.809a1.373,1.373,0,0,1,2.571-.963l1.429,3.808a1.374,1.374,0,0,1-1.286,1.855Z" transform="translate(-2016.944 -5322.337)"/>
            </g>
            <g id="그룹_563" data-name="그룹 563" transform="translate(35.916 40.953)">
              <line id="선_14" data-name="선 14" x1="0.913" y1="3.831" transform="translate(1.373 1.374)" fill="#fff"/>
              <path id="패스_1029" data-name="패스 1029" d="M2028.51,5363.674a1.373,1.373,0,0,1-1.334-1.055l-.913-3.831a1.372,1.372,0,1,1,2.67-.637l.913,3.831a1.375,1.375,0,0,1-1.336,1.691Z" transform="translate(-2026.225 -5357.096)"/>
            </g>
            <g id="그룹_564" data-name="그룹 564" transform="translate(11.24 18.973)">
              <line id="선_15" data-name="선 15" x2="3.338" y2="0.007" transform="translate(1.373 1.373)" fill="#fff"/>
              <path id="패스_1030" data-name="패스 1030" d="M1985.994,5319.816h0l-3.338-.007a1.373,1.373,0,0,1,0-2.746h0l3.338.007a1.373,1.373,0,0,1,0,2.746Z" transform="translate(-1981.283 -5317.063)"/>
            </g>
          </g>
          <g id="그룹_566" data-name="그룹 566" transform="translate(81.286 175.877)">
            <path id="패스_1031" data-name="패스 1031" d="M1983.649,5338.829h0a6.869,6.869,0,0,1-8.481-4.738l-13.036-46.036a6.87,6.87,0,0,1,4.738-8.481h0a6.87,6.87,0,0,1,8.481,4.739l13.036,46.037A6.868,6.868,0,0,1,1983.649,5338.829Z" transform="translate(-1960.499 -5277.937)" fill="#40c0dd"/>
            <path id="패스_1032" data-name="패스 1032" d="M1980.639,5339.336a8.255,8.255,0,0,1-7.917-6l-13.037-46.037a8.242,8.242,0,0,1,15.86-4.492l13.036,46.038a8.241,8.241,0,0,1-5.684,10.175h0A8.3,8.3,0,0,1,1980.639,5339.336Zm-13.016-59.781a5.5,5.5,0,0,0-5.3,7l13.037,46.037a5.5,5.5,0,0,0,6.786,3.792h0a5.5,5.5,0,0,0,3.792-6.787l-13.036-46.037a5.5,5.5,0,0,0-5.281-4Z" transform="translate(-1959.372 -5276.808)"/>
          </g>
          <g id="그룹_567" data-name="그룹 567" transform="translate(81.337 198.082)">
            <path id="패스_1033" data-name="패스 1033" d="M1971.5,5330.931h-3.943a5.589,5.589,0,0,1-5.589-5.59h0a5.589,5.589,0,0,1,5.589-5.589h3.943a5.589,5.589,0,0,1,5.589,5.589h0A5.589,5.589,0,0,1,1971.5,5330.931Z" transform="translate(-1960.592 -5318.379)" fill="#fff"/>
            <path id="패스_1034" data-name="패스 1034" d="M1970.37,5331.176h-3.943a6.962,6.962,0,1,1,0-13.925h3.943a6.962,6.962,0,0,1,0,13.925Zm-3.943-11.18a4.217,4.217,0,1,0,0,8.434h3.943a4.217,4.217,0,0,0,0-8.434Z" transform="translate(-1959.465 -5317.251)"/>
          </g>
          <g id="그룹_568" data-name="그룹 568" transform="translate(81.337 208.588)">
            <path id="패스_1035" data-name="패스 1035" d="M1971.5,5350.065h-3.943a5.589,5.589,0,0,1-5.589-5.589h0a5.589,5.589,0,0,1,5.589-5.59h3.943a5.589,5.589,0,0,1,5.589,5.59h0A5.589,5.589,0,0,1,1971.5,5350.065Z" transform="translate(-1960.592 -5337.513)" fill="#fff"/>
            <path id="패스_1036" data-name="패스 1036" d="M1970.37,5350.311h-3.943a6.962,6.962,0,1,1,0-13.925h3.943a6.962,6.962,0,0,1,0,13.925Zm-3.943-11.18a4.217,4.217,0,1,0,0,8.434h3.943a4.217,4.217,0,1,0,0-8.434Z" transform="translate(-1959.465 -5336.386)"/>
          </g>
          <g id="그룹_569" data-name="그룹 569" transform="translate(83.155 219.767)">
            <path id="패스_1037" data-name="패스 1037" d="M1974.809,5370.426h-3.943a5.59,5.59,0,0,1-5.589-5.59h0a5.589,5.589,0,0,1,5.589-5.589h3.943a5.589,5.589,0,0,1,5.59,5.589h0A5.59,5.59,0,0,1,1974.809,5370.426Z" transform="translate(-1963.904 -5357.875)" fill="#fff"/>
            <path id="패스_1038" data-name="패스 1038" d="M1973.682,5370.671h-3.943a6.962,6.962,0,1,1,0-13.924h3.943a6.962,6.962,0,1,1,0,13.924Zm-3.943-11.179a4.217,4.217,0,1,0,0,8.434h3.943a4.217,4.217,0,0,0,0-8.434Z" transform="translate(-1962.776 -5356.747)"/>
          </g>
          <g id="그룹_570" data-name="그룹 570" transform="translate(150.871 90.421)">
            <path id="패스_1039" data-name="패스 1039" d="M2281.327,5123.913H2087.481a1.373,1.373,0,0,1,0-2.745h193.845a1.373,1.373,0,1,1,0,2.745Z" transform="translate(-2086.109 -5121.168)"/>
          </g>
          <g id="그룹_575" data-name="그룹 575" transform="translate(277.505 288.475)">
            <g id="그룹_571" data-name="그룹 571" transform="translate(0 0.8)">
              <path id="패스_1040" data-name="패스 1040" d="M2377.644,5505.36c-4.4,18.042-18.575,16.279-18.575,16.279l-29.929-1.521a14.376,14.376,0,0,1-3.212-.967c-6.616-3.717-7.8-12.282-5.727-18.162.088-.011.176-.028.269-.044a17.634,17.634,0,0,0,2.1-.457,44.063,44.063,0,0,0,9.5-4.156,27.6,27.6,0,0,1,4.387,1.763,9.732,9.732,0,0,1,1.428.889c.011.005.028.005.039.011a20.407,20.407,0,0,0,5.578,1.789,18.844,18.844,0,0,0,8.834-.657,14.215,14.215,0,0,0,2.932-1.286c4.184-6.149,11.311-14.952,15.972-12.623.006,0,.011.005.017.011C2376.562,5488.894,2379.751,5496.713,2377.644,5505.36Z" transform="translate(-2317.886 -5484.466)"/>
              <path id="패스_1041" data-name="패스 1041" d="M2358.813,5521.921c-.5,0-.835-.024-.977-.038l-29.993-1.523-.089-.018a15.054,15.054,0,0,1-3.628-1.115c-7.24-4.067-8.676-13.246-6.356-19.82l.284-.8.844-.1c.051-.007.1-.017.154-.026l.084-.014a15.881,15.881,0,0,0,1.932-.421,42.169,42.169,0,0,0,9.191-4.03l.507-.284.557.166a28.743,28.743,0,0,1,4.609,1.851,10.756,10.756,0,0,1,1.489.911,19.1,19.1,0,0,0,5.162,1.652,17.544,17.544,0,0,0,8.191-.61,14.354,14.354,0,0,0,2.4-1.012c4.971-7.253,11.89-15.187,17.227-12.962h.274l.262.261c6.136,3.23,9.039,11.836,6.907,20.577C2373.918,5520.646,2362.366,5521.921,2358.813,5521.921Zm-30.647-4.294,29.935,1.525c.527.064,13.032,1.333,17.072-15.242h0c2.079-8.527-1.371-15.419-5.673-17.578l-.107-.052c-2.761-1.217-8.162,3.436-14.131,12.21l-.16.235-.241.153a15.523,15.523,0,0,1-3.241,1.43,20.3,20.3,0,0,1-9.48.709,21.8,21.8,0,0,1-5.8-1.837l-.038-.008-.365-.2a8.229,8.229,0,0,0-1.225-.766,26.762,26.762,0,0,0-3.626-1.509,43.654,43.654,0,0,1-9.292,4c-.6.166-1.154.3-1.675.392-1.6,5.513-.107,12.685,5.349,15.75A12.219,12.219,0,0,0,2328.165,5517.627Zm8.578-19.767h0Z" transform="translate(-2316.749 -5483.34)"/>
            </g>
            <g id="그룹_572" data-name="그룹 572" transform="translate(0.986)">
              <path id="패스_1042" data-name="패스 1042" d="M2376.071,5504.61c-3.689,10.707-16.17,10.174-16.17,10.174l-29.923-1.521a18.393,18.393,0,0,1-3.212-.966,10.934,10.934,0,0,1-5.49-12.019,17.742,17.742,0,0,0,2.1-.457,44.1,44.1,0,0,0,9.5-4.156c2.147-1.208,4.145-2.471,5.792-3.575l.055.039c.011.006.027.006.038.011a20.634,20.634,0,0,0,4.59,1.6,18.2,18.2,0,0,0,12.743-1.746.018.018,0,0,1,.011-.005c4.184-6.15,10.553-9.175,15.214-6.847a8.015,8.015,0,0,1,.725.411c.005,0,.011.006.017.012C2376.845,5488.6,2378.838,5496.588,2376.071,5504.61Z" transform="translate(-2319.677 -5482.999)" fill="#fff"/>
              <path id="패스_1043" data-name="패스 1043" d="M2358.958,5515.044c-.152,0-.237,0-.248,0l-30.042-1.526-.1-.021a18.882,18.882,0,0,1-3.54-1.081c-4.809-2.4-7.311-7.831-6.23-13.505l.183-.96.967-.142a15.884,15.884,0,0,0,1.932-.421,42.234,42.234,0,0,0,9.191-4.03c1.858-1.045,3.776-2.229,5.7-3.517l.768-.515.706.478a19.439,19.439,0,0,0,4.266,1.483,16.969,16.969,0,0,0,11.508-1.446c4.644-6.639,11.659-9.6,16.781-7.04.146.075.316.164.5.267h.188l.31.309c5.462,3.581,7.334,12.2,4.446,20.57C2372.56,5514.61,2360.821,5515.044,2358.958,5515.044Zm-29.934-4.26,29.815,1.514c.452.021,11.5.337,14.8-9.25h0c2.44-7.074,1-14.5-3.339-17.368l-.083-.054-.029-.018-.13-.082c-.139-.085-.3-.174-.5-.279-3.927-1.961-9.594.726-13.452,6.4l-.408.6h-.366a19.968,19.968,0,0,1-13.408,1.72,22.078,22.078,0,0,1-4.277-1.416c-1.765,1.162-3.521,2.236-5.233,3.2a44.877,44.877,0,0,1-9.812,4.285c-.438.121-.852.222-1.245.306a9.394,9.394,0,0,0,4.892,9.616A15.9,15.9,0,0,0,2329.024,5510.784Zm8.563-19.769h0Z" transform="translate(-2318.545 -5481.884)"/>
            </g>
            <g id="그룹_573" data-name="그룹 573" transform="translate(2.858 6.319)">
              <path id="패스_1044" data-name="패스 1044" d="M2346.584,5503.694a6.741,6.741,0,0,1-.379,1.845c-1.312,3.734-5.826,6.309-11.014,6-4.739-.291-8.62-2.9-9.916-6.293a44.074,44.074,0,0,0,9.5-4.155c2.147-1.208,4.146-2.471,5.792-3.575.609-.406,1.17-.785,1.669-1.136a9.82,9.82,0,0,1,3.015,2.782A7.148,7.148,0,0,1,2346.584,5503.694Z" transform="translate(-2323.451 -5494.738)" fill="#fff"/>
              <path id="패스_1045" data-name="패스 1045" d="M2334.554,5511.588q-.469,0-.943-.029c-5.131-.315-9.6-3.2-11.115-7.173l-.541-1.417,1.464-.4a42.164,42.164,0,0,0,9.186-4.029c1.858-1.044,3.776-2.229,5.7-3.517.6-.4,1.153-.773,1.644-1.119l.733-.515.766.463a11.239,11.239,0,0,1,3.434,3.178,8.494,8.494,0,0,1,1.575,5.4,8.092,8.092,0,0,1-.455,2.221C2344.536,5508.821,2339.9,5511.588,2334.554,5511.588Zm-8.8-6.86a10.44,10.44,0,0,0,8.027,4.091c4.446.269,8.506-1.868,9.635-5.081a5.364,5.364,0,0,0,.3-1.471v0a5.79,5.79,0,0,0-1.091-3.667,8.192,8.192,0,0,0-1.874-1.908q-.439.3-.921.62c-1.98,1.326-3.959,2.548-5.881,3.628A50.034,50.034,0,0,1,2325.75,5504.728Z" transform="translate(-2321.954 -5493.392)"/>
            </g>
            <g id="그룹_574" data-name="그룹 574" transform="translate(33.039 7.617)">
              <path id="패스_1046" data-name="패스 1046" d="M2378.372,5508.9a1.373,1.373,0,0,1-1.367-1.259c-.7-8.359,3.291-11.48,3.461-11.609a1.373,1.373,0,0,1,1.67,2.179c-.149.121-2.956,2.5-2.4,9.2a1.373,1.373,0,0,1-1.254,1.481C2378.449,5508.9,2378.411,5508.9,2378.372,5508.9Z" transform="translate(-2376.924 -5495.757)"/>
            </g>
          </g>
          <g id="그룹_580" data-name="그룹 580" transform="translate(198.214 300.289)">
            <g id="그룹_576" data-name="그룹 576" transform="translate(0 1.211)">
              <path id="패스_1047" data-name="패스 1047" d="M2211.735,5518.877h0a18.627,18.627,0,0,1-17.175-2.425c-.013-.008-.025-.011-.037-.019a9.934,9.934,0,0,0-1.281-1.091c-4.865-3.418-11.883-6.313-15.62-1s-4.456,15.167,2.089,20.253a14.109,14.109,0,0,0,3.029,1.436l29.369,5.949s13.761,3.851,20.788-13.339c3.372-8.25,1.373-16.461-3.491-19.879C2225.14,5505.77,2216.787,5513.414,2211.735,5518.877Z" transform="translate(-2173.443 -5506.727)"/>
              <path id="패스_1048" data-name="패스 1048" d="M2214.248,5542.572a15.706,15.706,0,0,1-3.548-.37l-29.431-5.962-.085-.029a14.847,14.847,0,0,1-3.425-1.649c-6.829-5.308-6.73-15.921-2.37-22.126,1.988-2.828,5.014-3.983,8.743-3.342a23.124,23.124,0,0,1,8.79,4,11.141,11.141,0,0,1,1.346,1.13,17.435,17.435,0,0,0,15.567,2.364c6.112-6.563,14.332-13.521,19.25-10.069,5.748,4.039,7.419,13.089,3.973,21.522C2227.913,5540.628,2219.16,5542.572,2214.248,5542.572Zm-32.255-8.987,29.376,5.956c.511.14,12.693,3.254,19.147-12.537,3.324-8.135.93-15.467-3.01-18.236-2.5-1.762-8.586,2.042-15.872,9.92l-2.38,2.574v-1.625a20.257,20.257,0,0,1-16.466-3.1l-.251-.164-.089-.09a8.522,8.522,0,0,0-1.1-.943,20.194,20.194,0,0,0-7.676-3.542c-2.687-.461-4.66.263-6.032,2.214-3.153,4.488-4.324,13.615,1.808,18.38A11.876,11.876,0,0,0,2181.993,5533.585Zm11.421-18.274h0Z" transform="translate(-2172.334 -5505.605)"/>
            </g>
            <g id="그룹_577" data-name="그룹 577" transform="translate(1.491)">
              <path id="패스_1049" data-name="패스 1049" d="M2231.811,5527.206c-5.238,10.037-17.5,7.659-17.5,7.659l-29.369-5.952a17.874,17.874,0,0,1-3.031-1.434c-4.365-3.068-5.546-9.092-3.036-14.138,0-.005.011-.011.011-.011s.005-.006.005-.012a12.336,12.336,0,0,1,.983-1.658,13.385,13.385,0,0,1,.906-1.142,12.122,12.122,0,0,1,6.446-3.849,105.95,105.95,0,0,0,13.891,5.023c.324.089.648.176.978.263a18.987,18.987,0,0,0,2.492.61,17.7,17.7,0,0,0,9.334-.806.023.023,0,0,0,.016-.006c5.052-5.463,11.8-7.506,16.065-4.513a7.144,7.144,0,0,1,.648.51l.006.006C2234.957,5511.464,2235.748,5519.672,2231.811,5527.206Z" transform="translate(-2176.189 -5504.51)" fill="#fff"/>
              <path id="패스_1050" data-name="패스 1050" d="M2216.22,5535.352a19.728,19.728,0,0,1-3.308-.249l-29.484-5.975-.1-.038a18.351,18.351,0,0,1-3.346-1.6c-4.8-3.372-6.291-9.879-3.619-15.574v-.553l.373-.18a13.266,13.266,0,0,1,.881-1.43,14.608,14.608,0,0,1,1-1.259,13.57,13.57,0,0,1,7.174-4.276l.438-.1.41.18a104.58,104.58,0,0,0,13.706,4.958l1.021.276a17.673,17.673,0,0,0,2.313.566,16.585,16.585,0,0,0,8.329-.623c5.576-5.877,12.956-7.762,17.644-4.474a8.59,8.59,0,0,1,.775.611l.016.016c4.891,4.25,5.513,13.31,1.444,21.1h0C2228,5534.176,2220.539,5535.352,2216.22,5535.352Zm-32.038-8.872,29.263,5.93c.447.087,11.319,2.039,16.009-6.949h0c3.5-6.7,3.145-14.343-.833-17.773l-.051-.044a5.669,5.669,0,0,0-.5-.39c-3.606-2.53-9.609-.713-14.265,4.325l-.085.083-.393.357-.275,0a19.227,19.227,0,0,1-9.841.789,20.74,20.74,0,0,1-2.643-.643l-.953-.258a106.774,106.774,0,0,1-13.656-4.9,10.877,10.877,0,0,0-5.292,3.313,12.082,12.082,0,0,0-.816,1.03,10.564,10.564,0,0,0-.729,1.192l-.006.548-.35.167c-2,4.442-.858,9.426,2.792,11.993A15.315,15.315,0,0,0,2184.183,5526.479Z" transform="translate(-2175.05 -5503.4)"/>
            </g>
            <g id="그룹_578" data-name="그룹 578" transform="translate(4.176 0.065)">
              <path id="패스_1051" data-name="패스 1051" d="M2203.9,5516.433a6.741,6.741,0,0,1-.642,1.768c-1.856,3.5-6.7,5.376-11.788,4.295-5.886-1.252-9.867-6-8.889-10.6a6.159,6.159,0,0,1,.39-1.218,8.337,8.337,0,0,1,5.09-4.465c.4.187.857.39,1.356.615a105.816,105.816,0,0,0,13.891,5.023A7.15,7.15,0,0,1,2203.9,5516.433Z" transform="translate(-2181.066 -5504.734)" fill="#fff"/>
              <path id="패스_1052" data-name="패스 1052" d="M2193.243,5522.96a15.29,15.29,0,0,1-3.181-.339c-6.617-1.407-11.079-6.89-9.946-12.225a7.593,7.593,0,0,1,.474-1.482,9.635,9.635,0,0,1,5.892-5.21l.528-.187.508.236c.311.145.656.3,1.028.467l.314.142a104.534,104.534,0,0,0,13.694,4.952l.605.168.268.568a8.537,8.537,0,0,1,.7,5.45,8.11,8.11,0,0,1-.772,2.127C2201.572,5520.977,2197.655,5522.96,2193.243,5522.96Zm-6.353-16.472a6.756,6.756,0,0,0-3.776,3.506,4.946,4.946,0,0,0-.312.968c-.819,3.859,2.695,7.882,7.831,8.974,4.367.931,8.693-.583,10.29-3.594a5.408,5.408,0,0,0,.512-1.408h0a5.6,5.6,0,0,0-.256-3.152,108.507,108.507,0,0,1-13.437-4.91l-.322-.146Z" transform="translate(-2179.94 -5503.519)"/>
            </g>
            <g id="그룹_579" data-name="그룹 579" transform="translate(33.436 5.873)">
              <path id="패스_1053" data-name="패스 1053" d="M2234.605,5526.694l-.092,0a1.372,1.372,0,0,1-1.279-1.46c.55-8.37,4.96-10.864,5.148-10.966a1.372,1.372,0,0,1,1.328,2.4c-.165.1-3.295,2.032-3.736,8.744A1.372,1.372,0,0,1,2234.605,5526.694Z" transform="translate(-2233.231 -5514.098)"/>
            </g>
          </g>
          <g id="그룹_581" data-name="그룹 581" transform="translate(205.731 299.373)">
            <path id="패스_1054" data-name="패스 1054" d="M2209.784,5512.375a1.347,1.347,0,0,1-.274-.027q-.708-.144-1.414-.3c-.914-.2-1.794-.428-2.535-.619l-.992-.269a107.587,107.587,0,0,1-14.084-5.091l-.322-.145c-.385-.174-.74-.333-1.061-.482-1.45-.665-2.29-1.09-2.325-1.107a1.372,1.372,0,1,1,1.241-2.448c.009,0,.833.42,2.236,1.063.318.148.663.3,1.035.47l.313.141a104.608,104.608,0,0,0,13.694,4.953l.965.26c.707.184,1.559.4,2.435.6.457.1.908.2,1.359.291a1.373,1.373,0,0,1-.271,2.718Z" transform="translate(-2186.025 -5501.734)"/>
          </g>
          <g id="그룹_589" data-name="그룹 589" transform="translate(361.628)">
            <g id="그룹_582" data-name="그룹 582">
              <path id="패스_1055" data-name="패스 1055" d="M2603.7,4982.3l-41.361,162.192-.181-.044-5.743-1.466-9.3-2.372-21.024-5.359v-.006l-22.072-5.628-21.177-5.4-9.844-2.509,41.36-162.186,11.969,3.054,21.018,5.359,9.3,2.371,5.743,1.467,7.73,1.971,21.183,5.4Z" transform="translate(-2471.333 -4957.853)" fill="#d2eaff"/>
              <path id="패스_1056" data-name="패스 1056" d="M2561.963,5144.771l-1.5-.363-90.5-23.08.339-1.331,41.7-163.516,92,23.453-.339,1.331Zm-35.865-11.96,33.879,8.64,40.683-159.533-86.677-22.1L2473.3,5119.347Z" transform="translate(-2469.963 -4956.482)"/>
            </g>
            <g id="그룹_583" data-name="그룹 583" transform="translate(54.763 4.722)" opacity="0.52">
              <path id="패스_1057" data-name="패스 1057" d="M2590.957,4970.441l-.231,172.673-21.023-5.358v-.005l.236-172.667Z" transform="translate(-2569.703 -4965.083)" fill="#fff"/>
            </g>
            <g id="그룹_584" data-name="그룹 584" transform="translate(85.082 12.453)" opacity="0.52">
              <path id="패스_1058" data-name="패스 1058" d="M2630.9,4980.628l-.236,172.672-5.743-1.465.236-172.673Z" transform="translate(-2624.923 -4979.163)" fill="#fff"/>
            </g>
            <g id="그룹_585" data-name="그룹 585" transform="translate(12.519 51.898)">
              <path id="패스_1059" data-name="패스 1059" d="M2584.761,5138.323l-92-23.458,16.283-63.858,92,23.458Zm-88.66-25.441,86.679,22.1,14.926-58.538-86.679-22.1Z" transform="translate(-2492.762 -5051.006)"/>
            </g>
            <g id="그룹_586" data-name="그룹 586" transform="translate(28.393 7.456)">
              <path id="패스_1060" data-name="패스 1060" d="M2523.049,5135a1.372,1.372,0,0,1-1.331-1.712l41.355-162.19a1.373,1.373,0,0,1,2.661.679l-41.356,162.189A1.375,1.375,0,0,1,2523.049,5135Z" transform="translate(-2521.675 -4970.063)"/>
            </g>
            <g id="그룹_587" data-name="그룹 587" transform="translate(60.022 15.521)">
              <path id="패스_1061" data-name="패스 1061" d="M2580.655,5149.686a1.389,1.389,0,0,1-.34-.043,1.373,1.373,0,0,1-.991-1.67l41.356-162.187a1.372,1.372,0,1,1,2.66.678l-41.355,162.189A1.374,1.374,0,0,1,2580.655,5149.686Z" transform="translate(-2579.281 -4984.75)"/>
            </g>
            <g id="그룹_588" data-name="그룹 588">
              <path id="패스_1062" data-name="패스 1062" d="M2561.963,5144.771l-1.5-.363-90.5-23.08.339-1.331,41.7-163.516,92,23.453-.339,1.331Zm-88.662-25.424,86.676,22.1,40.683-159.533-86.677-22.1Z" transform="translate(-2469.963 -4956.482)"/>
            </g>
          </g>
        </g>
        <g id="그룹_597" data-name="그룹 597" transform="translate(225.818 97.364)">
          <g id="그룹_595" data-name="그룹 595">
            <g id="그룹_594" data-name="그룹 594">
              <g id="그룹_593" data-name="그룹 593">
                <g id="그룹_591" data-name="그룹 591">
                  <path id="패스_1063" data-name="패스 1063" d="M2272.391,5162.394a28.186,28.186,0,0,1-1.782,9.939c-3.546,9.464-12,16.131-21.854,16.131a19.5,19.5,0,0,1-2.341-.13,22.132,22.132,0,0,1-10.682-4.187c-.146-.107-.3-.218-.448-.331-.293-.225-.576-.455-.86-.693-.138-.123-.276-.242-.422-.366a21.531,21.531,0,0,1-1.6-1.545,24.565,24.565,0,0,1-1.816-2.15c-.456-.6-.886-1.228-1.292-1.875s-.791-1.314-1.136-2c-.336-.654-.646-1.333-.929-2.025q-.246-.589-.465-1.2c-.267-.741-.508-1.495-.706-2.268-.095-.386-.19-.778-.285-1.171a28.645,28.645,0,0,1-.663-6.131,28.223,28.223,0,0,1,.629-5.969c.111-.535.24-1.065.387-1.583a18,18,0,0,1,.551-1.764,25.582,25.582,0,0,1,10.424-13.384c.241-.149.482-.3.732-.436a21.27,21.27,0,0,1,2.866-1.39c.276-.118.56-.224.844-.324a21.817,21.817,0,0,1,4.872-1.11,21.024,21.024,0,0,1,2.341-.124C2261.8,5136.312,2272.391,5147.988,2272.391,5162.394Z" transform="translate(-2223.737 -5134.939)" fill="#fff"/>
                  <path id="패스_1064" data-name="패스 1064" d="M2247.628,5188.71a20.894,20.894,0,0,1-2.506-.141,23.594,23.594,0,0,1-11.327-4.441l-.045-.032c-.14-.1-.288-.209-.427-.317-.309-.236-.607-.479-.906-.728-.014-.011-.028-.024-.042-.037-.127-.115-.255-.224-.391-.34a22.93,22.93,0,0,1-1.712-1.651,25.817,25.817,0,0,1-1.911-2.263c-.487-.644-.944-1.308-1.36-1.974-.472-.757-.865-1.448-1.2-2.11s-.667-1.374-.973-2.12c-.169-.405-.332-.825-.486-1.251-.307-.85-.549-1.633-.745-2.394-.1-.4-.194-.8-.289-1.191a30.065,30.065,0,0,1-.7-6.452,29.7,29.7,0,0,1,.66-6.259c.116-.561.254-1.125.408-1.667a18.957,18.957,0,0,1,.584-1.867,26.944,26.944,0,0,1,10.982-14.07c.265-.165.528-.326.8-.477a22.754,22.754,0,0,1,3.023-1.461c.268-.117.583-.234.9-.343a23.211,23.211,0,0,1,5.178-1.179,22.02,22.02,0,0,1,2.488-.132c13.79,0,25.009,12.316,25.009,27.455a29.487,29.487,0,0,1-1.87,10.422C2266.893,5182.028,2257.81,5188.71,2247.628,5188.71Zm-13.432-7.75c.263.22.526.433.8.64.121.093.249.186.373.276l.047.033a20.861,20.861,0,0,0,10.021,3.932,18.128,18.128,0,0,0,2.194.123c9.026,0,17.1-5.982,20.569-15.241a26.76,26.76,0,0,0,1.695-9.457c0-13.625-9.988-24.709-22.264-24.709a19.67,19.67,0,0,0-2.188.115,20.584,20.584,0,0,0-4.572,1.041c-.254.089-.508.184-.755.29a20.39,20.39,0,0,0-2.718,1.314c-.256.143-.477.28-.7.416a24.222,24.222,0,0,0-9.851,12.667,16.889,16.889,0,0,0-.519,1.659c-.144.51-.266,1.009-.372,1.518a27.315,27.315,0,0,0,.032,11.527c.087.362.182.753.276,1.137.17.663.388,1.365.664,2.13q.208.575.439,1.133c.28.681.577,1.327.885,1.927s.65,1.214,1.079,1.9c.373.6.783,1.2,1.222,1.776a23.406,23.406,0,0,0,1.715,2.031,20.527,20.527,0,0,0,1.506,1.455C2233.915,5180.713,2234.055,5180.834,2234.2,5180.96Z" transform="translate(-2222.61 -5133.813)"/>
                </g>
                <g id="그룹_592" data-name="그룹 592" transform="translate(1.381 1.497)">
                  <path id="패스_1065" data-name="패스 1065" d="M2250.681,5162.484v5.583q-.039.543-.077,1.084a68.984,68.984,0,0,1-4.183,19.286,22.127,22.127,0,0,1-10.682-4.188c-.146-.105-.3-.218-.448-.33-.293-.224-.577-.455-.861-.691-.137-.125-.275-.243-.422-.367-.55-.486-1.084-1-1.6-1.546a26.888,26.888,0,0,1-1.816-2.15c-.457-.6-.887-1.233-1.291-1.875s-.783-1.315-1.136-2c-.336-.654-.646-1.333-.929-2.025q-.246-.588-.465-1.2c-.267-.741-.5-1.495-.706-2.268-.095-.386-.189-.778-.284-1.171a29.078,29.078,0,0,1-.034-12.1c.112-.536.241-1.066.387-1.583.164-.6.344-1.184.551-1.763a25.579,25.579,0,0,1,10.424-13.384c.241-.149.482-.3.732-.436a21.323,21.323,0,0,1,2.866-1.389c.284-.118.56-.224.844-.324a21.759,21.759,0,0,1,4.872-1.109,69.511,69.511,0,0,1,4.243,20.051l-10.749,4.1Z" transform="translate(-2225.126 -5136.539)" fill="#231815"/>
                </g>
              </g>
            </g>
          </g>
          <g id="그룹_596" data-name="그룹 596" transform="translate(7.55 44.358)">
            <path id="패스_1066" data-name="패스 1066" d="M2238.86,5222.24c3.213-3.071,9.216-5.138,16.091-5.138,10.26,0,18.579,4.6,18.579,10.28" transform="translate(-2237.488 -5215.73)" fill="#90d622"/>
            <path id="패스_1067" data-name="패스 1067" d="M2272.4,5227.627a1.372,1.372,0,0,1-1.372-1.372c0-4.829-7.88-8.907-17.207-8.907-6.271,0-12.073,1.823-15.143,4.757a1.372,1.372,0,0,1-1.9-1.984c3.614-3.456,9.983-5.518,17.039-5.518,11.188,0,19.952,5.119,19.952,11.652A1.372,1.372,0,0,1,2272.4,5227.627Z" transform="translate(-2236.361 -5214.603)"/>
          </g>
        </g>
        <g id="그룹_604" data-name="그룹 604" transform="translate(291.244 97.364)">
          <g id="그룹_602" data-name="그룹 602">
            <g id="그룹_601" data-name="그룹 601">
              <g id="그룹_600" data-name="그룹 600">
                <g id="그룹_598" data-name="그룹 598">
                  <path id="패스_1068" data-name="패스 1068" d="M2391.554,5162.394a28.175,28.175,0,0,1-1.782,9.939c-3.546,9.464-12,16.131-21.855,16.131a19.5,19.5,0,0,1-2.341-.13,22.133,22.133,0,0,1-10.682-4.187c-.146-.107-.3-.218-.447-.331-.292-.225-.577-.455-.861-.693-.138-.123-.275-.242-.422-.366a21.634,21.634,0,0,1-1.6-1.545,24.693,24.693,0,0,1-1.816-2.15c-.456-.6-.886-1.228-1.291-1.875s-.792-1.314-1.137-2c-.335-.654-.645-1.333-.929-2.025q-.245-.589-.465-1.2c-.267-.741-.508-1.495-.706-2.268-.094-.386-.189-.778-.284-1.171a28.63,28.63,0,0,1-.662-6.131,28.287,28.287,0,0,1,.628-5.969c.112-.535.241-1.065.387-1.583a18.068,18.068,0,0,1,.551-1.764,25.574,25.574,0,0,1,10.424-13.384c.241-.149.482-.3.731-.436a21.279,21.279,0,0,1,2.867-1.39c.275-.118.559-.224.843-.324a21.811,21.811,0,0,1,4.872-1.11,21.025,21.025,0,0,1,2.341-.124C2380.967,5136.312,2391.554,5147.988,2391.554,5162.394Z" transform="translate(-2342.9 -5134.939)" fill="#fff"/>
                  <path id="패스_1069" data-name="패스 1069" d="M2366.79,5188.71a20.889,20.889,0,0,1-2.505-.141,23.588,23.588,0,0,1-11.326-4.441c-.168-.122-.325-.236-.474-.35-.309-.236-.607-.479-.905-.728-.169-.151-.3-.261-.434-.377a23.251,23.251,0,0,1-1.711-1.651,26.013,26.013,0,0,1-1.911-2.262c-.483-.64-.941-1.306-1.359-1.975-.476-.762-.868-1.453-1.2-2.111s-.667-1.374-.974-2.12c-.168-.407-.332-.826-.485-1.252-.307-.853-.55-1.635-.745-2.393l-.289-1.189a30.131,30.131,0,0,1-.7-6.454,29.719,29.719,0,0,1,.66-6.259c.118-.564.255-1.128.408-1.667a19.223,19.223,0,0,1,.584-1.867,26.939,26.939,0,0,1,10.982-14.07c.275-.171.533-.33.8-.477a22.694,22.694,0,0,1,3.021-1.461c.268-.117.583-.234.9-.344a23.284,23.284,0,0,1,5.178-1.178,22.008,22.008,0,0,1,2.488-.132c13.79,0,25.009,12.316,25.009,27.455a29.478,29.478,0,0,1-1.87,10.422C2386.055,5182.028,2376.972,5188.71,2366.79,5188.71Zm0-52.152a19.649,19.649,0,0,0-2.187.115,20.58,20.58,0,0,0-4.572,1.041c-.254.089-.508.184-.754.289a20.384,20.384,0,0,0-2.72,1.315c-.253.14-.469.274-.686.409a24.222,24.222,0,0,0-9.862,12.674,16.7,16.7,0,0,0-.52,1.659c-.143.507-.266,1.009-.373,1.52a27.006,27.006,0,0,0-.6,5.688,27.309,27.309,0,0,0,.631,5.838l.277,1.139c.168.658.387,1.36.664,2.129q.207.577.44,1.133c.279.681.576,1.327.884,1.927s.649,1.21,1.08,1.9c.375.6.786,1.2,1.222,1.774a23.41,23.41,0,0,0,1.715,2.031,20.66,20.66,0,0,0,1.506,1.455c.148.125.295.252.441.385.229.19.5.408.777.622.129.1.266.2.4.292a20.885,20.885,0,0,0,10.046,3.95,18.118,18.118,0,0,0,2.193.123c9.026,0,17.1-5.982,20.57-15.241a26.761,26.761,0,0,0,1.694-9.457C2389.053,5147.643,2379.065,5136.558,2366.79,5136.558Z" transform="translate(-2341.772 -5133.813)"/>
                </g>
                <g id="그룹_599" data-name="그룹 599" transform="translate(1.381 1.497)">
                  <path id="패스_1070" data-name="패스 1070" d="M2369.844,5162.484v5.583q-.038.543-.077,1.084a68.959,68.959,0,0,1-4.183,19.286,22.124,22.124,0,0,1-10.682-4.188c-.146-.105-.3-.218-.448-.33-.292-.224-.576-.455-.861-.691-.138-.125-.275-.243-.422-.367-.55-.486-1.084-1-1.6-1.546a27.249,27.249,0,0,1-1.816-2.15c-.456-.6-.886-1.233-1.291-1.875s-.784-1.315-1.137-2c-.335-.654-.645-1.333-.929-2.025q-.245-.588-.465-1.2c-.266-.741-.5-1.495-.706-2.268-.094-.386-.19-.778-.284-1.171a29.035,29.035,0,0,1-.035-12.1c.112-.536.241-1.066.388-1.583.163-.6.344-1.184.551-1.763a25.571,25.571,0,0,1,10.424-13.384c.241-.149.482-.3.731-.436a21.318,21.318,0,0,1,2.866-1.389c.284-.118.56-.224.843-.324a21.759,21.759,0,0,1,4.872-1.109,69.5,69.5,0,0,1,4.244,20.051l-10.749,4.1Z" transform="translate(-2344.288 -5136.539)" fill="#231815"/>
                </g>
              </g>
            </g>
          </g>
          <g id="그룹_603" data-name="그룹 603" transform="translate(10.197 44.358)">
            <path id="패스_1071" data-name="패스 1071" d="M2362.844,5220.287a27.379,27.379,0,0,1,13.443-3.185c10.262,0,18.58,4.6,18.58,10.28" transform="translate(-2361.471 -5215.73)" fill="#90d622"/>
            <path id="패스_1072" data-name="패스 1072" d="M2393.739,5227.627a1.372,1.372,0,0,1-1.373-1.372c0-4.829-7.88-8.907-17.207-8.907a26.278,26.278,0,0,0-12.755,3,1.373,1.373,0,0,1-1.377-2.375,28.666,28.666,0,0,1,14.132-3.369c11.188,0,19.952,5.119,19.952,11.652A1.372,1.372,0,0,1,2393.739,5227.627Z" transform="translate(-2360.343 -5214.603)"/>
          </g>
        </g>
      </g>
      <g id="그룹_612" data-name="그룹 612" transform="translate(2021.992 4864.264)">
        <g id="그룹_606" data-name="그룹 606" transform="translate(0 28.505)">
          <path id="사각형_607" data-name="사각형 607" d="M0,0H81.434a0,0,0,0,1,0,0V0A34.205,34.205,0,0,1,47.229,34.205H34.205A34.205,34.205,0,0,1,0,0V0A0,0,0,0,1,0,0Z" transform="translate(1.372 1.372)" fill="#40c0dd"/>
          <path id="패스_1073" data-name="패스 1073" d="M2243.615,4963.594h-13.024a35.618,35.618,0,0,1-35.578-35.578v-1.372h84.179v1.372A35.618,35.618,0,0,1,2243.615,4963.594Zm-45.828-34.2a32.872,32.872,0,0,0,32.8,31.459h13.024a32.872,32.872,0,0,0,32.8-31.459Z" transform="translate(-2195.013 -4926.645)"/>
        </g>
        <g id="그룹_607" data-name="그룹 607" transform="translate(0 17.57)">
          <ellipse id="타원_94" data-name="타원 94" cx="40.717" cy="10.934" rx="40.717" ry="10.934" transform="translate(1.372 1.373)" fill="#d2eaff"/>
          <path id="패스_1074" data-name="패스 1074" d="M2237.1,4931.343c-20.4,0-42.089-4.313-42.089-12.307s21.686-12.309,42.089-12.309,42.09,4.314,42.09,12.309S2257.507,4931.343,2237.1,4931.343Zm0-21.869c-24.377,0-39.344,5.569-39.344,9.563s14.967,9.561,39.344,9.561,39.345-5.569,39.345-9.561S2261.479,4909.474,2237.1,4909.474Z" transform="translate(-2195.013 -4906.728)"/>
        </g>
        <g id="그룹_608" data-name="그룹 608" transform="translate(37.339 6.168)">
          <path id="패스_1075" data-name="패스 1075" d="M2272.271,4893.349v27.239a6.542,6.542,0,0,1-.083,1.071c-1.078.049-2.179.077-3.292.077s-2.213-.027-3.3-.077a6.624,6.624,0,0,1-.084-1.071v-27.239c0-2.7,1.515-4.886,3.379-4.886S2272.271,4890.648,2272.271,4893.349Z" transform="translate(-2264.145 -4887.09)" fill="#fff"/>
          <path id="패스_1076" data-name="패스 1076" d="M2267.769,4921.981c-1.1,0-2.226-.026-3.358-.08a1.371,1.371,0,0,1-1.291-1.146,7.906,7.906,0,0,1-.1-1.294v-27.24c0-3.509,2.087-6.259,4.751-6.259s4.748,2.75,4.748,6.259v27.24a7.88,7.88,0,0,1-.1,1.294,1.372,1.372,0,0,1-1.291,1.146C2270,4921.955,2268.866,4921.981,2267.769,4921.981Zm3.292-1.45h0Zm-5.3-1.325c1.353.04,2.659.041,4.008,0v-26.984c0-2.07-1.055-3.514-2-3.514s-2.005,1.443-2.005,3.514Z" transform="translate(-2263.018 -4885.963)"/>
        </g>
        <g id="그룹_609" data-name="그룹 609" transform="translate(32.679)">
          <circle id="타원_95" data-name="타원 95" cx="8.037" cy="8.037" r="8.037" transform="translate(1.373 1.373)" fill="#fff451"/>
          <path id="패스_1077" data-name="패스 1077" d="M2263.942,4893.549a9.41,9.41,0,1,1,9.41-9.41A9.421,9.421,0,0,1,2263.942,4893.549Zm0-16.075a6.665,6.665,0,1,0,6.665,6.665A6.673,6.673,0,0,0,2263.942,4877.474Z" transform="translate(-2254.532 -4874.729)"/>
        </g>
        <g id="그룹_610" data-name="그룹 610" transform="translate(20.727 15.791)">
          <line id="선_16" data-name="선 16" x1="16.667" y2="22.762" transform="translate(1.107 0.811)" fill="#90d622"/>
          <rect id="사각형_608" data-name="사각형 608" width="28.212" height="2.745" transform="translate(0 22.763) rotate(-53.788)"/>
        </g>
        <g id="그룹_611" data-name="그룹 611" transform="translate(44.342 16.658)">
          <line id="선_17" data-name="선 17" x2="15.42" y2="21.916" transform="translate(1.123 0.79)" fill="#90d622"/>
          <rect id="사각형_609" data-name="사각형 609" width="2.745" height="26.798" transform="translate(0 1.58) rotate(-35.13)"/>
        </g>
      </g>
      <g id="그룹_613" data-name="그룹 613" transform="translate(2051.201 4857.535)">
        <path id="패스_1078" data-name="패스 1078" d="M2272.6,4870.731a1.374,1.374,0,0,1-1.07-.512,13.39,13.39,0,0,0-20.873,0,1.373,1.373,0,1,1-2.137-1.723,16.136,16.136,0,0,1,25.149,0,1.373,1.373,0,0,1-1.068,2.234Z" transform="translate(-2248.212 -4862.473)"/>
      </g>
      <g id="그룹_614" data-name="그룹 614" transform="translate(2052.574 4864.42)">
        <path id="패스_1079" data-name="패스 1079" d="M2250.713,4875.013" transform="translate(-2250.713 -4875.013)" fill="none" stroke="#000" stroke-linecap="round" stroke-miterlimit="10" stroke-width="5"/>
      </g>
      <g id="그룹_615" data-name="그룹 615" transform="translate(2075.585 4864.42)">
        <path id="패스_1080" data-name="패스 1080" d="M2292.623,4875.013" transform="translate(-2292.623 -4875.013)" fill="none" stroke="#000" stroke-linecap="round" stroke-miterlimit="10" stroke-width="5"/>
      </g>
      <g id="그룹_616" data-name="그룹 616" transform="translate(2045.87 4851.523)">
        <path id="패스_1081" data-name="패스 1081" d="M2273.549,4861.7a1.369,1.369,0,0,1-.982-.413,21.41,21.41,0,0,0-31.709,0,1.373,1.373,0,1,1-1.965-1.918,24.153,24.153,0,0,1,35.638,0,1.371,1.371,0,0,1-.982,2.331Z" transform="translate(-2238.503 -4851.523)"/>
      </g>
      <g id="그룹_619" data-name="그룹 619" transform="translate(2048.698 5054.195)">
        <g id="그룹_617" data-name="그룹 617" transform="translate(0 0.832)">
          <ellipse id="타원_96" data-name="타원 96" cx="3.974" cy="11.784" rx="3.974" ry="11.784" transform="translate(0 7.842) rotate(-80.602)" fill="#90d622"/>
        </g>
        <g id="그룹_618" data-name="그룹 618" transform="translate(64.185 0)">
          <ellipse id="타원_97" data-name="타원 97" cx="3.974" cy="11.784" rx="3.974" ry="11.784" transform="translate(0 7.842) rotate(-80.602)" fill="#90d622"/>
        </g>
      </g>
      <g id="그룹_631" data-name="그룹 631" transform="translate(2058.963 5065.4)">
        <g id="그룹_620" data-name="그룹 620" transform="translate(8.424 5.245)">
          <path id="패스_1082" data-name="패스 1082" d="M2289.417,5260.6c1-.506,10.108,5.383,27.486,2.649,10.659-1.677,14.486-6.875,14.876-9.231s6.487.591,6.487.591,3.106,22.849-20.271,27.079c-15.5,2.8-38.046-3.072-37.8-20.065C2280.272,5256.32,2289.417,5260.6,2289.417,5260.6Z" transform="translate(-2278.82 -5251.735)" fill="#fff"/>
          <path id="패스_1083" data-name="패스 1083" d="M2309.166,5282.588c-8.548,0-18.269-2.179-24.749-7.672a18.118,18.118,0,0,1-6.723-14.438,3.738,3.738,0,0,1,1.7-3.331c2.669-1.67,7.506.213,9.117.923a9.138,9.138,0,0,1,2.32.63c3.538,1.226,11.824,4.1,24.726,2.067,9.616-1.512,13.406-6.11,13.735-8.1a2.323,2.323,0,0,1,1.244-1.725c1.958-1.018,5.685.574,7.2,1.3a1.371,1.371,0,0,1,.762,1.051c.033.242,3,24.2-21.388,28.614A45.08,45.08,0,0,1,2309.166,5282.588Zm-27.077-23.376a2.375,2.375,0,0,0-1.235.262c-.121.076-.4.253-.415,1.043a15.259,15.259,0,0,0,5.754,12.306c7.945,6.734,21.342,8.031,30.428,6.389,19.739-3.572,19.529-20.931,19.23-24.805a11.044,11.044,0,0,0-3.891-1.059c-.715,3.258-5.451,8.476-15.973,10.132-13.578,2.137-22.319-.893-26.052-2.186-.548-.189-1.16-.4-1.434-.462a1.384,1.384,0,0,1-.793-.112A15.879,15.879,0,0,0,2282.09,5259.211Zm6.324,1.6Z" transform="translate(-2277.692 -5250.613)"/>
        </g>
        <g id="그룹_621" data-name="그룹 621" transform="translate(0 8.59)">
          <path id="패스_1084" data-name="패스 1084" d="M2285.423,5259.2s-5.154,9.814-20.574,5.933" transform="translate(-2263.476 -5257.829)" fill="#90d622"/>
          <path id="패스_1085" data-name="패스 1085" d="M2270.479,5266.278a29.086,29.086,0,0,1-7.092-.94,1.373,1.373,0,0,1,.67-2.664c14.1,3.551,18.832-4.885,19.026-5.246a1.373,1.373,0,0,1,2.427,1.283C2285.463,5258.8,2281.386,5266.278,2270.479,5266.278Z" transform="translate(-2262.349 -5256.705)"/>
        </g>
        <g id="그룹_622" data-name="그룹 622" transform="translate(4.203 6.072)">
          <ellipse id="타원_98" data-name="타원 98" cx="3.974" cy="5.888" rx="3.974" ry="5.888" transform="translate(0 7.842) rotate(-80.602)" fill="#90d622"/>
        </g>
        <g id="그룹_623" data-name="그룹 623" transform="translate(59.575 0)">
          <ellipse id="타원_99" data-name="타원 99" cx="3.974" cy="5.888" rx="3.974" ry="5.888" transform="translate(0 7.842) rotate(-80.602)" fill="#90d622"/>
        </g>
        <g id="그룹_624" data-name="그룹 624" transform="translate(57.192 3.92)">
          <path id="패스_1086" data-name="패스 1086" d="M2369.014,5250.7c.448.074,5.891,5.662,15.529,1.453" transform="translate(-2367.641 -5249.326)" fill="#90d622"/>
          <path id="패스_1087" data-name="패스 1087" d="M2376.494,5253.976a15.1,15.1,0,0,1-8.985-3.016c-.078-.057-.143-.1-.194-.14a1.373,1.373,0,0,1,.794-2.6,2.3,2.3,0,0,1,1,.515c1.505,1.084,6.083,4.383,13.751,1.034a1.373,1.373,0,1,1,1.1,2.516A18.653,18.653,0,0,1,2376.494,5253.976Zm-8.833-3.051h0Zm0,0Z" transform="translate(-2366.513 -5248.2)"/>
        </g>
        <g id="그룹_625" data-name="그룹 625" transform="translate(13.174 7.261)">
          <path id="패스_1088" data-name="패스 1088" d="M2311.921,5275.149a41.526,41.526,0,0,1-10.455-1.25c-10.578-2.918-14.765-9.974-14.938-10.274a1.372,1.372,0,0,1,2.374-1.378c.055.093,3.876,6.409,13.295,9.005a39.88,39.88,0,0,0,17.576.307c17.857-4.423,16.683-15.264,16.625-15.725a1.372,1.372,0,0,1,2.719-.373c.02.138,1.678,13.719-18.685,18.762A36.2,36.2,0,0,1,2311.921,5275.149Z" transform="translate(-2286.343 -5254.283)"/>
        </g>
        <g id="그룹_626" data-name="그룹 626" transform="translate(13.175 14.333)">
          <line id="선_18" data-name="선 18" x1="9.918" y2="11.4" transform="translate(1.373 1.373)" fill="#90d622"/>
          <path id="패스_1089" data-name="패스 1089" d="M2287.716,5281.309a1.372,1.372,0,0,1-1.035-2.273l9.918-11.4a1.373,1.373,0,1,1,2.071,1.8l-9.919,11.4A1.367,1.367,0,0,1,2287.716,5281.309Z" transform="translate(-2286.344 -5267.164)"/>
        </g>
        <g id="그룹_627" data-name="그룹 627" transform="translate(26.71 16.172)">
          <line id="선_19" data-name="선 19" x1="4.932" y2="16.198" transform="translate(1.373 1.373)" fill="#90d622"/>
          <path id="패스_1090" data-name="패스 1090" d="M2312.37,5289.458a1.415,1.415,0,0,1-.4-.06,1.375,1.375,0,0,1-.913-1.714l4.932-16.2a1.373,1.373,0,0,1,2.626.8l-4.932,16.2A1.373,1.373,0,0,1,2312.37,5289.458Z" transform="translate(-2310.996 -5270.513)"/>
        </g>
        <g id="그룹_628" data-name="그룹 628" transform="translate(44.018 16.173)">
          <line id="선_20" data-name="선 20" y2="17.458" transform="translate(1.372 1.372)" fill="#90d622"/>
          <path id="패스_1091" data-name="패스 1091" d="M2343.892,5290.718a1.373,1.373,0,0,1-1.373-1.374v-17.458a1.373,1.373,0,1,1,2.745,0v17.458A1.374,1.374,0,0,1,2343.892,5290.718Z" transform="translate(-2342.52 -5270.514)"/>
        </g>
        <g id="그룹_629" data-name="그룹 629" transform="translate(57.332 10.246)">
          <line id="선_21" data-name="선 21" x2="7.625" y2="8.931" transform="translate(1.372 1.372)" fill="#90d622"/>
          <path id="패스_1092" data-name="패스 1092" d="M2375.766,5271.4a1.365,1.365,0,0,1-1.044-.482l-7.625-8.93a1.372,1.372,0,1,1,2.088-1.782l7.625,8.93a1.373,1.373,0,0,1-1.044,2.264Z" transform="translate(-2366.769 -5259.721)"/>
        </g>
        <g id="그룹_630" data-name="그룹 630" transform="translate(53.992 12.489)">
          <line id="선_22" data-name="선 22" x2="5.543" y2="15.053" transform="translate(1.373 1.374)" fill="#90d622"/>
          <path id="패스_1093" data-name="패스 1093" d="M2367.6,5281.6a1.372,1.372,0,0,1-1.288-.9l-5.543-15.054a1.372,1.372,0,1,1,2.575-.95l5.543,15.054a1.373,1.373,0,0,1-.813,1.762A1.353,1.353,0,0,1,2367.6,5281.6Z" transform="translate(-2360.685 -5263.805)"/>
        </g>
      </g>
      <g id="그룹_632" data-name="그룹 632" transform="translate(2095.324 5044.024)">
        <path id="패스_1094" data-name="패스 1094" d="M2331.073,5215.13a11.323,11.323,0,0,1,2.764-6.53c3.625-4.235,9.4-5.24,12.9-2.244s3.4,8.856-.226,13.093a11.926,11.926,0,0,1-3.014,2.536" transform="translate(-2329.7 -5203.256)" fill="#90d622"/>
        <path id="패스_1095" data-name="패스 1095" d="M2342.372,5222.228a1.372,1.372,0,0,1-.7-2.556,10.523,10.523,0,0,0,2.666-2.245,9.814,9.814,0,0,0,2.455-6.141,6,6,0,0,0-7.355-6.3,9.807,9.807,0,0,0-5.689,3.374,9.967,9.967,0,0,0-2.438,5.73,1.372,1.372,0,1,1-2.739-.185,12.722,12.722,0,0,1,3.091-7.331,12.559,12.559,0,0,1,7.3-4.292,8.733,8.733,0,0,1,10.571,9.047,12.556,12.556,0,0,1-3.115,7.88,13.265,13.265,0,0,1-3.363,2.828A1.367,1.367,0,0,1,2342.372,5222.228Z" transform="translate(-2328.573 -5202.126)"/>
      </g>
    </g>
    <circle id="타원_100" data-name="타원 100" cx="7" cy="7" r="7" transform="translate(1825 2551)" fill="#90d622"/>
    <circle id="타원_104" data-name="타원 104" cx="7" cy="7" r="7" transform="translate(1880 2818)" fill="#90d622"/>
    <circle id="타원_105" data-name="타원 105" cx="7" cy="7" r="7" transform="translate(1606 2832)" fill="#90d622"/>
    <ellipse id="타원_103" data-name="타원 103" cx="3.599" cy="3.599" rx="3.599" ry="3.599" transform="translate(1649.083 2584.094) rotate(59)" fill="#90d622"/>
    <circle id="타원_101" data-name="타원 101" cx="14" cy="14" r="14" transform="translate(1839 2580)" fill="#90d622"/>
    <ellipse id="타원_102" data-name="타원 102" cx="7.197" cy="7.197" rx="7.197" ry="7.197" transform="translate(1632.338 2594.155) rotate(59)" fill="#90d622"/>
  </g>
</svg>
